<svg width="110" height="110" viewBox="0 0 110 110" fill="none" xmlns="http://www.w3.org/2000/svg">
<path d="M13.75 35.75C13.75 28.0493 13.75 24.1989 15.2487 21.2576C16.5669 18.6704 18.6704 16.5669 21.2576 15.2487C24.1989 13.75 28.0493 13.75 35.75 13.75H74.25C81.9507 13.75 85.8011 13.75 88.7424 15.2487C91.3296 16.5669 93.4331 18.6704 94.7513 21.2576C96.25 24.1989 96.25 28.0493 96.25 35.75V74.25C96.25 81.9507 96.25 85.8011 94.7513 88.7424C93.4331 91.3296 91.3296 93.4331 88.7424 94.7513C85.8011 96.25 81.9507 96.25 74.25 96.25H35.75C28.0493 96.25 24.1989 96.25 21.2576 94.7513C18.6704 93.4331 16.5669 91.3296 15.2487 88.7424C13.75 85.8011 13.75 81.9507 13.75 74.25V35.75Z" fill="#00B34F"/>
<path d="M80.2083 29.7917L29.7917 80.2083M38.9583 48.125V29.7917M29.7917 38.9583H48.125M61.875 71.0417H80.2083M35.75 96.25H74.25C81.9507 96.25 85.8011 96.25 88.7424 94.7513C91.3296 93.4331 93.4331 91.3296 94.7513 88.7424C96.25 85.8011 96.25 81.9507 96.25 74.25V35.75C96.25 28.0493 96.25 24.1989 94.7513 21.2576C93.4331 18.6704 91.3296 16.5669 88.7424 15.2487C85.8011 13.75 81.9507 13.75 74.25 13.75H35.75C28.0493 13.75 24.1989 13.75 21.2576 15.2487C18.6704 16.5669 16.5669 18.6704 15.2487 21.2576C13.75 24.1989 13.75 28.0493 13.75 35.75V74.25C13.75 81.9507 13.75 85.8011 15.2487 88.7424C16.5669 91.3296 18.6704 93.4331 21.2576 94.7513C24.1989 96.25 28.0493 96.25 35.75 96.25Z" stroke="#144394" stroke-width="6" stroke-linecap="round" stroke-linejoin="round"/>
</svg>
