<svg width="110" height="110" viewBox="0 0 110 110" fill="none" xmlns="http://www.w3.org/2000/svg">
<path d="M77 9.16699H40.3333C32.6326 9.16699 28.7823 9.16699 25.841 10.6657C23.2537 11.9839 21.1503 14.0874 19.832 16.6746C18.3333 19.6159 18.3333 23.4663 18.3333 31.167V87.0837C18.3333 79.4897 24.4894 73.3337 32.0833 73.3337H91.6667V23.8337C91.6667 18.6998 91.6667 16.1329 90.6676 14.1721C89.7887 12.4473 88.3864 11.0449 86.6616 10.1661C84.7007 9.16699 82.1338 9.16699 77 9.16699Z" fill="#00B34F"/>
<path d="M91.6667 87.0837V73.3337H32.0833C24.4894 73.3337 18.3333 79.4897 18.3333 87.0837M40.3333 100.834H77C82.1338 100.834 84.7007 100.834 86.6616 99.8346C88.3864 98.9557 89.7887 97.5534 90.6676 95.8286C91.6667 93.8677 91.6667 91.3008 91.6667 86.167V23.8337C91.6667 18.6998 91.6667 16.1329 90.6676 14.1721C89.7887 12.4473 88.3864 11.0449 86.6616 10.1661C84.7007 9.16699 82.1338 9.16699 77 9.16699H40.3333C32.6326 9.16699 28.7823 9.16699 25.841 10.6657C23.2537 11.9839 21.1503 14.0874 19.832 16.6746C18.3333 19.6159 18.3333 23.4663 18.3333 31.167V78.8337C18.3333 86.5344 18.3333 90.3847 19.832 93.326C21.1503 95.9133 23.2537 98.0167 25.841 99.335C28.7823 100.834 32.6326 100.834 40.3333 100.834Z" stroke="#144394" stroke-width="6" stroke-linecap="round" stroke-linejoin="round"/>
</svg>
