<svg width="111" height="110" viewBox="0 0 111 110" fill="none" xmlns="http://www.w3.org/2000/svg">
<path d="M64.6666 80.9351C61.7995 81.9484 58.7141 82.4999 55.5 82.4999C52.2858 82.4999 49.2005 81.9484 46.3333 80.9351V100.833H64.6666V80.9351Z" fill="#00B34F"/>
<path d="M46.3334 80.935V91.6665C46.3334 96.7291 50.4374 100.833 55.5 100.833C60.5626 100.833 64.6667 96.7291 64.6667 91.6665V80.935M55.5 9.1665V13.7498M14.25 54.9998H9.66669M25.7084 25.2082L22.9579 22.4577M85.2917 25.2082L88.0428 22.4577M101.333 54.9998H96.75M83 54.9998C83 70.1877 70.6879 82.4998 55.5 82.4998C40.3122 82.4998 28 70.1877 28 54.9998C28 39.812 40.3122 27.4998 55.5 27.4998C70.6879 27.4998 83 39.812 83 54.9998Z" stroke="#144394" stroke-width="6" stroke-linecap="round" stroke-linejoin="round"/>
</svg>
