<svg width="110" height="110" viewBox="0 0 110 110" fill="none" xmlns="http://www.w3.org/2000/svg">
<path d="M36.6667 32.0833C36.6667 21.9581 44.8748 13.75 55 13.75C65.1252 13.75 73.3333 21.9581 73.3333 32.0833V59.5833C73.3333 69.7085 65.1252 77.9167 55 77.9167C44.8748 77.9167 36.6667 69.7085 36.6667 59.5833V32.0833Z" fill="#00B34F"/>
<path d="M91.6667 55V59.5833C91.6667 79.8338 75.2504 96.25 55 96.25C34.7496 96.25 18.3333 79.8338 18.3333 59.5833V55M55 77.9167C44.8748 77.9167 36.6667 69.7086 36.6667 59.5833V32.0833C36.6667 21.9581 44.8748 13.75 55 13.75C65.1252 13.75 73.3333 21.9581 73.3333 32.0833V59.5833C73.3333 69.7086 65.1252 77.9167 55 77.9167Z" stroke="#144394" stroke-width="6" stroke-linecap="round" stroke-linejoin="round"/>
</svg>
