<svg width="85" height="86" viewBox="0 0 85 86" fill="none" xmlns="http://www.w3.org/2000/svg">
<path d="M19.4792 16.6343C19.4792 14.7991 19.4792 13.8815 19.811 13.1699C20.1629 12.4153 20.7694 11.8087 21.5241 11.4568C22.2357 11.125 23.1532 11.125 24.9884 11.125H60.0116C61.8467 11.125 62.7643 11.125 63.4759 11.4568C64.2306 11.8087 64.8371 12.4153 65.189 13.1699C65.5208 13.8815 65.5208 14.7991 65.5208 16.6343V37.6875C65.5208 50.4016 55.214 60.7083 42.5 60.7083C29.7859 60.7083 19.4792 50.4016 19.4792 37.6875V16.6343Z" fill="#00B34F"/>
<path d="M42.5 60.7083C29.786 60.7083 19.4792 50.4016 19.4792 37.6875V16.6343C19.4792 14.7991 19.4792 13.8815 19.811 13.1699C20.1629 12.4153 20.7694 11.8087 21.5241 11.4568C22.2357 11.125 23.1533 11.125 24.9884 11.125H60.0116C61.8468 11.125 62.7643 11.125 63.4759 11.4568C64.2306 11.8087 64.8371 12.4153 65.189 13.1699C65.5208 13.8815 65.5208 14.7991 65.5208 16.6343V37.6875C65.5208 50.4016 55.2141 60.7083 42.5 60.7083ZM42.5 60.7083V74.875M60.2083 74.875H24.7917M77.9167 18.2083V35.9167M7.08334 18.2083V35.9167" stroke="#144394" stroke-width="4" stroke-linecap="round" stroke-linejoin="round"/>
</svg>
