<svg width="85" height="86" viewBox="0 0 85 86" fill="none" xmlns="http://www.w3.org/2000/svg">
<path d="M43.7671 13.5294C43.3025 13.2971 43.0702 13.1809 42.8266 13.1352C42.6108 13.0947 42.3893 13.0947 42.1735 13.1352C41.9298 13.1809 41.6975 13.2971 41.2329 13.5294L7.08337 30.6042L41.2329 47.6789C41.6975 47.9112 41.9298 48.0274 42.1735 48.0731C42.3893 48.1136 42.6108 48.1136 42.8266 48.0731C43.0702 48.0274 43.3025 47.9112 43.7671 47.6789L77.9167 30.6042L43.7671 13.5294Z" fill="#00B34F"/>
<path d="M60.2084 51.8542V41.2094C60.2084 40.5738 60.2084 40.256 60.1116 39.9754C60.026 39.7272 59.8863 39.5012 59.7027 39.3137C59.495 39.1016 59.2107 38.9595 58.6421 38.6752L42.5 30.6042M14.1667 34.1458V58.2526C14.1667 59.5698 14.1667 60.2284 14.3722 60.805C14.5538 61.3148 14.8499 61.7762 15.2376 62.1537C15.6762 62.5808 16.275 62.8552 17.4723 63.404L40.139 73.7929C41.0075 74.1909 41.4418 74.39 41.8942 74.4685C42.2951 74.5381 42.705 74.5381 43.1059 74.4685C43.5583 74.39 43.9925 74.1909 44.8611 73.7929L67.5278 63.404C68.7251 62.8552 69.3239 62.5808 69.7624 62.1537C70.1502 61.7762 70.4462 61.3148 70.6279 60.805C70.8334 60.2284 70.8334 59.5698 70.8334 58.2526V34.1458M7.08337 30.6042L41.2329 13.5294C41.6975 13.2971 41.9298 13.1809 42.1735 13.1352C42.3893 13.0947 42.6108 13.0947 42.8266 13.1352C43.0702 13.1809 43.3025 13.2971 43.7671 13.5294L77.9167 30.6042L43.7671 47.679C43.3025 47.9113 43.0702 48.0274 42.8266 48.0731C42.6108 48.1136 42.3893 48.1136 42.1735 48.0731C41.9298 48.0274 41.6975 47.9113 41.2329 47.679L7.08337 30.6042Z" stroke="#144394" stroke-width="4" stroke-linecap="round" stroke-linejoin="round"/>
</svg>
