<svg width="85" height="86" viewBox="0 0 85 86" fill="none" xmlns="http://www.w3.org/2000/svg">
<path d="M33.6458 46.5417H19.4792C17.8335 46.5417 17.0107 46.5417 16.3264 46.6778C13.5166 47.2367 11.32 49.4332 10.7611 52.2431C10.625 52.9274 10.625 53.7502 10.625 55.3959C10.625 57.0415 10.625 57.8643 10.7611 58.5486C11.32 61.3585 13.5166 63.555 16.3264 64.1139C17.0107 64.25 17.8335 64.25 19.4792 64.25H33.6458C35.2915 64.25 36.1143 64.25 36.7986 64.1139C39.6085 63.555 41.805 61.3585 42.3639 58.5486C42.5 57.8643 42.5 57.0415 42.5 55.3959C42.5 53.7502 42.5 52.9274 42.3639 52.2431C41.805 49.4332 39.6085 47.2367 36.7986 46.6778C36.1143 46.5417 35.2915 46.5417 33.6458 46.5417Z" fill="#00B34F"/>
<path d="M10.625 78.4166H42.5M38.9583 22.6426C41.2223 22.0599 43.5958 21.75 46.0417 21.75C61.6897 21.75 74.375 34.4352 74.375 50.0833C74.375 61.974 67.0502 72.154 56.6667 76.3571M19.4792 46.5416H33.6458C35.2915 46.5416 36.1143 46.5416 36.7986 46.6778C39.6085 47.2367 41.805 49.4332 42.3639 52.2431C42.5 52.9273 42.5 53.7502 42.5 55.3958C42.5 57.0415 42.5 57.8643 42.3639 58.5485C41.805 61.3584 39.6085 63.555 36.7986 64.1139C36.1143 64.25 35.2915 64.25 33.6458 64.25H19.4792C17.8335 64.25 17.0107 64.25 16.3264 64.1139C13.5166 63.555 11.32 61.3584 10.7611 58.5485C10.625 57.8643 10.625 57.0415 10.625 55.3958C10.625 53.7502 10.625 52.9273 10.7611 52.2431C11.32 49.4332 13.5166 47.2367 16.3264 46.6778C17.0107 46.5416 17.8335 46.5416 19.4792 46.5416ZM14.1667 19.9791V46.5416H38.9583V19.9791C38.9583 13.1331 33.4085 7.58331 26.5625 7.58331C19.7165 7.58331 14.1667 13.1331 14.1667 19.9791Z" stroke="#144394" stroke-width="4" stroke-linecap="round" stroke-linejoin="round"/>
</svg>
