<svg width="111" height="110" viewBox="0 0 111 110" fill="none" xmlns="http://www.w3.org/2000/svg">
<path d="M55.5 100.833C80.8131 100.833 101.333 80.3129 101.333 54.9998C101.333 29.6868 80.8131 9.1665 55.5 9.1665C30.187 9.1665 9.66667 29.6868 9.66667 54.9998C9.66667 80.3129 30.187 100.833 55.5 100.833Z" fill="#00B34F"/>
<path d="M39.4583 67.2221C39.4583 73.1284 44.2464 77.9165 50.1528 77.9165H60.0833C66.4116 77.9165 71.5417 72.7864 71.5417 66.4582C71.5417 60.1299 66.4116 54.9998 60.0833 54.9998H50.9167C44.5884 54.9998 39.4583 49.8698 39.4583 43.5415C39.4583 37.2132 44.5884 32.0832 50.9167 32.0832H60.8472C66.7536 32.0832 71.5417 36.8712 71.5417 42.7776M55.5 25.2082V32.0832M55.5 77.9165V84.7915M101.333 54.9998C101.333 80.3129 80.8131 100.833 55.5 100.833C30.187 100.833 9.66667 80.3129 9.66667 54.9998C9.66667 29.6868 30.187 9.1665 55.5 9.1665C80.8131 9.1665 101.333 29.6868 101.333 54.9998Z" stroke="#144394" stroke-width="6" stroke-linecap="round" stroke-linejoin="round"/>
</svg>
