<svg width="110" height="110" viewBox="0 0 110 110" fill="none" xmlns="http://www.w3.org/2000/svg">
<path d="M69.6667 9.16699H40.3333C32.6326 9.16699 28.7823 9.16699 25.841 10.6657C23.2537 11.9839 21.1503 14.0874 19.832 16.6746C18.3333 19.6159 18.3333 23.4663 18.3333 31.167V78.8337C18.3333 86.5344 18.3333 90.3847 19.832 93.326C21.1503 95.9133 23.2537 98.0167 25.841 99.335C28.7823 100.834 32.6326 100.834 40.3333 100.834H57.2917L91.6667 32.0837V31.167C91.6667 23.4663 91.6667 19.6159 90.168 16.6746C88.8498 14.0874 86.7463 11.9839 84.159 10.6657C81.2178 9.16699 77.3674 9.16699 69.6667 9.16699Z" fill="#00B34F"/>
<path d="M91.6667 32.0837V31.167C91.6667 23.4663 91.6667 19.6159 90.168 16.6746C88.8497 14.0874 86.7463 11.9839 84.159 10.6657C81.2178 9.16699 77.3674 9.16699 69.6667 9.16699H40.3333C32.6326 9.16699 28.7823 9.16699 25.841 10.6657C23.2537 11.9839 21.1503 14.0874 19.832 16.6746C18.3333 19.6159 18.3333 23.4663 18.3333 31.167V78.8337C18.3333 86.5344 18.3333 90.3847 19.832 93.326C21.1503 95.9133 23.2537 98.0167 25.841 99.335C28.7823 100.834 32.6326 100.834 40.3333 100.834H57.2917M57.2917 50.417H36.6667M52.7083 68.7503H36.6667M73.3333 32.0837H36.6667M82.5 82.5003V57.292C82.5 53.495 85.578 50.417 89.375 50.417C93.172 50.417 96.25 53.495 96.25 57.292V82.5003C96.25 90.0942 90.0939 96.2503 82.5 96.2503C74.9061 96.2503 68.75 90.0942 68.75 82.5003V64.167" stroke="#144394" stroke-width="6" stroke-linecap="round" stroke-linejoin="round"/>
</svg>
