<svg width="110" height="110" viewBox="0 0 110 110" fill="none" xmlns="http://www.w3.org/2000/svg">
<path d="M27.5 96.2501C37.6252 96.2501 45.8333 88.042 45.8333 77.9167V77.0001C45.8333 75.7166 45.8333 75.0749 45.5836 74.5847C45.3639 74.1535 45.0133 73.8029 44.5821 73.5832C44.0919 73.3334 43.4501 73.3334 42.1667 73.3334H12.8333C11.5499 73.3334 10.9082 73.3334 10.4179 73.5832C9.98674 73.8029 9.63616 74.1535 9.41645 74.5847C9.16667 75.0749 9.16667 75.7166 9.16667 77.0001V77.9167C9.16667 88.042 17.3748 96.2501 27.5 96.2501Z" fill="#00B34F"/>
<path d="M82.5 87.0834C92.6252 87.0834 100.833 78.8753 100.833 68.7501V67.8334C100.833 66.55 100.833 65.9082 100.584 65.418C100.364 64.9868 100.013 64.6362 99.5821 64.4165C99.0919 64.1667 98.4501 64.1667 97.1667 64.1667H67.8333C66.5499 64.1667 65.9082 64.1667 65.4179 64.4165C64.9867 64.6362 64.6362 64.9868 64.4165 65.418C64.1667 65.9082 64.1667 66.55 64.1667 67.8334V68.7501C64.1667 78.8753 72.3748 87.0834 82.5 87.0834Z" fill="#00B34F"/>
<path d="M9.16667 77.9167V77.2283C9.16667 75.7777 9.16667 75.0524 9.27762 74.3458C9.37613 73.7184 9.53958 73.1029 9.76532 72.5093C10.0196 71.8408 10.3794 71.211 11.0991 69.9516L27.5 41.25M9.16667 77.9167C9.16667 88.0419 17.3748 96.25 27.5 96.25C37.6252 96.25 45.8333 88.0419 45.8333 77.9167M9.16667 77.9167V77C9.16667 75.7165 9.16667 75.0748 9.41645 74.5846C9.63616 74.1534 9.98674 73.8028 10.4179 73.5831C10.9082 73.3333 11.5499 73.3333 12.8333 73.3333H42.1667C43.4501 73.3333 44.0919 73.3333 44.5821 73.5831C45.0133 73.8028 45.3639 74.1534 45.5836 74.5846C45.8333 75.0748 45.8333 75.7165 45.8333 77V77.9167M27.5 41.25L43.9009 69.9516C44.6206 71.211 44.9804 71.8408 45.2347 72.5093C45.4604 73.1029 45.6239 73.7184 45.7224 74.3458C45.8333 75.0524 45.8333 75.7777 45.8333 77.2283V77.9167M27.5 41.25L82.5 32.0833M64.1667 68.75V68.0616C64.1667 66.611 64.1667 65.8857 64.2776 65.1791C64.3761 64.5517 64.5396 63.9363 64.7653 63.3427C65.0196 62.6741 65.3794 62.0444 66.0991 60.7849L82.5 32.0833M64.1667 68.75C64.1667 78.8752 72.3748 87.0833 82.5 87.0833C92.6252 87.0833 100.833 78.8752 100.833 68.75M64.1667 68.75V67.8333C64.1667 66.5499 64.1667 65.9082 64.4165 65.4179C64.6362 64.9867 64.9867 64.6362 65.4179 64.4164C65.9082 64.1667 66.5499 64.1667 67.8333 64.1667H97.1667C98.4501 64.1667 99.0919 64.1667 99.5821 64.4164C100.013 64.6362 100.364 64.9867 100.584 65.4179C100.833 65.9082 100.833 66.5499 100.833 67.8333V68.75M82.5 32.0833L98.9009 60.7849C99.6206 62.0444 99.9804 62.6741 100.235 63.3427C100.46 63.9363 100.624 64.5517 100.722 65.1791C100.833 65.8857 100.833 66.611 100.833 68.0616V68.75M55 13.75V36.6667" stroke="#144394" stroke-width="6" stroke-linecap="round" stroke-linejoin="round"/>
</svg>
