<svg width="110" height="110" viewBox="0 0 110 110" fill="none" xmlns="http://www.w3.org/2000/svg">
<path d="M43.5417 55C54.9325 55 64.1667 45.7659 64.1667 34.375C64.1667 22.9841 54.9325 13.75 43.5417 13.75C32.1508 13.75 22.9167 22.9841 22.9167 34.375C22.9167 45.7659 32.1508 55 43.5417 55Z" fill="#00B34F"/>
<path d="M43.5416 68.75C30.5679 68.75 19.037 75.8292 11.7298 86.8007C10.129 89.2043 9.32857 90.4061 9.42072 91.9413C9.49247 93.1366 10.276 94.6 11.2312 95.3223C12.4578 96.25 14.1449 96.25 17.5191 96.25H69.5642C72.9384 96.25 74.6255 96.25 75.8521 95.3223C76.8073 94.6 77.5908 93.1366 77.6626 91.9413C77.7547 90.4061 76.9543 89.2043 75.3535 86.8007C68.0463 75.8292 56.5154 68.75 43.5416 68.75Z" fill="#00B34F"/>
<path d="M82.2531 72.5857C88.926 75.9378 94.6471 81.3173 98.823 88.0441C99.6499 89.3762 100.063 90.0423 100.206 90.9646C100.497 92.839 99.2151 95.1433 97.4695 95.885C96.6105 96.25 95.6441 96.25 93.7115 96.25M73.0864 52.8561C79.8777 49.4812 84.5448 42.4731 84.5448 34.375C84.5448 26.2769 79.8777 19.2688 73.0864 15.8939M63.9198 34.375C63.9198 45.7659 54.6856 55 43.2948 55C31.9039 55 22.6698 45.7659 22.6698 34.375C22.6698 22.9841 31.9039 13.75 43.2948 13.75C54.6856 13.75 63.9198 22.9841 63.9198 34.375ZM11.4829 86.8007C18.7901 75.8292 30.3211 68.75 43.2948 68.75C56.2685 68.75 67.7994 75.8292 75.1066 86.8007C76.7075 89.2043 77.5079 90.4061 77.4157 91.9413C77.344 93.1366 76.5604 94.6 75.6053 95.3223C74.3786 96.25 72.6915 96.25 69.3173 96.25H17.2722C13.898 96.25 12.211 96.25 10.9843 95.3223C10.0292 94.6 9.24558 93.1366 9.17383 91.9413C9.08169 90.4061 9.88209 89.2043 11.4829 86.8007Z" stroke="#144394" stroke-width="6" stroke-linecap="round" stroke-linejoin="round"/>
</svg>
