<svg width="110" height="110" viewBox="0 0 110 110" fill="none" xmlns="http://www.w3.org/2000/svg">
<path d="M84.7917 61.8749C93.6512 61.8749 100.833 54.6928 100.833 45.8333C100.833 36.9737 93.6512 29.7916 84.7917 29.7916V61.8749Z" fill="#00B34F"/>
<path d="M45.8333 25.2083H29.7917C18.4008 25.2083 9.16667 34.4424 9.16669 45.8333C9.16669 57.2241 18.4008 66.4583 29.7917 66.4583H45.8333L45.8333 25.2083Z" fill="#00B34F"/>
<path d="M18.3333 64.1666L25.5505 93.0351C25.7534 93.847 25.8549 94.2529 25.975 94.6074C27.1478 98.0701 30.2661 100.505 33.9099 100.803C34.2829 100.833 34.7013 100.833 35.5382 100.833C36.5862 100.833 37.1102 100.833 37.5516 100.79C41.9146 100.367 45.3674 96.9145 45.7905 92.5515C45.8333 92.1101 45.8333 91.5861 45.8333 90.5382V25.2083M84.7917 61.875C93.6512 61.875 100.833 54.6929 100.833 45.8333C100.833 36.9737 93.6512 29.7916 84.7917 29.7916M46.9791 25.2083H29.7917C18.4008 25.2083 9.16665 34.4424 9.16666 45.8333C9.16666 57.2242 18.4008 66.4583 29.7917 66.4583H46.9792C55.0753 66.4583 64.979 70.7982 72.6197 74.9633C77.0771 77.3932 79.3058 78.6081 80.7655 78.4294C82.1191 78.2636 83.1426 77.6558 83.936 76.5467C84.7917 75.3506 84.7917 72.9575 84.7917 68.1711V23.4954C84.7917 18.7091 84.7917 16.3159 83.936 15.1199C83.1426 14.0108 82.1191 13.403 80.7655 13.2372C79.3058 13.0584 77.0771 14.2734 72.6197 16.7033C64.979 20.8684 55.0753 25.2083 46.9791 25.2083Z" stroke="#144394" stroke-width="6" stroke-linecap="round" stroke-linejoin="round"/>
</svg>
