<svg width="85" height="86" viewBox="0 0 85 86" fill="none" xmlns="http://www.w3.org/2000/svg">
<path d="M53.0466 58.464C53.0984 58.0388 53.125 57.6059 53.125 57.1667C53.125 51.2987 48.368 46.5417 42.5 46.5417C36.632 46.5417 31.875 51.2987 31.875 57.1667C31.875 57.5795 31.8985 57.9868 31.9444 58.3874L21.25 69.0814L31.2673 79.0988L42.5381 67.828L53.8087 79.0987L63.8261 69.0813L53.1324 58.3876L53.0466 58.464Z" fill="#00B34F"/>
<path d="M23.0208 71.3333H17.7083C13.7963 71.3333 10.625 68.162 10.625 64.25V14.6666C10.625 10.7546 13.7963 7.58331 17.7083 7.58331H67.2917C71.2037 7.58331 74.375 10.7546 74.375 14.6666V64.25C74.375 68.162 71.2037 71.3333 67.2917 71.3333H61.9792M42.5 67.7916C48.368 67.7916 53.125 63.0347 53.125 57.1666C53.125 51.2986 48.368 46.5416 42.5 46.5416C36.632 46.5416 31.875 51.2986 31.875 57.1666C31.875 63.0347 36.632 67.7916 42.5 67.7916ZM42.5 67.7916L42.5759 67.7909L31.2682 79.0986L21.2509 69.0813L31.9446 58.3876M42.5 67.7916L53.8079 79.0986L63.8252 69.0813L53.1315 58.3876M31.875 21.75H53.125M24.7917 34.1458H60.2083" stroke="#144394" stroke-width="4" stroke-linecap="round" stroke-linejoin="round"/>
</svg>
