<svg width="110" height="110" viewBox="0 0 110 110" fill="none" xmlns="http://www.w3.org/2000/svg">
<path fill-rule="evenodd" clip-rule="evenodd" d="M54.989 28.4711C51.7817 24.9 46.4333 23.9394 42.4148 27.2094C38.3963 30.4794 37.8305 35.9467 40.9863 39.8142C44.1421 43.6816 54.989 52.708 54.989 52.708C54.989 52.708 65.8359 43.6816 68.9917 39.8142C72.1475 35.9467 71.6508 30.445 67.5632 27.2094C63.4756 23.9738 58.1963 24.9 54.989 28.4711Z" fill="#00B34F"/>
<path d="M41.25 84.792H68.75M32.0833 68.7503H77.9167M22.9167 9.16699H87.0833C92.1459 9.16699 96.25 13.7271 96.25 19.3522V90.6485C96.25 96.2736 92.1459 100.834 87.0833 100.834H22.9167C17.8541 100.834 13.75 96.2736 13.75 90.6485V19.3522C13.75 13.7271 17.8541 9.16699 22.9167 9.16699ZM54.989 28.4717C51.7817 24.9007 46.4333 23.9401 42.4148 27.2101C38.3963 30.4801 37.8306 35.9474 40.9863 39.8148C44.1421 43.6823 54.989 52.7087 54.989 52.7087C54.989 52.7087 65.8359 43.6823 68.9917 39.8148C72.1475 35.9474 71.6508 30.4457 67.5632 27.2101C63.4756 23.9745 58.1963 24.9007 54.989 28.4717Z" stroke="#144394" stroke-width="6" stroke-linecap="round" stroke-linejoin="round"/>
</svg>
