<svg xmlns="http://www.w3.org/2000/svg" version="1.1" xmlns:xlink="http://www.w3.org/1999/xlink" width="512" height="512" x="0" y="0" viewBox="0 0 611.606 611.606" style="enable-background:new 0 0 512 512" xml:space="preserve" class=""><g><path d="M405.079 245.146V127.4l102.004 58.768zm25.606-73.46v29.384l25.396-14.692zM548.011 344.002h25.396v127.4h-25.396zM63.805 471.403H38.199V191.206c0-20.989 17.211-38.199 38.199-38.199h203.799v25.396H76.608c-6.926 0-12.803 5.667-12.803 12.803zM573.407 560.604H38.199C17.211 560.604 0 543.393 0 522.405v-38.199h611.606v38.199c0 20.988-17.21 38.199-38.199 38.199zM25.606 509.602v12.803c0 6.926 5.667 12.803 12.803 12.803h535.208c6.926 0 12.803-5.667 12.803-12.803v-12.803z" fill="#00b34f" opacity="1" data-original="#000000"></path><path d="M293.21 471.403h-25.396v-25.396c0-20.989-17.211-38.199-38.199-38.199h-89.411c-20.989 0-38.199 17.211-38.199 38.199v25.396H76.608v-25.396c0-35.051 28.544-63.805 63.805-63.805h89.201c35.051 0 63.805 28.544 63.805 63.805v25.396zM184.909 369.608c-31.693 0-57.299-25.816-57.299-57.299s25.606-57.509 57.299-57.509 57.299 25.816 57.299 57.299-25.816 57.509-57.299 57.509zm0-89.201c-17.63 0-31.903 14.272-31.903 31.903 0 17.63 14.272 31.903 31.903 31.903s31.903-14.272 31.903-31.903-14.482-31.903-31.903-31.903zM331.409 413.055v-94.448h-51.002V51.002h331.199v267.604H425.857zM305.803 293h51.002v58.348L415.153 293H586V76.398H305.803z" fill="#00b34f" opacity="1" data-original="#000000"></path></g></svg>