<svg width="85" height="86" viewBox="0 0 85 86" fill="none" xmlns="http://www.w3.org/2000/svg">
<path d="M33.6458 32.2522C33.6458 30.5619 33.6458 29.7167 33.9991 29.2448C34.3069 28.8336 34.7781 28.5764 35.2905 28.5398C35.8784 28.4978 36.5894 28.9548 38.0113 29.8689L54.7301 40.6167C55.9639 41.4099 56.5809 41.8065 56.7939 42.3108C56.9801 42.7514 56.9801 43.2486 56.7939 43.6893C56.5809 44.1936 55.9639 44.5902 54.7301 45.3834L38.0113 56.1311C36.5894 57.0452 35.8784 57.5023 35.2905 57.4603C34.7781 57.4237 34.3069 57.1664 33.9991 56.7552C33.6458 56.2834 33.6458 55.4382 33.6458 53.7478V32.2522Z" fill="#00B34F"/>
<path d="M42.5 78.4166C62.0601 78.4166 77.9166 62.5601 77.9166 43C77.9166 23.4399 62.0601 7.58331 42.5 7.58331C22.9399 7.58331 7.08331 23.4399 7.08331 43C7.08331 62.5601 22.9399 78.4166 42.5 78.4166Z" stroke="#144394" stroke-width="4" stroke-linecap="round" stroke-linejoin="round"/>
<path d="M33.6458 32.2522C33.6458 30.5618 33.6458 29.7166 33.9991 29.2448C34.3069 28.8336 34.7781 28.5763 35.2905 28.5397C35.8784 28.4977 36.5894 28.9548 38.0113 29.8689L54.7301 40.6166C55.9639 41.4098 56.5809 41.8064 56.7939 42.3107C56.9801 42.7514 56.9801 43.2486 56.7939 43.6892C56.5809 44.1935 55.9639 44.5901 54.7301 45.3833L38.0113 56.1311C36.5894 57.0452 35.8784 57.5022 35.2905 57.4602C34.7781 57.4236 34.3069 57.1664 33.9991 56.7552C33.6458 56.2833 33.6458 55.4381 33.6458 53.7478V32.2522Z" stroke="#144394" stroke-width="4" stroke-linecap="round" stroke-linejoin="round"/>
</svg>
