<svg width="111" height="110" viewBox="0 0 111 110" fill="none" xmlns="http://www.w3.org/2000/svg">
<path d="M36.5647 70.8577L32.5833 100.833L53.6135 88.2149C54.2994 87.8034 54.6424 87.5976 55.0085 87.5172C55.3323 87.4461 55.6677 87.4461 55.9915 87.5172C56.3577 87.5976 56.7006 87.8034 57.3865 88.2149L78.4167 100.833L74.438 70.8447L73.2958 73.6024C72.5866 75.3145 71.2264 76.6747 69.5144 77.3839C67.8023 78.0931 65.8787 78.0931 64.1667 77.3839L58.1719 74.9007C56.4598 74.1933 54.5369 74.1947 52.8259 74.9047L46.8268 77.3861C45.1157 78.0936 43.1938 78.0931 41.4832 77.3845C39.7725 76.6759 38.4131 75.3172 37.7034 73.6069L36.5647 70.8577Z" fill="#00B34F"/>
<path d="M36.5647 70.8579L32.5833 100.833L53.6135 88.2151C54.2994 87.8035 54.6424 87.5978 55.0085 87.5174C55.3323 87.4462 55.6677 87.4462 55.9915 87.5174C56.3576 87.5978 56.7006 87.8035 57.3865 88.2151L78.4167 100.833L74.438 70.8449M75.7853 19.4739C76.4932 21.1858 77.8519 22.5466 79.5627 23.2571L85.5617 25.742C87.2738 26.4512 88.634 27.8115 89.3431 29.5236C90.0523 31.2357 90.0523 33.1594 89.3431 34.8715L86.86 40.8664C86.1506 42.5793 86.1496 44.5049 86.8623 46.217L89.3411 52.2102C89.6926 53.0582 89.8736 53.9671 89.8738 54.8851C89.8739 55.803 89.6932 56.712 89.3419 57.5601C88.9907 58.4082 88.4757 59.1788 87.8265 59.8278C87.1773 60.4768 86.4066 60.9915 85.5585 61.3425L79.5637 63.8257C77.8518 64.5336 76.4911 65.8923 75.7807 67.6032L73.2958 73.6025C72.5866 75.3146 71.2264 76.6749 69.5144 77.384C67.8023 78.0932 65.8787 78.0932 64.1667 77.384L58.1719 74.9008C56.4598 74.1934 54.5369 74.1948 52.8259 74.9048L46.8268 77.3863C45.1157 78.0938 43.1938 78.0932 41.4831 77.3846C39.7725 76.676 38.4131 75.3174 37.7034 73.6071L35.2178 67.606C34.5099 65.8941 33.1512 64.5333 31.4404 63.8228L25.4413 61.3379C23.7301 60.629 22.3703 59.2696 21.6608 57.5585C20.9514 55.8474 20.9505 53.9246 21.6582 52.2127L24.1413 46.2178C24.8487 44.5056 24.8472 42.5826 24.1373 40.8715L21.6577 34.8679C21.3062 34.02 21.1251 33.111 21.125 32.1931C21.1249 31.2751 21.3056 30.3661 21.6569 29.518C22.0081 28.6699 22.5231 27.8993 23.1723 27.2503C23.8214 26.6013 24.5921 26.0866 25.4403 25.7356L31.4351 23.2524C33.1455 22.5452 34.5054 21.1881 35.2164 19.4792L37.7013 13.4799C38.4104 11.7678 39.7706 10.4076 41.4826 9.69838C43.1947 8.98921 45.1183 8.98921 46.8303 9.69838L52.8251 12.1816C54.5372 12.889 56.4601 12.8876 58.1711 12.1776L64.1727 9.70224C65.8845 8.99346 67.8077 8.9936 69.5194 9.70264C71.2311 10.4117 72.5912 11.7715 73.3004 13.4832L75.7861 19.4843L75.7853 19.4739Z" stroke="#144394" stroke-width="6" stroke-linecap="round" stroke-linejoin="round"/>
</svg>
