<svg width="110" height="109" viewBox="0 0 110 109" fill="none" xmlns="http://www.w3.org/2000/svg">
<path d="M81.3417 49.9585H59.5417V95.3752H95.875V64.4918C95.875 59.4047 95.875 56.8611 94.885 54.9181C94.0141 53.2089 92.6246 51.8194 90.9154 50.9485C88.9724 49.9585 86.4288 49.9585 81.3417 49.9585Z" fill="#00B34F"/>
<path d="M59.5416 49.9583H81.3416C86.4288 49.9583 88.9724 49.9583 90.9154 50.9484C92.6245 51.8192 94.0141 53.2088 94.885 54.9179C95.875 56.861 95.875 59.4045 95.875 64.4917V95.375M59.5416 95.375V28.1583C59.5416 23.0712 59.5416 20.5276 58.5516 18.5846C57.6808 16.8754 56.2912 15.4859 54.5821 14.615C52.639 13.625 50.0955 13.625 45.0083 13.625H28.6583C23.5712 13.625 21.0276 13.625 19.0846 14.615C17.3754 15.4859 15.9859 16.8754 15.115 18.5846C14.125 20.5276 14.125 23.0712 14.125 28.1583V95.375M100.417 95.375H9.58331M30.0208 31.7917H43.6458M30.0208 49.9583H43.6458M30.0208 68.125H43.6458" stroke="#144394" stroke-width="6" stroke-linecap="round" stroke-linejoin="round"/>
</svg>
