<svg width="111" height="110" viewBox="0 0 111 110" fill="none" xmlns="http://www.w3.org/2000/svg">
<path d="M101.333 41.25V35.75C101.333 28.0493 101.333 24.1989 99.8347 21.2576C98.5164 18.6704 96.4129 16.5669 93.8257 15.2487C90.8844 13.75 87.0341 13.75 79.3333 13.75L31.6667 13.75C23.9659 13.75 20.1156 13.75 17.1743 15.2487C14.5871 16.5669 12.4836 18.6704 11.1653 21.2576C9.66666 24.1989 9.66666 28.0493 9.66666 35.75L9.66666 41.25L101.333 41.25Z" fill="#00B34F"/>
<path d="M101.333 41.25H9.66666M64.6667 80.2083L76.125 68.75L64.6667 57.2917M46.3333 57.2917L34.875 68.75L46.3333 80.2083M9.66667 35.75L9.66666 74.25C9.66666 81.9507 9.66666 85.8011 11.1653 88.7424C12.4836 91.3296 14.5871 93.4331 17.1743 94.7513C20.1156 96.25 23.9659 96.25 31.6667 96.25H79.3333C87.0341 96.25 90.8844 96.25 93.8257 94.7513C96.4129 93.4331 98.5164 91.3296 99.8347 88.7424C101.333 85.8011 101.333 81.9507 101.333 74.25V35.75C101.333 28.0493 101.333 24.1989 99.8347 21.2576C98.5164 18.6704 96.4129 16.5669 93.8257 15.2487C90.8844 13.75 87.0341 13.75 79.3333 13.75L31.6667 13.75C23.9659 13.75 20.1156 13.75 17.1743 15.2487C14.5871 16.5669 12.4836 18.6704 11.1653 21.2576C9.66667 24.1989 9.66667 28.0493 9.66667 35.75Z" stroke="#144394" stroke-width="6" stroke-linecap="round" stroke-linejoin="round"/>
</svg>
