<svg width="22" height="20" viewBox="0 0 22 20" fill="none" xmlns="http://www.w3.org/2000/svg">
<path d="M16 12.5V9.49443C16 9.31495 16 9.22521 15.9727 9.14599C15.9485 9.07592 15.9091 9.01211 15.8572 8.95916C15.7986 8.89929 15.7183 8.85915 15.5578 8.77889L11 6.5M3 7.5V14.3066C3 14.6785 3 14.8645 3.05802 15.0273C3.10931 15.1712 3.1929 15.3015 3.30238 15.4081C3.42622 15.5287 3.59527 15.6062 3.93335 15.7611L10.3334 18.6945C10.5786 18.8069 10.7012 18.8631 10.8289 18.8852C10.9421 18.9049 11.0579 18.9049 11.1711 18.8852C11.2988 18.8631 11.4214 18.8069 11.6666 18.6945L18.0666 15.7611C18.4047 15.6062 18.5738 15.5287 18.6976 15.4081C18.8071 15.3015 18.8907 15.1712 18.942 15.0273C19 14.8645 19 14.6785 19 14.3066V7.5M1 6.5L10.6422 1.67889C10.7734 1.6133 10.839 1.5805 10.9078 1.5676C10.9687 1.55616 11.0313 1.55616 11.0922 1.5676C11.161 1.5805 11.2266 1.6133 11.3578 1.67889L21 6.5L11.3578 11.3211C11.2266 11.3867 11.161 11.4195 11.0922 11.4324C11.0313 11.4438 10.9687 11.4438 10.9078 11.4324C10.839 11.4195 10.7734 11.3867 10.6422 11.3211L1 6.5Z" stroke="#4B5B76" stroke-width="2" stroke-linecap="round" stroke-linejoin="round"/>
</svg>
