<svg width="18" height="22" viewBox="0 0 18 22" fill="none" xmlns="http://www.w3.org/2000/svg">
<path d="M4.61866 14.4599L3.75 21L8.3384 18.247C8.48805 18.1572 8.56288 18.1123 8.64276 18.0947C8.71341 18.0792 8.78659 18.0792 8.85724 18.0947C8.93712 18.1123 9.01195 18.1572 9.1616 18.247L13.75 21L12.8819 14.4571M13.1759 3.24888C13.3303 3.6224 13.6268 3.9193 14 4.0743L15.3089 4.61648C15.6825 4.77121 15.9792 5.06799 16.134 5.44154C16.2887 5.81509 16.2887 6.23481 16.134 6.60836L15.5922 7.91635C15.4374 8.29007 15.4372 8.71021 15.5927 9.08374L16.1335 10.3913C16.2102 10.5764 16.2497 10.7747 16.2497 10.975C16.2498 11.1752 16.2103 11.3736 16.1337 11.5586C16.0571 11.7436 15.9447 11.9118 15.8031 12.0534C15.6614 12.195 15.4933 12.3073 15.3082 12.3839L14.0003 12.9256C13.6268 13.0801 13.3299 13.3765 13.1749 13.7498L12.6327 15.0588C12.478 15.4323 12.1812 15.7291 11.8077 15.8838C11.4341 16.0386 11.0144 16.0386 10.6409 15.8838L9.33296 15.342C8.95942 15.1877 8.53987 15.188 8.16656 15.3429L6.85767 15.8843C6.48434 16.0387 6.06501 16.0386 5.69178 15.884C5.31854 15.7293 5.02194 15.4329 4.86711 15.0598L4.32479 13.7504C4.17035 13.3769 3.87391 13.08 3.50064 12.925L2.19175 12.3828C1.81838 12.2282 1.52169 11.9316 1.36691 11.5582C1.21213 11.1849 1.21192 10.7654 1.36633 10.3919L1.9081 9.08391C2.06244 8.71035 2.06213 8.29079 1.90722 7.91746L1.36623 6.60759C1.28953 6.42257 1.25003 6.22426 1.25 6.02397C1.24997 5.82369 1.2894 5.62536 1.36604 5.44032C1.44268 5.25529 1.55504 5.08716 1.69668 4.94556C1.83832 4.80396 2.00647 4.69166 2.19152 4.61508L3.49947 4.07329C3.87265 3.91898 4.16936 3.6229 4.32448 3.25004L4.86664 1.94111C5.02136 1.56756 5.31813 1.27078 5.69167 1.11605C6.0652 0.961318 6.4849 0.961318 6.85844 1.11605L8.16638 1.65784C8.53993 1.81218 8.95948 1.81187 9.33279 1.65696L10.6422 1.11689C11.0157 0.962245 11.4353 0.962277 11.8088 1.11697C12.1822 1.27167 12.479 1.56837 12.6337 1.94182L13.176 3.25115L13.1759 3.24888Z" stroke="#4B5B76" stroke-width="2" stroke-linecap="round" stroke-linejoin="round"/>
</svg>
