<svg id="Capa_1" enable-background="new 0 0 512 512" height="512" viewBox="0 0 512 512" width="512" xmlns="http://www.w3.org/2000/svg"><g id="Outline"><path d="m283.5 400.2c6.5 2.5 13.3 3.8 20.2 3.8 55.4-.2 78.1-71.4 32.9-103.6 31.9-7.4 70.9-29.1 70.8-61.5v-73.3l23.6-9.6v42.7c-17.5 5.7-22 29.2-7.6 40.9-7.2 18.8-9.6 37.9-7.1 56.8.4 2.8 2.3 5.2 5 6.1 5.5 1.9 11.3 2.9 17.1 2.9s11.6-1 17.1-2.9c2.7-.9 4.6-3.3 5-6.1 2.5-18.9.1-38-7-56.8 10.2-8.3 11.7-23.2 3.4-33.4-2.8-3.5-6.6-6.1-10.9-7.5v-48.8l8.1-3.3c6.1-2.4 6.2-11.5 0-13.9l-166.2-67.7c-1.8-.7-3.8-.7-5.6 0l-166.3 67.7c-3.8 1.6-5.7 5.9-4.1 9.8.8 1.9 2.2 3.4 4.1 4.1l46.8 19v66.8l-25.7-9.8c-27.6-10.5-42.9 11.6-54 30.1-2.8-.8-5.6-1.8-8.3-2.3-9.2-1.4-10.9 4-12 7.4-9.7 29 5.2 60.5 33.8 71.4l38.9 14.8c-15.6 11.9-34.4 17.1-57 16-4.2-.2-7.7 3.1-7.9 7.2 0 .6 0 1.2.1 1.8l7.3 33.8c.7 3.3 3.5 5.7 6.8 5.9 23 1.6 41.3-1.9 56.5-11-1.6 4.8-4.4 9.1-8.2 12.4-3 2.9-3.1 7.7-.3 10.7.7.7 1.5 1.3 2.5 1.7 1 .2 34.9 15.4 34.9 14.1 2.3 0 4.6-1.1 6-2.9 17.1-22.3 24.6-43.9 22.8-65.6zm1.5-320.2 145.2 59.1-144.8-7c-4.1-.2-7.7 3-7.9 7.1s3 7.7 7.1 7.9l114.8 5.5-114.4 46.6-146.4-59.6zm-89.5 270.8c-2.5-11.7-2-23.9 1.5-35.4l52.9 19.5c.2 14.3 3.9 28.2 10.8 40.7zm-9.7-48.4c-5.7 13.3-8 27.9-6.4 42.3l-23.4-8.9c-7.5-29.8 6.8-63.5 35.2-76.5l23.1 8.7c-12.7 8.5-22.6 20.4-28.5 34.4zm-54.2-65.7 41.6 15.8c-10.6 7.4-19.2 17.4-25.1 28.9l-53.1-19.6c13.2-22 22-30.7 36.6-25.1zm-56.6 33.7 67.5 24.9c-3.3 11.1-4.3 22.8-2.9 34.2l-37.9-14.4c-18.2-6.9-29.2-25.4-26.7-44.7zm92.6 149.6-17-7.2c6.2-9.2 8.2-19.8 5.9-31.7-.8-4.1-4.7-6.7-8.8-5.9-1.4.3-2.7.9-3.7 1.9-13.1 12.3-29.8 17.7-52.5 17.1l-4.1-19c25.2-.6 46.7-9 64.1-25l31.3 11.8c3.9 18.9-1.1 37.9-15.2 58zm175.4-58.1c-8.7 23.2-35.7 33.3-57.9 22.9-14.6-17.4-21.2-35.3-20.2-54.8.2-3.3-1.8-6.3-4.9-7.4l-57.1-21c6.8-11.8 17.1-21.1 29.5-26.6l60.7 23c-17.1 11.2-22.3 31.3-12.5 51.8 7.1 15.8 18.6 22.3 28.7 22.3 14.7 0 25.1-13.4 22.1-28.7-4.2-23-27.5-20.3-40.8-14.5-.5-13.5 14-21.5 21.3-23.7l6.6 2.5c21.9 8.3 32.7 32.5 24.5 54.2zm-48.6-18.2c4.6-2.2 14.5-5.5 19.2-3.1.7.3 2.4 1.2 3.2 5.4 1 5.4-1 9.5-5 10.8-5 1.5-12.4-1.9-17.4-13.1zm98-104.8c0 23.2-33.1 44.4-79.1 50.7l-135.6-51.5v-66.4l104.6 42.6c.9.4 1.9.6 2.8.6 1 0 1.9-.2 2.8-.6l104.6-42.6zm46.1-26.4c4.8 0 8.8 3.9 8.8 8.8-.5 11.6-17 11.6-17.5 0-.1-4.9 3.8-8.8 8.7-8.8zm7.7 77.1c-5.1 1.1-10.4 1.1-15.5 0-1.2-15.2 1.1-30.4 6.7-44.6h2c5.6 14.1 8 29.4 6.8 44.6z" fill="rgb(0,0,0)"/></g></svg>