<svg width="21" height="23" viewBox="0 0 21 23" fill="none" xmlns="http://www.w3.org/2000/svg">
<path d="M5.25 19H3.75C2.64543 19 1.75 18.1046 1.75 17V3C1.75 1.89543 2.64543 1 3.75 1H17.75C18.8546 1 19.75 1.89543 19.75 3V17C19.75 18.1046 18.8546 19 17.75 19H16.25M10.75 18C12.4069 18 13.75 16.6569 13.75 15C13.75 13.3431 12.4069 12 10.75 12C9.09315 12 7.75 13.3431 7.75 15C7.75 16.6569 9.09315 18 10.75 18ZM10.75 18L10.7714 17.9998L7.57867 21.1926L4.75024 18.3641L7.76965 15.3447M10.75 18L13.9428 21.1926L16.7712 18.3641L13.7518 15.3447M7.75 5H13.75M5.75 8.5H15.75" stroke="#4B5B76" stroke-width="2" stroke-linecap="round" stroke-linejoin="round"/>
</svg>
