<?xml version="1.0"?>
<svg xmlns="http://www.w3.org/2000/svg" viewBox="0 0 48 48" width="512" height="512"><g id="Education"><path d="M24,24a1.0067,1.0067,0,0,1-.356-.0654l-21-8a1,1,0,0,1,0-1.8692l21-8a1.0049,1.0049,0,0,1,.712,0l21,8a1,1,0,0,1,0,1.8692l-21,8A1.0067,1.0067,0,0,1,24,24ZM5.8091,15,24,21.93,42.1909,15,24,8.07Z"/><path d="M24,38a1.0067,1.0067,0,0,1-.356-.0654l-13-4.95A1,1,0,0,1,10,32.05v-14a1,1,0,0,1,2,0V31.36l12,4.57,12-4.57V18.05a1,1,0,0,1,2,0v14a1,1,0,0,1-.644.9346l-13,4.95A1.0067,1.0067,0,0,1,24,38Z"/><path d="M7,36a1,1,0,0,1-1-1V16.5239a1,1,0,0,1,.9106-.9961l17-1.5239a1,1,0,0,1,.1788,1.9922L8,17.4385V35A1,1,0,0,1,7,36Z"/><path d="M9,42H5a1,1,0,0,1-1-1V37a3,3,0,0,1,6,0v4A1,1,0,0,1,9,42ZM6,40H8V37a1,1,0,0,0-2,0Z"/></g></svg>
