<svg width="46" height="30" viewBox="0 0 46 30" fill="none" xmlns="http://www.w3.org/2000/svg">
<g filter="url(#filter0_d_2_32544)">
<rect x="15.5" width="30" height="30" rx="15" fill="#12B76A"/>
<path d="M28 20.0003C27.9991 20.0003 27.9983 20.0003 27.9966 20.0003C27.7741 19.9995 27.5625 19.9104 27.4066 19.752L24.0733 16.367C23.75 16.0387 23.7541 15.5112 24.0825 15.1887C24.4108 14.8662 24.9375 14.8695 25.2608 15.1978L28.005 17.9845L35.745 10.2454C36.0708 9.91952 36.5975 9.91952 36.9233 10.2454C37.2491 10.5704 37.2491 11.0987 36.9233 11.4237L28.59 19.757C28.4333 19.9129 28.2208 20.0003 28 20.0003Z" fill="white"/>
</g>
<defs>
<filter id="filter0_d_2_32544" x="0.5" y="-15" width="60" height="60" filterUnits="userSpaceOnUse" color-interpolation-filters="sRGB">
<feFlood flood-opacity="0" result="BackgroundImageFix"/>
<feColorMatrix in="SourceAlpha" type="matrix" values="0 0 0 0 0 0 0 0 0 0 0 0 0 0 0 0 0 0 127 0" result="hardAlpha"/>
<feOffset/>
<feGaussianBlur stdDeviation="7.5"/>
<feColorMatrix type="matrix" values="0 0 0 0 0.0912692 0 0 0 0 0.0901521 0 0 0 0 0.146173 0 0 0 0.04 0"/>
<feBlend mode="normal" in2="BackgroundImageFix" result="effect1_dropShadow_2_32544"/>
<feBlend mode="normal" in="SourceGraphic" in2="effect1_dropShadow_2_32544" result="shape"/>
</filter>
</defs>
</svg>
