<svg id="Layer_1" enable-background="new 0 0 100 100" height="512" viewBox="0 0 100 100" width="512" xmlns="http://www.w3.org/2000/svg"><g><path d="m6.396 16.995h87.209v66.01h-87.209z" fill="#128807"/><g fill="#fff"><path d="m66.168 34.915c.78.959 1.578 1.979 2.379 3.044.169 2.171.214 4.162.385 6.336-.024.93-.31 2.166-.582 2.283 0 0-.414.238-.691-.026-.201-.081-1.006-1.343-1.006-1.343-.412-.378-.686-.27-.979 0-.808.78-1.174 2.242-1.723 3.249-.142.225-.541.416-.984-.018-.923-1.261-.648-2.956-.595-3.219-.003.014-.006.028-.013.053-1.003 1.13-.559 3.004-.332 3.407.331.662.598 1.085 1.242 1.413.586.431 1.043.162 1.294-.14.59-.611.598-2.175.875-2.484.194-.568.681-.47.918-.219.23.331.502.546.84.726.55.485 1.207.573 1.854.131.442-.248.729-.571.988-1.207.278-.743.141-4.638.079-6.804.416.585.826 1.183 1.233 1.789.179 1.902.26 3.775.201 5.571-.042.357 1.246-1.066 1.238-1.741-.006-.59.001-1.125 0-1.622.625.998 1.23 2.012 1.802 3.039.354-.188.233-2.194.009-2.471-.599-1.005-1.365-2.09-1.959-2.93-.117-1.06-.277-2.311-.35-2.694-.113-.597-.227-1.495-.398-2.204-.047-.277-.189-1.161-.144-1.246.07-.198.334.006.464-.223.194-.212-.674-2.463-1.115-3.105-.158-.288-.445-.188-.8.28-.329.308-.209 1.011-.083 1.679.326 1.704.618 3.439.848 5.169-.427-.635-.948-1.402-1.461-2.143-.014-.071-.066-.333-.066-.337 0-.031-.071-1.394-.131-1.719-.011-.132-.042-.17.096-.153.146.123.167.13.258.171.148.027.277-.223.188-.455-.458-.844-.915-1.692-1.373-2.536-.055-.054-.117-.111-.188-.122s-.149.024-.236.153c-.167.146-.347.412-.341.752.041.6.147 1.215.188 1.815.014.08.03.16.044.241-.065-.082-.121-.146-.153-.179-1.17-1.229.537-.201-.223-1.15-.643-.706-.831-.931-1.382-1.356-.276-.178-.443-.519-.534.061-.036.51-.074 1.101-.039 1.531-.003.239.245.689.458.953z"/><path d="m37.354 43.944c-.013.222.614.492.652 1.006.09.212-.134.89.052.953.171.071.409-.469.499-.971.05-.275-.215-1.236-.665-1.408-.069-.015-.142-.023-.214-.017-.217.014-.411.131-.324.437z"/><path d="m68.047 40.226c-.015-.003-.031-.002-.048.004 0 0-2.667 1.897-2.733 1.963-.265.235-.132 1.062 0 .966.191.073 2.876-1.746 2.825-1.959.117.008.173-.935-.044-.974z"/><path d="m72.952 35.901c.094.288-.142 1.217.052 1.303.179.096.431-.642.525-1.325.052-.374-.225-1.686-.695-1.92-.036-.01-.075-.016-.114-.018-.269-.009-.562.195-.446.595-.068.219.574.96.678 1.365z"/><path d="m66.546 40.248c.01-.542.062-1.262.092-1.71.013-.169.052-.355.214-.398.162-.042.443.163.446-.013-.03-.345-.098-.853-.293-1.093-.1-.148-.263-.228-.433-.236-.282-.014-.583.169-.66.555.001.228.103.353.083.56-.03.118-.151.196-.442.057.045-.042-.188-.372-.188-.372-.227-.138-.529.007-.726.136-.108.197-.188.534-.066.879.326.6 1.441 1.625 1.973 1.635z"/><path d="m55.203 43.782.004-.004c0-.001.004-.004.004-.004.001-.001.004-.004.004-.004 0-.001 0-.007 0-.009.001-.01 0-.027-.004-.044l-.254-.149-4.998-.022c-.062-.024-.108-.048-.136-.07-.002-.002-.007-.007-.009-.009-.001-.001-.003-.004-.004-.004s-.004-.003-.004-.004c-.001-.002-.004-.007-.004-.009 0 0-.004-.004-.004-.004v-.004s-.004-.004-.004-.004v-.004-.004s0-.004 0-.004c0-.001 0-.004 0-.004s0-.003 0-.004v-.004-.004-.004c.001-.001.004-.004.004-.004.001-.002.003-.006.004-.009.024-.033.083-.064.157-.092 1.193-.163 3.314-.51 3.455-2.549-.022-1.062-.454-1.758-1.758-1.95-.958.074-1.641 1-1.531 2.02-.046.275.093.814-.188.875-1.837.168-3.842 1.319-3.909 2.143h-.004c-.001.001-.004.004-.004.004-.001.001-.006.003-.009.004-.001 0-.007 0-.009 0-.003.001-.01.004-.013.004-.001 0-.003 0-.004 0-.003 0-.007 0-.009 0-.001 0-.003 0-.004 0-.002 0-.007 0-.009 0-.005-.001-.013-.003-.017-.004-.12-.033-.273-.23-.249-.507-.07-1.424-.533-3.036-1.259-4.277-.259-.259-.372-.364-.446-.376-.002 0-.006 0-.009 0s-.009 0-.013 0c-.001 0-.004 0-.004 0h-.004c-.001 0-.004 0-.004 0-.008.003-.015.009-.022.013-.003.002-.01.006-.013.009-.056.042-.123.14-.271.245-.25.285-.295.483-.28 1.054.014.06.475 1.342.866 2.243.263.937.507 2.009.328 3.022-.617 1.339-1.856 2.54-3.052 3.192-.609.195-1.136.129-1.277-.004-.001-.001-.003-.003-.004-.004-.35-.235-.358-.654-.337-.726v-.004c.001-.001.004-.004.004-.004 1.009-.703 2.163-1.272 3.065-3.17.267-.725.348-1.161.083-2.283-.103-.418-.231-.762-.516-1.058.001-.001.004-.004.004-.004.172-.082.618.246.687.039-.106-.536-.468-1.255-.879-1.622-.36-.327-.751-.365-1.08-.066-.371.206-.45.947-.271 1.596.198.488.734.574 1.115 1.557v.004c.008.062.131.734-.061 1.006-.156.486-2.158 2.065-2.3 2.16-.002.002-.012.007-.013.009-.001.001-.004.004-.004.004s-.003.003-.004.004c0 0-.004.004-.004.004h-.004s-.003 0-.004 0c-.001-.001-.004-.004-.004-.004v-.004c-.001-.002-.004-.007-.004-.009-.006-.039.005-.14 0-.302-.013-.296.109-.965.101-1.08v-.004c-.001-.001-.004-.004-.004-.004v-.004c-.001 0-.004 0-.004 0-.662.427-.881 1.737-1.001 2.125-1.676 1.158-3.579 2.019-4.675 3.192-.571.891 3.933-1.024 4.456-1.255.004.003.009.009.013.013.099.109.108.491.407.835.468.634 1.463 1.025 2.431.783 1.624-.587 2.559-1.693 3.512-2.921.136-.198.349-.354.547-.201.654 1.465 2.541 2.508 4.981 2.615.565-.686.295-1.024.066-1.168-.071-.047-1.213-.492-1.391-.936-.112-.413.16-.779.704-1.054 1.566-.189 3.106-.4 4.596-.879.015-.501.31-1.249.507-1.574.13-.232.218-.254.251-.286zm-4.122-3.139c.003-.016.01-.03.018-.044.003-.005.005-.013.009-.018.001-.001.004-.003.004-.004.006-.007.015-.016.022-.022.032-.025.077-.043.127-.048.109-.012.252.025.389.105.199.115.322.289.306.415-.001.003.001.01 0 .013s-.008.01-.009.013-.003.01-.004.013c-.001.002-.003.007-.004.009s-.003.007-.004.009c-.007.011-.017.022-.026.031-.096.089-.317.077-.525-.044-.197-.114-.319-.289-.306-.415-.001-.003.002-.01.003-.013zm-1.998 5.006c-.536.184-1.052.327-1.054 1.102.07.384.056.585-.004.678-.005.007-.012.016-.018.022-.001.001-.004.004-.004.004-.001.001-.004.004-.004.004-.001.001-.003.004-.004.004l-.004.004c-.002.001-.007.004-.009.004-.008.005-.018.01-.026.013-.007.003-.018.003-.026.004-.128.019-.313-.103-.45-.175-.331-.237-1.259-.812-1.391-2.047-.019-.279.19-.519.525-.542.016-.001.031 0 .048 0h.009c.557.151 1.378.167 2.09.241.579.039.865.493.322.684z"/><path d="m47.428 40.812c.576.274 1.947.113 1.614-.774 0-.082-.022-.358-.031-.433-.059-.137-.167-.189-.271-.171s-.204.104-.24.245c-.023.093.044.246-.039.293-.048.049-.235.02-.227-.236 0-.082-.06-.171-.096-.223-.036-.024-.057-.031-.123-.031-.08.003-.083.024-.127.092-.019.069-.044.136-.044.214-.01.091-.042.122-.109.136-.075 0-.057.008-.118-.031-.036-.039-.083-.055-.083-.122 0-.07-.014-.181-.035-.227-.032-.042-.087-.06-.144-.074-.314.001-.333.358-.315.494-.025.025-.041.67.388.848z"/><path d="m68.192 64.738c-.344.052-1.308.149-1.308.149-1.115-.133-1.934-.146-3.188-.192.116-.147.32-.742.07-.958-.065-.054-.163-.084-.297-.074-.001 0-.003 0-.004 0-.002 0-.007 0-.009 0-.001 0-.004-.004-.004-.004-.004-.001-.01-.002-.013-.004-.007-.005-.016-.014-.022-.022-.001-.002-.007-.007-.009-.009-.063-.092-.098-.319-.14-.376 0-.001-.004-.004-.004-.004s-.004-.004-.004-.004c-.002-.001-.007-.004-.009-.004-.001 0-.004 0-.004 0-.001 0-.004 0-.004 0-.001.001-.003.003-.004.004-.83.213-.804 1.074-.271 1.452-8.759 0-22.201-.149-25.084-.149-1.613 0-6.715-.192-6.813-.192 1.094 1.6 2.679 1.926 4.754 1.959 3.891 0 21.917-.048 27.047-.048-.365.648.033 1.69.319 1.88.006.004.016.01.022.013.011.005.025.01.035.013.003.001.01 0 .013 0 .34.08.489-.166.603-.345.551.049 3.652.093 3.936-.004.001 0 .003-.004.004-.004.192.282.382.549.748.503.639-.137 1.143-.207 1.159-1.504-.001-.003-.067-2.215-1.519-2.076zm-.625 2.37c-.006.003-.016.007-.022.009-.005.001-.013 0-.017 0-.005 0-.013.001-.017 0-.416-.01-.656-.02-1.072-.031-.001-.021-.003-.043-.009-.061-.099-.292-.812-.272-.98-.044-.002.003-.007.01-.009.013-.003.005-.006.013-.009.018-.003.006-.007.016-.009.022-.003.009-.003.021-.004.031s-.005.024-.004.035c-.561.067-1.066-.019-1.627-.039-.165-.205-.145-.576.048-.665.001-.001.003.001.004 0 1.278.062 2.479.012 3.756.074.204.172.103.566-.029.638z"/><path d="m52.564 49.354c0 .022.225.215.49.061.558-.213.906-.42 1.688-.59.205-.004.193-.553-.131-.573-.423.021-.814.043-1.238.376-.26.06-.305-.098-.363-.241-.066-.353.149-.601.105-.866.012.012-.131-.117-.315-.127-.061-.003-.126.006-.192.039-.013 0-.589.389-.774.66-.113.086-.1.161-.065.31.088.203.243.139.42.044.234-.032.347.121.328.402-.109.353.047.483.047.505z"/><path d="m71.876 49.214c-.109-.125-.355-.05-.52-.07-.079 0-.337-.038-.214-.267.103-.142.14-.227.21-.402.078-.171.01-.287-.271-.38-.143-.026-.242-.034-.345-.031-.104.003-.213.018-.372.031-.171.036-.231.111-.262.319.012.315.205.299.402.424.114.145.189.277-.009.516-.187.171-.32.266-.507.437-.088.151-.143.382.127.455.499.14 1.653-.61 1.653-.625.185-.14.123-.407.108-.407z"/><path d="m62.959 47.725c.401.003.865-.917 1.063-1.828.109-1.254-.072-2.018-.105-2.755-.032-.737-.835-6.719-.997-7.277-.196-1.055.78-.139.673-.752-.337-.773-1.179-1.899-1.443-2.571-.099-.18-.111-.346-.192-.332-.049.008-.12.082-.254.258-.329 1.076-.445 1.955-.319 2.624.846 4.412 1.712 8.432 1.574 12.633z"/><path d="m75.458 36.04c-.038-.278-.161-.918-.114-1.001.076-.196.462.02.599-.206.201-.206-.997-1.74-1.417-2.396-.084-.165-.135-.3-.21-.293-.058.006-.128.099-.236.328-.26.425-.349 1.186-.245 1.859.625 4.227 1.089 8.319 1.185 12.065-.054.356-.069.545-.236.993-.369.473-.776 1.065-1.159 1.351s-1.198.558-1.465.77c-.846.489-.85 1.051-.166 1.071 1.178-.137 2.573-.233 3.533-1.684.257-.406.56-1.508.573-2.182.09-3.953-.05-7.818-.642-10.675z"/><path d="m67.668 45.369c.179.096.651-.484.634-1.211.052-.374-.133-1.752-.603-1.985-.054-.015-.114-.02-.171-.013-.246.03-.479.263-.372.634-.068.218.333.981.437 1.386.094.288-.12 1.103.075 1.189z"/><path d="m30.554 33.666c.576.274 1.655.158 1.609-.77 0-.082-.018-.358-.026-.433-.059-.136-.167-.188-.27-.17-.104.018-.204.104-.24.245-.023.093.04.246-.044.293-.048.048-.231.016-.223-.241 0-.082-.06-.167-.096-.219-.036-.024-.061-.031-.127-.031-.08.003-.079.024-.123.092-.02.069-.045.136-.045.214-.01.091-.047.122-.114.136-.075 0-.057.008-.118-.031-.036-.039-.079-.055-.079-.122 0-.07-.018-.181-.039-.227-.032-.042-.082-.064-.14-.079-.314.001-.337.362-.319.499-.023.025-.034.666.394.844z"/><path d="m39.25 36.671c-.071-.007-.164.019-.271.083-.509.275-.706 1.092-.389 1.57.296.421.764.267.826.267.499.062.796-.936.796-.936s.015-.281-.577.249c-.249.047-.283-.043-.345-.184-.052-.26-.041-.523.079-.783.054-.155-.001-.254-.119-.266z"/><path d="m59.951 46.824c-.926.966-2.26 2.158-3.713 2.707-.156.175.389.923 1.093.923 1.178-.137 2.214-.798 3.175-2.541.257-.406.708-1.276.721-1.95.09-3.953-.199-7.026-.792-9.883-.038-.278-.012-.607.035-.691.076-.091.335.002.472-.223.201-.206-.538-1.911-.958-2.567-.084-.165-.135-.296-.21-.289-.058.006-.128.095-.236.324-.26.425-.436 1.165-.416 1.859.562 3.892.735 7.298 1.102 11.191.032.375-.023.922-.273 1.14z"/><path d="m27.903 40.988c-1.382.025-3.406 1.812-3.459 2.803 1.458-.7 2.891-1.374 4.373-2.099-.239-.357-.014-.678-.914-.704z"/><path d="m25.223 48.321c-.363.738-.515.233-.547-.179-.056-.782.02-1.502.105-2.073.045-.292.044-.395.009-.394-.035.001-.104.105-.197.223-.822 1.31-.895 3.265-.442 3.848.241.276.638.397.931.31.517-.224.744-1.27.621-1.653-.171-.269-.308-.311-.48-.082z"/><path d="m25.378 39.793c1.68.161.752-2.84 1.36-3.385.115-.269.328-.274.345.066v2.549c-.015.829.53 1.075.953 1.246.44-.034.732-.022.905.407.069 1.47.141 2.943.21 4.412 0 0 1.018.293 1.067-2.48.049-1.628-.324-2.994-.105-3.31.008-.311.406-.327.682-.175.439.31.634.691 1.316.538 1.038-.286 1.664-.79 1.679-1.587-.061-.758-.148-1.516-.477-2.274.046-.138-.199-.496-.153-.634.187.292.469.268.534 0-.177-.582-.452-1.14-.896-1.382-.367-.324-.905-.255-1.102.42-.091.778.282 1.7.848 2.453.12.294.289.784.214 1.224-.301.172-.6.1-.853-.166 0 0-.827-.619-.827-.757.219-1.404.047-1.565-.074-1.955-.085-.538-.34-.708-.547-1.076-.207-.219-.487-.219-.621 0-.365.633-.194 1.993.07 2.602.191.56.483.91.345.91-.113.317-.35.243-.52-.122-.244-.755-.293-1.88-.293-2.388-.073-.629-.155-1.972-.568-2.313-.11-.15-.241-.203-.367-.188-.163.019-.316.151-.389.328-.027.624-.031 1.248.039 1.823.284 1.009.374 1.897.512 2.93.038 1.384-.799.599-.761-.087.193-.891.141-2.294-.031-2.65-.136-.356-.294-.443-.625-.385-.263-.016-.943.724-1.133 1.95 0 0-.158.629-.227 1.189-.093.633-.512 1.082-.805-.087-.253-.85-.408-2.943-.831-2.453-.119 1.636-.263 4.512 1.126 4.807z"/><path d="m25.941 33.63c.088.22-.087.927.096.993.169.073.401-.49.49-1.01.049-.285.012-1.261-.652-1.461-.034-.008-.069-.012-.105-.013-.254-.007-.533.15-.424.455-.063.165.497.727.595 1.036z"/><path d="m35.532 46.353c.599-1.994-.012-3.497.188-3.682.002-.001.007-.003.009-.004s.007-.003.009-.004.007-.004.009-.004c.007-.002.018-.004.026-.004.739.796 1.776.101 2.003-.175.097-.138.341-.227.512-.048.576.414 1.587.219 1.797-.512.122-.714.225-1.45.249-2.213-.375.117-.678.204-.8.332-.029.032-.051.067-.057.105-.033.211-.064.423-.096.634-.004.017-.009.034-.017.048-.016.026-.042.05-.07.066-.133.072-.364.031-.376-.162-.179-.812-.913-.917-1.36.341-.3.243-.848.291-.905-.074.073-.844-.267-.958-.949-.56-.219-1.672-.437-3.269-.656-4.941.284-.008.545.198.805-.127-.281-.874-.876-2.654-1.211-2.821-.003-.001-.006-.003-.009-.004-.015-.018-.033-.035-.048-.048-.006-.005-.016-.013-.022-.017s-.016-.01-.022-.013c-.013-.007-.03-.013-.044-.018-.031-.009-.06-.013-.092-.009-.083.011-.176.058-.284.083-.357.114-.691.422-.586 1.023.422 2.565.697 4.523 1.119 7.089.065.3-.187.696-.511.656-.552-.374-.689-1.13-1.631-1.098-.682.008-1.46.75-1.557 1.465-.114.568-.154 1.184 0 1.679.479.576 1.053.515 1.557.385.414-.17.755-.578.901-.481 0 0 .004-.001.004 0s0 .004 0 .004c.09.158-.009 1.492-1.95 2.523-1.193.536-2.143.664-2.654-.31-.317-.609.023-2.928-.757-2.392-2.305 5.943 5.401 6.772 6.262.245.056-.184.226-.369.345-.324.053.022.101.094.118.227-.179 5.91-5.962 6.315-6.944 4.456-.244-.438-.317-1.414-.341-1.998-.044-.354-.133-.558-.236-.638-.234-.176-.549.283-.617 1.08-.098.641-.07.817-.07 1.434.307 4.668 7.749 2.662 8.959-1.194zm-2.875-4.039v.004c-.001.002-.003.007-.004.009-.058.075-.262.044-.407.044-.175-.008-.262-.037-.367-.179-.05-.159.103-.315.171-.433.001-.001.004-.003.004-.004.007-.011.019-.024.031-.035.052-.048.143-.093.24-.105.019-.002.037-.005.057-.004.135.002.278.068.354.258.068.172.003.354-.079.445z"/><path d="m57.266 37.856c.576.274 1.659.154 1.614-.774 0-.082-.022-.358-.031-.433-.059-.137-.167-.189-.271-.171-.104.018-.204.108-.24.249-.023.093.044.242-.039.289-.048.049-.235.02-.227-.236 0-.082-.06-.171-.096-.223-.036-.024-.061-.031-.127-.031-.08.003-.078.024-.122.092-.019.069-.044.136-.044.214-.01.091-.042.122-.109.136-.075 0-.062.008-.122-.031-.036-.039-.079-.055-.079-.122 0-.07-.018-.181-.039-.227-.032-.042-.082-.06-.14-.074-.314.001-.333.358-.315.494-.026.025-.042.67.387.848z"/><path d="m57.655 34.257c.205.575-.157 1.123.057 1.203.197.089.47-.594.573-1.224.119-.51-.245-1.555-.761-1.771-.039-.009-.08-.012-.122-.013-.295-.009-.621.177-.494.547-.075.2.632.884.747 1.258z"/><path d="m36.201 37.02h.004c.001 0 .003.004.004.004s.003 0 .004 0c0 0 .004.004.004.004.109.073 1.456.072 1.605.004.001-.001.004-.004.004-.004h.004s0-.004 0-.004c.463-.171 2.659-2.681 2.659-2.681-.114-.097-.219-.169-.333-.267-.122-.106-.109-.209 0-.315.544-.317.372-1.013.088-1.329-.235-.106-.457-.141-.656-.131s-.375.067-.525.144c-.381.365-.471.951-.17 1.316.292.138.584.432.389.595-.827.883-2.979 2.359-3.087 2.628-.001.002-.004.007-.004.009v.009.004c.001.002.003.007.004.009.002.001.006.004.006.005zm3.257-3.935c.009-.002.017-.003.026-.004.134-.014.297.11.376.284.085.186.042.364-.096.398s-.318-.089-.402-.276-.042-.368.096-.402z"/><path d="m52.302 34.474c.965 1.297 1.893 2.6 2.79 3.949.141 1.001.244 1.981.31 2.956.145 2.139.189 4.801.057 7.054.401.016 1.043-.647 1.268-1.618.146-1.343-.052-4.083-.066-4.876-.01-.329-.03-.722-.052-1.133 1.043 1.704 2.055 3.51 3.048 5.492.362-.172.282-2.211.07-2.497-.795-1.711-1.893-3.4-2.243-4.049-.126-.235-.557-.889-1.067-1.644-.094-1.077-.196-1.99-.262-2.265-.164-1.139.468.128.38-.534-.205-1.137-.833-1.91-1.574-2.952-.239-.339-.234-.408-.603.083-.221.5-.218.917-.153 1.307-.097-.141-.217-.308-.389-.516-.64-.549-.68-.579-1.211-1.028-.168-.119-.487-.302-.73-.28-.146.013-.263.099-.306.315-.058.508-.028.784.057 1.207.063.283.474.755.676 1.029zm2.043-.077c.025.11.049.22.066.332.055.242.103.483.153.721-.212-.292-.388-.528-.464-.612-.48-.57.01-.374.245-.441z"/><path d="m42.497 38.493c.672.278 1.098-1.001 1.373-2.401.188-.393.332-.438.429-.236-.025 1.862.134 2.277.612 2.842 1.068.824 1.951.104 2.02.035s.831-.831.831-.831c.185-.195.43-.206.691-.035.254.231.221.629.765.905.458.183 1.435.045 1.662-.35.305-.523.379-.703.52-.901.218-.29.59-.161.59-.07-.035.162-.254.321-.105.612.259.194.319.069.472.026.542-.259.949-1.434.949-1.434.024-.438-.225-.405-.385-.315-.208.127-.221.17-.429.297-.265.039-.778.214-1.032-.179-.259-.473-.261-1.132-.459-1.609 0-.035-.346-.75-.026-.796.162.03.509.12.564-.171.17-.283-.366-1.086-.73-1.491-.316-.347-.753-.39-1.176-.035-.296.273-.252.577-.311.866-.075.332-.061.742.276 1.181.296.583.833 1.331.656 2.388 0 0-.312.503-.861.437-.229-.05-.602-.149-.8-1.614-.15-1.109.038-2.662-.433-3.389-.106-.274-.197-.541-.35-.52-.091.012-.203.129-.359.411-.111.295-.591.741-.245 1.662.283.584.4 1.532.271 2.589-.196.3-.241.404-.499.704-.362.389-.753.289-1.054.144-.281-.189-.502-.286-.63-.888.023-.958.079-2.527-.096-2.86-.258-.516-.684-.331-.866-.175-.874.799-1.306 2.149-1.57 3.223-.242.783-.501.556-.682.24-.442-.414-.473-3.65-1.006-3.118-.852 2.442.492 5.116 1.423 4.856z"/><path d="m46.267 33.892c.331-.893.332-1.274.354-1.653-.052-.289-.177-.428-.319-.415-.142.012-.3.178-.429.499-.11.244-.245 1.517-.223 1.517-.088.379.396.539.617.052z"/><path d="m42.812 33.683c.188-.138.252-.227.315-.459.078-.39-.41.184-.472-.249-.109-.403.203-.568.499-.958.007-.183.01-.333-.109-.337-.054-.002-.135.029-.249.096-.256.172-.763.7-.778 1.307-.016.343-.08.342.144.56.161.234.323.211.65.04z"/></g></g></svg>