<svg width="23" height="23" viewBox="0 0 23 23" fill="none" xmlns="http://www.w3.org/2000/svg">
<path d="M16.0833 14.475V20.7743C16.0833 20.8554 16.0618 20.935 16.021 21.0051C15.9802 21.0752 15.9215 21.1332 15.8509 21.1731C15.7804 21.2131 15.7005 21.2337 15.6194 21.2327C15.5383 21.2317 15.4589 21.2092 15.3894 21.1676L11.5 18.8337L7.61054 21.1676C7.54091 21.2093 7.46146 21.2318 7.38029 21.2327C7.29912 21.2336 7.21916 21.213 7.14858 21.1729C7.078 21.1328 7.01934 21.0747 6.97858 21.0045C6.93783 20.9343 6.91645 20.8546 6.91663 20.7734V14.4759C5.73059 13.5263 4.86879 12.2318 4.4503 10.7712C4.03181 9.31065 4.0773 7.75616 4.58049 6.32257C5.08368 4.88898 6.01973 3.64707 7.25926 2.76847C8.4988 1.88988 9.98062 1.41797 11.5 1.41797C13.0193 1.41797 14.5011 1.88988 15.7407 2.76847C16.9802 3.64707 17.9162 4.88898 18.4194 6.32257C18.9226 7.75616 18.9681 9.31065 18.5496 10.7712C18.1311 12.2318 17.2693 13.5263 16.0833 14.4759V14.475ZM8.74996 15.5502V18.3461L11.5 16.6961L14.25 18.3461V15.5502C13.3762 15.9036 12.4424 16.0847 11.5 16.0837C10.5575 16.0847 9.62368 15.9036 8.74996 15.5502ZM11.5 14.2504C12.9586 14.2504 14.3576 13.6709 15.389 12.6395C16.4205 11.608 17 10.2091 17 8.75038C17 7.29169 16.4205 5.89275 15.389 4.8613C14.3576 3.82985 12.9586 3.25038 11.5 3.25038C10.0413 3.25038 8.64232 3.82985 7.61087 4.8613C6.57942 5.89275 5.99996 7.29169 5.99996 8.75038C5.99996 10.2091 6.57942 11.608 7.61087 12.6395C8.64232 13.6709 10.0413 14.2504 11.5 14.2504Z" fill="#7C7C7C"/>
</svg>
