<svg width="25" height="25" viewBox="0 0 35 35" fill="none" xmlns="http://www.w3.org/2000/svg">
<path d="M9.47917 29.168H7.29167C5.68084 29.168 4.375 27.8621 4.375 26.2513V5.83464C4.375 4.2238 5.68084 2.91797 7.29167 2.91797H27.7083C29.3192 2.91797 30.625 4.22381 30.625 5.83464V26.2513C30.625 27.8621 29.3192 29.168 27.7083 29.168H25.5208M17.5 27.7096C19.9162 27.7096 21.875 25.7509 21.875 23.3346C21.875 20.9184 19.9162 18.9596 17.5 18.9596C15.0838 18.9596 13.125 20.9184 13.125 23.3346C13.125 25.7509 15.0838 27.7096 17.5 27.7096ZM17.5 27.7096L17.5313 27.7093L12.8751 32.3655L8.75036 28.2407L13.1537 23.8374M17.5 27.7096L22.1562 32.3655L26.281 28.2407L21.8777 23.8374M13.125 8.7513H21.875M10.2083 13.8555H24.7917" stroke="#144394" stroke-width="2" stroke-linecap="round" stroke-linejoin="round"/>
</svg>
