<svg width="10" height="10" viewBox="0 0 10 10" fill="none" xmlns="http://www.w3.org/2000/svg">
<path d="M1.18257 0.326127C0.948257 0.091812 0.568358 0.091812 0.334044 0.326127C0.0997292 0.560441 0.0997292 0.94034 0.334044 1.17465L4.15972 5.00033L0.333939 8.82611C0.0996245 9.06042 0.0996245 9.44032 0.333939 9.67464C0.568254 9.90895 0.948153 9.90895 1.18247 9.67464L5.00825 5.84886L8.81933 9.65994C9.05364 9.89425 9.43354 9.89425 9.66785 9.65994C9.90217 9.42562 9.90217 9.04572 9.66785 8.81141L5.85677 5.00033L9.66775 1.18936C9.90206 0.955041 9.90206 0.575142 9.66775 0.340827C9.43343 0.106512 9.05354 0.106512 8.81922 0.340827L5.00825 4.1518L1.18257 0.326127Z" fill="black"/>
</svg>