<?xml version="1.0" encoding="utf-8"?>
<!-- Generator: Adobe Illustrator 27.5.0, SVG Export Plug-In . SVG Version: 6.00 Build 0)  -->
<svg version="1.1" xmlns="http://www.w3.org/2000/svg" xmlns:xlink="http://www.w3.org/1999/xlink" x="0px" y="0px"
	 viewBox="0 0 500 500" style="enable-background:new 0 0 500 500;" xml:space="preserve">
<g id="BACKGROUND">
	<rect style="fill:#FFFFFF;" width="500" height="500"/>
</g>
<g id="OBJECTS">
	<path style="fill:#C3F4F3;" d="M115.381,418.694c0,0-39.243-56.857-9.148-125.274s44.578-62.134,36.67-97.275
		s1.723-67.185,37.439-88.23c45.671-26.911,183.319-19.232,206.868,71.928c23.053,89.241-12.632,121.045,7.91,143.77
		c20.542,22.725,58.82,50.771,24.348,95.081H115.381z"/>
	<g>
		<g>
			<path style="fill:#6AC7CE;" d="M386.281,261.901c-12.638,25.066-37.286,40.07-63.428,41.592
				c-14.321-21.925-16.912-50.663-4.274-75.728c12.639-25.066,37.285-40.07,63.428-41.592
				C396.328,208.097,398.919,236.835,386.281,261.901z"/>
		</g>
		<g>
			
				<rect x="293.956" y="244.009" transform="matrix(0.4501 -0.893 0.893 0.4501 -24.5619 449.3115)" style="fill:#FFFFFF;" width="117.183" height="1.18"/>
		</g>
		<g>
			<polygon style="fill:#FFFFFF;" points="365.192,219.522 386.183,212.162 385.792,211.048 365.958,218.003 359.756,197.92 
				358.628,198.268 			"/>
		</g>
		<g>
			<polygon style="fill:#FFFFFF;" points="356.632,236.499 377.623,229.139 377.232,228.025 357.397,234.98 351.196,214.898 
				350.068,215.245 			"/>
		</g>
		<g>
			<polygon style="fill:#FFFFFF;" points="348.071,253.477 369.063,246.117 368.671,245.003 348.837,251.958 342.636,231.875 
				341.508,232.223 			"/>
		</g>
	</g>
	<g>
		<g>
			<path style="fill:#F77F26;" d="M395.956,309.14c-18.173,9.469-39.175,7.856-55.317-2.384
				c0.857-19.097,11.569-37.233,29.742-46.701c18.173-9.469,39.174-7.856,55.317,2.384
				C424.841,281.536,414.129,299.672,395.956,309.14z"/>
		</g>
		<g>
			
				<rect x="340.567" y="284.079" transform="matrix(0.8868 -0.4621 0.4621 0.8868 -88.0927 209.3631)" style="fill:#FFFFFF;" width="85.541" height="0.862"/>
		</g>
		<g>
			<polygon style="fill:#FFFFFF;" points="401.519,275.037 417.096,279.621 417.339,278.794 402.62,274.463 407.504,259.918 
				406.688,259.643 			"/>
		</g>
		<g>
			<polygon style="fill:#FFFFFF;" points="389.21,281.45 404.788,286.034 405.03,285.208 390.312,280.876 395.195,266.331 
				394.379,266.057 			"/>
		</g>
		<g>
			<polygon style="fill:#FFFFFF;" points="376.901,287.863 392.479,292.448 392.721,291.621 378.003,287.289 382.886,272.744 
				382.07,272.47 			"/>
		</g>
	</g>
	<g>
		<g>
			<path style="fill:#DD2F4C;" d="M111.203,312.516c20.387,19.297,48.661,25.058,73.772,17.628
				c6.041-25.481-1.263-53.396-21.65-72.693c-20.387-19.297-48.661-25.058-73.772-17.628
				C83.512,265.304,90.816,293.219,111.203,312.516z"/>
		</g>
		<g>
			
				<rect x="136.484" y="226.212" transform="matrix(0.6875 -0.7262 0.7262 0.6875 -163.981 188.5314)" style="fill:#FFFFFF;" width="1.18" height="117.183"/>
		</g>
		<g>
			<polygon style="fill:#FFFFFF;" points="116.678,265.497 94.434,265.689 94.425,264.508 115.442,264.328 114.469,243.332 
				115.648,243.277 			"/>
		</g>
		<g>
			<polygon style="fill:#FFFFFF;" points="130.486,278.568 108.243,278.759 108.233,277.579 129.251,277.398 128.277,256.403 
				129.456,256.348 			"/>
		</g>
		<g>
			<polygon style="fill:#FFFFFF;" points="144.295,291.638 122.051,291.83 122.042,290.649 143.059,290.469 142.086,269.473 
				143.265,269.418 			"/>
		</g>
	</g>
	<g>
		<g>
			<path style="fill:#57B7CE;" d="M118.114,360.238c20.307,2.748,39.518-5.889,51.234-20.994
				c-7.28-17.676-23.506-31.107-43.812-33.854c-20.307-2.748-39.518,5.888-51.234,20.994
				C81.582,344.06,97.807,357.491,118.114,360.238z"/>
		</g>
		<g>
			
				<rect x="121.205" y="290.018" transform="matrix(0.1343 -0.9909 0.9909 0.1343 -224.4725 408.6345)" style="fill:#FFFFFF;" width="0.862" height="85.541"/>
		</g>
		<g>
			<polygon style="fill:#FFFFFF;" points="101.32,330.04 88.219,339.633 87.71,338.938 100.089,329.873 90.564,317.845 
				91.239,317.31 			"/>
		</g>
		<g>
			<polygon style="fill:#FFFFFF;" points="115.074,331.901 101.973,341.494 101.464,340.799 113.843,331.734 104.318,319.706 
				104.993,319.171 			"/>
		</g>
		<g>
			<polygon style="fill:#FFFFFF;" points="128.828,333.762 115.727,343.355 115.218,342.66 127.597,333.595 118.072,321.567 
				118.747,321.032 			"/>
		</g>
	</g>
	<path style="fill:#F99223;" d="M139.337,365.508c0,0,16.806-2.018,22.904-7.668l0.533,1.663c0,0-11.627,10.351-20.958,11.168
		C132.486,371.488,139.337,365.508,139.337,365.508z"/>
	<g>
		<g>
			<path style="fill:#FF2E56;" d="M239.216,379.316h-71.284c-10.874,0-19.689,8.815-19.689,19.689l0,0
				c0,10.874,8.815,19.689,19.689,19.689h71.284V379.316z"/>
			<path style="fill:#B92650;" d="M164.579,412.406c-6.249,0-11.814-2.915-15.421-7.455c2.521,7.967,9.972,13.743,18.773,13.743
				h71.284v-6.288H164.579z"/>
			<path style="fill:#FFFFFF;" d="M331.837,412.406v-26.803H237.83c-7.401,0-13.401,6-13.401,13.401l0,0
				c0,7.401,6,13.401,13.401,13.401H331.837z"/>
			<path style="fill:#FF82A0;" d="M237.83,412.406c-7.401,0-13.401-6-13.401-13.401l0,0c0-7.401,6-13.401,13.401-13.401h98.791
				c1.736,0,3.144-1.408,3.144-3.144l0,0c0-1.736-1.408-3.144-3.144-3.144H236.483c-10.874,0-19.689,8.815-19.689,19.689v0
				c0,10.874,8.815,19.689,19.689,19.689h100.139c1.736,0,3.144-1.408,3.144-3.144l0,0c0-1.736-1.408-3.144-3.144-3.144H237.83z"/>
			<path style="fill:#EAE6FF;" d="M233.275,397.413c-0.581,0-1.053,0.471-1.053,1.053s0.471,1.053,1.053,1.053h98.562v-2.106
				H233.275z"/>
			<polygon style="fill:#FCC922;" points="275.867,399.519 275.867,409.185 280.185,405.598 284.502,409.185 284.502,399.519 			"/>
			<path style="fill:#EAE6FF;" d="M319.667,392.899h-30.634c-0.553,0-1.002-0.449-1.002-1.002v-0.102
				c0-0.553,0.449-1.002,1.002-1.002h30.633c0.553,0,1.002,0.449,1.002,1.002v0.102C320.669,392.45,320.22,392.899,319.667,392.899z
				"/>
		</g>
		<g>
			<path style="fill:#F99223;" d="M216.794,320.247L216.794,320.247c0-10.874,8.815-19.689,19.689-19.689h-68.551
				c-10.874,0-19.689,8.815-19.689,19.689l0,0c0,10.874,8.815,19.689,19.689,19.689h68.551
				C225.609,339.937,216.794,331.122,216.794,320.247z"/>
			<path style="fill:#D67A1E;" d="M222.064,333.649h-57.484c-6.249,0-11.814-2.915-15.421-7.455
				c0.011,0.036,0.025,0.072,0.036,0.108c0.119,0.368,0.25,0.731,0.389,1.089c0.046,0.117,0.09,0.235,0.138,0.35
				c0.062,0.15,0.127,0.299,0.192,0.447c0.051,0.116,0.103,0.231,0.157,0.346c0.068,0.146,0.137,0.292,0.209,0.437
				c0.056,0.113,0.114,0.225,0.172,0.336c0.074,0.143,0.147,0.286,0.225,0.427c0.062,0.112,0.128,0.222,0.192,0.333
				c0.141,0.245,0.288,0.487,0.439,0.725c0.071,0.112,0.142,0.225,0.215,0.336c0.085,0.128,0.173,0.254,0.261,0.38
				c0.077,0.11,0.154,0.219,0.232,0.327c0.09,0.123,0.18,0.244,0.272,0.365c0.084,0.11,0.17,0.218,0.256,0.325
				c0.092,0.115,0.183,0.23,0.277,0.343c0.102,0.122,0.208,0.241,0.313,0.361c0.145,0.165,0.292,0.328,0.443,0.488
				c0.116,0.124,0.232,0.248,0.352,0.369c0.096,0.097,0.195,0.191,0.292,0.287c0.109,0.106,0.218,0.211,0.33,0.314
				c0.101,0.093,0.203,0.186,0.306,0.277c0.116,0.103,0.234,0.205,0.352,0.305c0.1,0.085,0.2,0.17,0.302,0.253
				c0.141,0.115,0.286,0.227,0.431,0.338c0.082,0.063,0.163,0.129,0.246,0.191c0.219,0.163,0.443,0.322,0.669,0.476
				c0.094,0.064,0.189,0.125,0.284,0.187c0.148,0.097,0.297,0.194,0.448,0.287c0.104,0.064,0.208,0.127,0.314,0.189
				c0.15,0.089,0.301,0.176,0.453,0.261c0.103,0.057,0.205,0.115,0.309,0.17c0.175,0.093,0.352,0.183,0.53,0.272
				c0.082,0.041,0.164,0.084,0.247,0.124c0.257,0.123,0.517,0.241,0.78,0.353c0.078,0.033,0.158,0.064,0.236,0.096
				c0.194,0.079,0.388,0.157,0.585,0.231c0.102,0.038,0.206,0.074,0.309,0.111c0.18,0.064,0.361,0.125,0.544,0.184
				c0.104,0.034,0.209,0.067,0.314,0.099c0.198,0.06,0.398,0.116,0.599,0.17c0.088,0.024,0.175,0.049,0.263,0.071
				c0.287,0.073,0.576,0.14,0.868,0.2c0.05,0.01,0.102,0.018,0.152,0.028c0.245,0.048,0.491,0.093,0.738,0.132
				c0.1,0.016,0.201,0.029,0.302,0.043c0.203,0.029,0.407,0.055,0.613,0.078c0.109,0.012,0.218,0.023,0.327,0.034
				c0.211,0.02,0.423,0.035,0.636,0.048c0.097,0.006,0.194,0.013,0.291,0.018c0.308,0.014,0.618,0.024,0.93,0.024h68.551
				C230.787,339.937,225.659,337.515,222.064,333.649z"/>
			<path style="fill:#FFFFFF;" d="M331.837,333.649v-26.803H237.83c-7.401,0-13.401,6-13.401,13.401l0,0
				c0,7.401,6,13.401,13.401,13.401H331.837z"/>
			<path style="fill:#FFA750;" d="M237.83,333.649c-7.401,0-13.401-6-13.401-13.401l0,0c0-7.401,6-13.401,13.401-13.401h98.791
				c1.736,0,3.144-1.408,3.144-3.144l0,0c0-1.737-1.408-3.144-3.144-3.144H236.483c-10.874,0-19.689,8.815-19.689,19.689l0,0
				c0,10.874,8.815,19.689,19.689,19.689h100.139c1.736,0,3.144-1.408,3.144-3.144l0,0c0-1.736-1.408-3.144-3.144-3.144H237.83z"/>
			<path style="fill:#EAE6FF;" d="M233.275,320.762c-0.581,0-1.053-0.471-1.053-1.053c0-0.581,0.471-1.053,1.053-1.053h98.562v2.106
				H233.275z"/>
			<path style="fill:#EAE6FF;" d="M320.664,316.628h-30.532c-0.581,0-1.053-0.471-1.053-1.053l0,0c0-0.581,0.471-1.053,1.053-1.053
				h30.532c0.582,0,1.053,0.471,1.053,1.053l0,0C321.717,316.156,321.245,316.628,320.664,316.628z"/>
			<path style="fill:#EAE6FF;" d="M269.953,325.719h-12.982c-0.581,0-1.053-0.471-1.053-1.053l0,0c0-0.581,0.471-1.053,1.053-1.053
				h12.982c0.581,0,1.053,0.471,1.053,1.053l0,0C271.005,325.248,270.534,325.719,269.953,325.719z"/>
			<polygon style="fill:#FF2E56;" points="240.946,320.762 240.946,330.427 245.263,326.84 249.581,330.427 249.581,320.762 			"/>
		</g>
		<g>
			<path style="fill:#770FBA;" d="M324.222,339.937h-68.551c10.874,0,19.689,8.815,19.689,19.689v0
				c0,10.874-8.815,19.689-19.689,19.689h68.551c10.874,0,19.69-8.815,19.69-19.689v0
				C343.912,348.752,335.096,339.937,324.222,339.937z"/>
			<path style="fill:#5A0E96;" d="M325.444,379.274c0.213-0.013,0.425-0.029,0.635-0.048c0.109-0.01,0.218-0.022,0.327-0.034
				c0.205-0.023,0.409-0.049,0.612-0.078c0.101-0.014,0.203-0.028,0.303-0.044c0.247-0.039,0.493-0.083,0.737-0.132
				c0.051-0.01,0.103-0.018,0.154-0.029c0.292-0.06,0.58-0.127,0.867-0.2c0.089-0.022,0.176-0.048,0.264-0.072
				c0.2-0.054,0.4-0.11,0.597-0.17c0.106-0.032,0.211-0.066,0.315-0.099c0.182-0.058,0.363-0.12,0.542-0.183
				c0.104-0.037,0.208-0.073,0.311-0.112c0.196-0.073,0.39-0.15,0.583-0.23c0.079-0.033,0.16-0.063,0.239-0.097
				c0.263-0.112,0.522-0.229,0.779-0.352c0.084-0.04,0.166-0.084,0.25-0.125c0.177-0.088,0.353-0.177,0.527-0.27
				c0.104-0.056,0.208-0.114,0.311-0.172c0.152-0.085,0.302-0.171,0.451-0.259c0.106-0.063,0.211-0.126,0.316-0.19
				c0.15-0.093,0.298-0.189,0.445-0.286c0.096-0.063,0.193-0.124,0.287-0.189c0.226-0.154,0.449-0.312,0.669-0.475
				c0.084-0.063,0.166-0.129,0.249-0.193c0.144-0.11,0.287-0.221,0.427-0.336c0.103-0.084,0.203-0.17,0.304-0.255
				c0.117-0.1,0.234-0.201,0.35-0.303c0.103-0.092,0.206-0.185,0.308-0.279c0.11-0.102,0.219-0.207,0.327-0.312
				c0.099-0.096,0.198-0.191,0.295-0.289c0.117-0.119,0.231-0.241,0.345-0.362c0.154-0.164,0.305-0.331,0.454-0.5
				c0.103-0.117,0.206-0.234,0.307-0.354c0.095-0.114,0.187-0.23,0.28-0.346c0.085-0.107,0.17-0.213,0.253-0.322
				c0.093-0.121,0.184-0.244,0.274-0.368c0.078-0.107,0.154-0.215,0.23-0.323c0.089-0.127,0.178-0.254,0.263-0.383
				c0.072-0.109,0.141-0.219,0.211-0.329c0.156-0.245,0.307-0.494,0.452-0.747c0.06-0.105,0.123-0.209,0.182-0.316
				c0.078-0.142,0.152-0.287,0.227-0.431c0.057-0.11,0.115-0.22,0.17-0.331c0.072-0.146,0.142-0.293,0.21-0.44
				c0.053-0.113,0.104-0.227,0.154-0.342c0.066-0.149,0.132-0.299,0.194-0.451c0.047-0.114,0.091-0.229,0.136-0.344
				c0.154-0.395,0.299-0.795,0.428-1.201c-3.607,4.54-9.172,7.455-15.421,7.455h-57.484c-3.595,3.867-8.723,6.288-14.42,6.288
				h68.551c0.312,0,0.622-0.009,0.93-0.023C325.25,379.288,325.347,379.28,325.444,379.274z"/>
			<path style="fill:#FFFFFF;" d="M160.317,373.028v-26.802h94.007c7.401,0,13.401,6,13.401,13.401v0
				c0,7.401-6,13.401-13.401,13.401H160.317z"/>
			<path style="fill:#9839E2;" d="M254.324,373.028c7.401,0,13.401-6,13.401-13.401l0,0c0-7.401-6-13.401-13.401-13.401h-98.791
				c-1.736,0-3.144-1.408-3.144-3.144l0,0c0-1.737,1.408-3.144,3.144-3.144h100.139c10.874,0,19.689,8.815,19.689,19.689v0
				c0,10.874-8.815,19.689-19.689,19.689H155.533c-1.736,0-3.144-1.408-3.144-3.144l0,0c0-1.736,1.408-3.144,3.144-3.144H254.324z"
				/>
			<path style="fill:#EAE6FF;" d="M258.879,360.14c0.581,0,1.053-0.471,1.053-1.053s-0.471-1.053-1.053-1.053h-98.562v2.105H258.879
				z"/>
			<path style="fill:#EAE6FF;" d="M219.484,355.595h-30.532c-0.581,0-1.053-0.471-1.053-1.053l0,0c0-0.581,0.471-1.053,1.053-1.053
				h30.532c0.581,0,1.053,0.471,1.053,1.053l0,0C220.536,355.123,220.065,355.595,219.484,355.595z"/>
			<path style="fill:#EAE6FF;" d="M241.531,367.911h-12.982c-0.581,0-1.053-0.471-1.053-1.053s0.471-1.053,1.053-1.053h12.982
				c0.582,0,1.053,0.471,1.053,1.053S242.113,367.911,241.531,367.911z"/>
			<polygon style="fill:#5652E5;" points="212.476,360.14 212.476,369.806 216.794,366.219 221.111,369.806 221.111,360.14 			"/>
		</g>
	</g>
	<g>
		<polygon style="fill:#2C2256;" points="334.078,98.981 247.93,137.046 162.225,98.981 216.705,86.882 221.45,85.828 
			247.93,79.948 274.54,85.828 279.311,86.882 282.257,87.532 284.386,88 		"/>
		<polygon style="fill:#1C173D;" points="247.93,79.948 247.93,137.046 162.222,98.981 		"/>
		<g>
			<path style="fill:#251E4F;" d="M302.567,146.351l-4.223,0.691c-0.826,0.135-1.651,0.269-2.477,0.392
				c-3.224,0.504-6.457,0.955-9.707,1.353c-8.769,1.083-17.616,1.792-26.489,2.12c-19.971,0.755-40.063-0.392-59.677-3.438
				c-2.242-0.346-4.476-0.72-6.7-1.119l3.224-14.693l3.476-15.817c19.614-3.039,39.707-4.187,59.677-3.432
				c8.873,0.322,17.72,1.031,26.489,2.114c3.25,0.398,6.483,0.849,9.707,1.353l3.467,15.782L302.567,146.351z"/>
		</g>
		<g>
			<path style="fill:#FF2E56;" d="M284.567,110.023l-0.003-0.003h-0.004V88.826c0-0.287-0.061-0.562-0.174-0.826
				c-0.53-1.253-2.251-2.173-4.276-2.173h-5.571l4.771,1.054h0.8c0.852,0,1.625,0.252,2.147,0.65
				c0.461,0.345,0.739,0.796,0.739,1.294v21.193l-0.003,0.003c-1.341,1.642-2.045,3.487-2.045,5.362v7.288h2.787h0.091h2.787v-7.288
				C286.612,113.51,285.909,111.665,284.567,110.023z"/>
		</g>
	</g>
	<g>
		<g>
			<g>
				<rect x="231.633" y="262.748" style="fill:#D7D4FF;" width="33.034" height="30.673"/>
			</g>
			<g>
				<g>
					<g>
						<rect x="231.633" y="284.448" style="fill:#B6B6DD;" width="33.034" height="8.973"/>
					</g>
				</g>
			</g>
			<g>
				<rect x="231.633" y="262.748" style="fill:#B6B6DD;" width="33.034" height="12.514"/>
			</g>
			<g>
				<path style="fill:#D7D4FF;" d="M287.458,293.421h-78.615v-0.775c0-3.405,2.76-6.164,6.164-6.164h66.286
					c3.404,0,6.164,2.76,6.164,6.164V293.421z"/>
			</g>
			<g>
				<path style="fill:#1F143F;" d="M348.953,252.316H147.348V144.153c0-2.884,2.338-5.223,5.223-5.223H343.73
					c2.884,0,5.223,2.338,5.223,5.223V252.316z"/>
			</g>
			<g>
				<rect x="152.826" y="144.408" style="fill:#FFFFFF;" width="190.648" height="102.429"/>
			</g>
			<g>
				<g>
					<path style="fill:#D7D4FF;" d="M348.953,252.316H147.348v15.642c0,2.884,2.338,5.223,5.223,5.223H343.73
						c2.884,0,5.223-2.339,5.223-5.223V252.316z"/>
				</g>
			</g>
			<g>
				<g>
					<rect x="214.462" y="153.456" style="fill:#D7D4FF;" width="29.328" height="2.404"/>
				</g>
				<g>
					<rect x="214.462" y="160.284" style="fill:#D7D4FF;" width="29.328" height="2.404"/>
				</g>
				<g>
					<rect x="214.462" y="167.111" style="fill:#D7D4FF;" width="29.328" height="2.404"/>
				</g>
				<g>
					<rect x="214.462" y="173.939" style="fill:#D7D4FF;" width="29.328" height="2.404"/>
				</g>
				<g>
					<rect x="214.462" y="180.766" style="fill:#D7D4FF;" width="29.328" height="2.404"/>
				</g>
				<g>
					<rect x="169.972" y="187.593" style="fill:#D7D4FF;" width="73.818" height="2.404"/>
				</g>
				<g>
					<rect x="169.972" y="193.499" style="fill:#D7D4FF;" width="73.818" height="2.404"/>
				</g>
				<g>
					<rect x="169.972" y="199.405" style="fill:#D7D4FF;" width="73.818" height="2.404"/>
				</g>
				<g>
					<rect x="252.51" y="153.456" style="fill:#D7D4FF;" width="73.818" height="2.404"/>
				</g>
				<g>
					<rect x="252.51" y="160.284" style="fill:#D7D4FF;" width="73.818" height="2.404"/>
				</g>
				<g>
					<rect x="252.51" y="167.111" style="fill:#D7D4FF;" width="73.818" height="2.404"/>
				</g>
				<g>
					<rect x="252.51" y="173.939" style="fill:#D7D4FF;" width="73.818" height="2.404"/>
				</g>
				<g>
					<rect x="252.51" y="180.766" style="fill:#D7D4FF;" width="63.171" height="2.404"/>
				</g>
				<g>
					<rect x="260.999" y="187.593" style="fill:#D7D4FF;" width="65.329" height="2.404"/>
				</g>
				<g>
					<rect x="252.51" y="194.421" style="fill:#D7D4FF;" width="73.818" height="2.404"/>
				</g>
				<g>
					<rect x="252.51" y="201.248" style="fill:#D7D4FF;" width="73.818" height="2.404"/>
				</g>
				<g>
					<rect x="252.51" y="208.076" style="fill:#D7D4FF;" width="73.818" height="2.404"/>
				</g>
				<g>
					<rect x="252.51" y="214.903" style="fill:#D7D4FF;" width="73.818" height="2.404"/>
				</g>
				<g>
					<rect x="252.51" y="221.731" style="fill:#D7D4FF;" width="73.818" height="2.404"/>
				</g>
				<g>
					<rect x="252.51" y="228.558" style="fill:#D7D4FF;" width="73.818" height="2.404"/>
				</g>
				<g>
					<rect x="252.51" y="235.386" style="fill:#D7D4FF;" width="63.171" height="2.404"/>
				</g>
				<g>
					<rect x="169.972" y="205.31" style="fill:#D7D4FF;" width="73.818" height="2.404"/>
				</g>
				<g>
					<rect x="169.972" y="211.216" style="fill:#D7D4FF;" width="73.818" height="2.404"/>
				</g>
				<g>
					<rect x="169.972" y="217.121" style="fill:#D7D4FF;" width="73.818" height="2.404"/>
				</g>
				<g>
					<rect x="169.972" y="223.027" style="fill:#D7D4FF;" width="62.028" height="2.404"/>
				</g>
				<g>
					<rect x="178.308" y="228.932" style="fill:#D7D4FF;" width="65.482" height="2.404"/>
				</g>
				<g>
					<rect x="169.972" y="234.838" style="fill:#D7D4FF;" width="73.818" height="2.404"/>
				</g>
				<g>
					<rect x="169.972" y="153.456" style="fill:#D7D4FF;" width="40.832" height="29.714"/>
				</g>
			</g>
		</g>
		<g>
			<g>
				<rect x="173.167" y="292.293" style="fill:#FEFEFC;" width="149.965" height="8.266"/>
			</g>
			<g>
				<rect x="173.167" y="297.873" style="fill:#D7D4FF;" width="149.965" height="2.686"/>
			</g>
			<g>
				<g>
					<g>
						<rect x="176.346" y="289.176" style="fill:#FEFEFC;" width="6.234" height="3.117"/>
					</g>
					<g>
						<rect x="185.649" y="289.176" style="fill:#FEFEFC;" width="6.234" height="3.117"/>
					</g>
					<g>
						<rect x="194.763" y="289.176" style="fill:#FEFEFC;" width="6.234" height="3.117"/>
					</g>
					<g>
						<rect x="259.038" y="289.176" style="fill:#FEFEFC;" width="6.234" height="3.117"/>
					</g>
					<g>
						<rect x="268.34" y="289.176" style="fill:#FEFEFC;" width="6.234" height="3.117"/>
					</g>
					<g>
						<rect x="277.455" y="289.176" style="fill:#FEFEFC;" width="6.234" height="3.117"/>
					</g>
					<g>
						<rect x="286.057" y="289.176" style="fill:#FEFEFC;" width="6.234" height="3.117"/>
					</g>
					<g>
						<rect x="295.171" y="289.176" style="fill:#FEFEFC;" width="6.234" height="3.117"/>
					</g>
					<g>
						<g>
							<rect x="203.69" y="289.176" style="fill:#FEFEFC;" width="52.696" height="3.117"/>
						</g>
					</g>
				</g>
				<g>
					<g>
						<rect x="304.417" y="289.176" style="fill:#FEFEFC;" width="6.234" height="3.117"/>
					</g>
					<g>
						<rect x="313.72" y="289.176" style="fill:#FEFEFC;" width="6.234" height="3.117"/>
					</g>
				</g>
			</g>
			<g>
				<g>
					<g>
						<rect x="176.346" y="291.557" style="fill:#C7C7EF;" width="6.234" height="0.735"/>
					</g>
					<g>
						<rect x="185.649" y="291.557" style="fill:#C7C7EF;" width="6.234" height="0.735"/>
					</g>
					<g>
						<rect x="194.763" y="291.557" style="fill:#C7C7EF;" width="6.234" height="0.735"/>
					</g>
					<g>
						<rect x="259.038" y="291.557" style="fill:#C7C7EF;" width="6.234" height="0.735"/>
					</g>
					<g>
						<rect x="268.34" y="291.557" style="fill:#C7C7EF;" width="6.234" height="0.735"/>
					</g>
					<g>
						<rect x="277.455" y="291.557" style="fill:#C7C7EF;" width="6.234" height="0.735"/>
					</g>
					<g>
						<rect x="286.057" y="291.557" style="fill:#C7C7EF;" width="6.234" height="0.735"/>
					</g>
					<g>
						<rect x="295.171" y="291.557" style="fill:#C7C7EF;" width="6.234" height="0.735"/>
					</g>
					<g>
						<g>
							<rect x="203.69" y="291.557" style="fill:#C7C7EF;" width="52.696" height="0.735"/>
						</g>
					</g>
				</g>
				<g>
					<g>
						<rect x="304.417" y="291.557" style="fill:#C7C7EF;" width="6.234" height="0.735"/>
					</g>
					<g>
						<rect x="313.72" y="291.557" style="fill:#C7C7EF;" width="6.234" height="0.735"/>
					</g>
				</g>
			</g>
		</g>
	</g>
	<path style="fill:#251E4F;" d="M174.283,405.471h15.051l-2.926,13.223h2.605l29.354-132.669h-2.605l-2.902,13.116h-15.051
		l2.902-13.116h-2.605l-29.354,132.669h2.605L174.283,405.471z M193.836,385.123h-15.051l3.107-14.044h15.051L193.836,385.123z
		 M193.307,319.49h15.051l-3.107,14.044h-15.051L193.307,319.49z M204.553,336.686l-3.107,14.045h-15.051l3.108-14.045H204.553z
		 M200.748,353.883l-3.107,14.044h-15.051l3.107-14.044H200.748z M212.162,302.294l-3.107,14.044h-15.051l3.107-14.044H212.162z
		 M174.98,402.319l3.107-14.044h15.051l-3.107,14.044H174.98z"/>
	<g>
		<path style="fill:#817DA0;" d="M241.464,221.836v11.298c0,3.693,2.994,6.686,6.686,6.686h0c3.693,0,6.686-2.993,6.686-6.686
			v-11.298H241.464z"/>
		<path style="fill:#AFAED3;" d="M255.076,232.157h-13.852c-0.487,0-0.882-0.395-0.882-0.882v-0.089
			c0-0.487,0.395-0.882,0.882-0.882h13.852c0.487,0,0.882,0.395,0.882,0.882v0.089C255.958,231.762,255.563,232.157,255.076,232.157
			z"/>
		<path style="fill:#AFAED3;" d="M255.076,228.119h-13.852c-0.487,0-0.882-0.395-0.882-0.882v-0.089
			c0-0.487,0.395-0.882,0.882-0.882h13.852c0.487,0,0.882,0.395,0.882,0.882v0.089C255.958,227.724,255.563,228.119,255.076,228.119
			z"/>
		<g>
			
				<ellipse transform="matrix(0.7071 -0.7071 0.7071 0.7071 -64.5026 232.2921)" style="fill:#1F143F;" cx="248.15" cy="194.008" rx="28.987" ry="28.987"/>
			<circle style="fill:#FFCD52;" cx="248.15" cy="194.008" r="25.137"/>
			<path style="fill:#FCE7B9;" d="M226.105,190.037c-0.023,0.124-0.045,0.248-0.066,0.372c-0.152,0.903,0.553,1.727,1.468,1.727l0,0
				c0.713,0,1.34-0.505,1.454-1.208c0.02-0.126,0.042-0.251,0.065-0.376c0.166-0.913-0.52-1.753-1.449-1.753h-0.008
				C226.845,188.8,226.238,189.325,226.105,190.037z"/>
			<path style="fill:#FCE7B9;" d="M229.508,186.02L229.508,186.02c0.568,0,1.072-0.331,1.331-0.836
				c2.572-5.027,7.272-8.784,12.913-10.091c0.658-0.152,1.111-0.758,1.111-1.433v-0.003c0-0.954-0.891-1.668-1.82-1.451
				c-6.511,1.52-11.922,5.875-14.874,11.693C227.677,184.871,228.418,186.02,229.508,186.02z"/>
			<g>
				<rect x="247.759" y="170.952" style="fill:#1F143F;" width="0.783" height="3.619"/>
				<rect x="247.759" y="213.444" style="fill:#1F143F;" width="0.783" height="3.619"/>
			</g>
			<g>
				
					<rect x="226.512" y="192.198" transform="matrix(6.123234e-17 -1 1 6.123234e-17 32.8962 420.9114)" style="fill:#1F143F;" width="0.783" height="3.619"/>
				
					<rect x="269.005" y="192.198" transform="matrix(6.123234e-17 -1 1 6.123234e-17 75.3889 463.4041)" style="fill:#1F143F;" width="0.783" height="3.619"/>
			</g>
			<path style="fill:#1F143F;" d="M250.288,194.008c0,1.181-0.957,2.138-2.138,2.138c-1.181,0-2.138-0.957-2.138-2.138
				c0-1.181,0.957-2.138,2.138-2.138C249.331,191.869,250.288,192.827,250.288,194.008z"/>
			<rect x="247.162" y="179.843" style="fill:#1F143F;" width="1.976" height="13.773"/>
			<rect x="238.368" y="192.8" style="fill:#1F143F;" width="9.782" height="2.196"/>
		</g>
		<path style="fill:#EFB025;" d="M248.15,153.456c-0.74,0-1.34,0.6-1.34,1.34v5.616c0,0.74,0.6,1.34,1.34,1.34
			c0.74,0,1.34-0.6,1.34-1.34v-5.616C249.49,154.056,248.89,153.456,248.15,153.456z"/>
		<path style="fill:#EFB025;" d="M276.824,165.333c-0.523-0.523-1.372-0.523-1.895,0l-3.971,3.971c-0.523,0.523-0.523,1.372,0,1.895
			c0.523,0.523,1.372,0.523,1.895,0l3.971-3.971C277.348,166.705,277.348,165.857,276.824,165.333z"/>
		<path style="fill:#EFB025;" d="M225.342,216.815c-0.523-0.523-1.372-0.523-1.895,0l-3.971,3.971c-0.523,0.523-0.523,1.372,0,1.895
			c0.523,0.523,1.372,0.523,1.895,0l3.971-3.971C225.866,218.187,225.865,217.339,225.342,216.815z"/>
		<path style="fill:#EFB025;" d="M288.702,194.008c0-0.74-0.6-1.34-1.34-1.34h-5.616c-0.74,0-1.34,0.6-1.34,1.34
			c0,0.74,0.6,1.34,1.34,1.34h5.616C288.102,195.348,288.702,194.748,288.702,194.008z"/>
		<path style="fill:#EFB025;" d="M215.895,194.008c0-0.74-0.6-1.34-1.34-1.34h-5.616c-0.74,0-1.34,0.6-1.34,1.34
			c0,0.74,0.6,1.34,1.34,1.34h5.616C215.295,195.348,215.895,194.748,215.895,194.008z"/>
		<path style="fill:#EFB025;" d="M276.824,222.682c0.523-0.523,0.523-1.372,0-1.895l-3.971-3.971c-0.523-0.523-1.372-0.523-1.895,0
			c-0.523,0.523-0.523,1.372,0,1.895l3.971,3.971C275.452,223.205,276.301,223.205,276.824,222.682z"/>
		<path style="fill:#EFB025;" d="M225.342,171.2c0.523-0.523,0.523-1.372,0-1.895l-3.971-3.971c-0.523-0.523-1.372-0.523-1.895,0
			c-0.523,0.523-0.523,1.372,0,1.895l3.971,3.971C223.97,171.723,224.819,171.723,225.342,171.2z"/>
	</g>
	<g>
		<g>
			<g>
				<path style="fill:#FCD3B9;" d="M318.909,160.083c-0.187,1.642-0.446,3.286-0.817,4.898l3.143-1.51c0,0,0.173-1.325,0.515-3.387
					H318.909z"/>
				<path style="fill:#323E49;" d="M321.234,164.561c0.111-0.564,0.314-1.106,0.601-1.604l0.213-0.369l-0.509-0.07l0,0
					c-1.328,1.674-3.95,2.491-6.063,2.171c-0.033-0.005-0.067-0.01-0.1-0.016c-3.111-0.497-3.657,2.191-3.657,2.191
					s4.216,2.208,7.436-0.245l1.147-0.879l-0.753,2.374l0.981,0.091L321.234,164.561z"/>
			</g>
			<g>
				<path style="fill:#FCD3B9;" d="M323.388,160.256c0.335,2.889,0.025,6.022-0.281,9.41l2.909-1.922c0,0,0.199-3.221,0.202-7.488
					H323.388z"/>
				<path style="fill:#323E49;" d="M326.163,168.825c0.033-0.574,0.161-1.139,0.378-1.671l0.161-0.395h-0.514l0,0
					c-1.089,1.838-3.577,3.003-5.713,2.973c-0.034-0.001-0.068-0.001-0.102-0.002c-3.15-0.071-3.327,2.666-3.327,2.666
					s4.477,1.616,7.334-1.25l1.017-1.026l-0.425,2.454l0.985-0.043L326.163,168.825z"/>
			</g>
			<path style="fill:#323E49;" d="M335.97,128.09c-1.039,0.435-5.495,2.99-9.017,2.908l0.002,0.005
				c-2.834-0.037-8.746,0.103-9.459,1.88c-0.783,1.954,0.21,4.833,1.594,8.698c0.779,5.499,1.095,13.193-0.538,20.286l3.143-1.51
				c0,0,0.508-2.537,1.031-6.104c0.628,3.611,0.919,7.647,0.513,12.126l2.909-1.922c0,0,1.141-18.324-1.986-25.529
				c0,0,0.755-0.01,4.299-0.148c0,0,15.701,2.875,17.765-2.286C348.068,131.894,338.13,128.628,335.97,128.09z"/>
		</g>
		<g>
			<path style="fill:#770FBA;" d="M339.375,107.24l-1.896,6.839c-14.947,7.919-28.474,3.364-28.474,3.364l0.318-1.61
				C323.81,118.173,339.375,107.24,339.375,107.24z"/>
			<path style="fill:#FCD3B9;" d="M338.064,108.024c0,0-1.25-8.646-5.981-7.616c-2.232,0.485-2.373-3.182-2.373-3.182l-1.973-0.499
				c1.041-1.824-0.978-6.997-0.978-6.997s7.554-3.647,10.53,2.679c0.76,1.614,0.684,3.514,1.245,5.194
				c1.637,4.903,3.169,9.219,3.169,9.219L338.064,108.024z"/>
			<path style="fill:#2C253D;" d="M335.593,84.324c0,0-3.006-3.661,0.48-5.467c3.487-1.805,7.464,0.103,7.384,2.824
				c-0.081,2.722-2.613,5.189-5.141,4.21S335.593,84.324,335.593,84.324z"/>
			<path style="fill:#770FBA;" d="M333.814,126.555c1.139-1.879,2.027-3.898,2.35-6.071c0.055-2.983-2.772-7.167-1.944-8.639
				c0.567-1.008,1.704-3.528,2.365-5.018c-0.052-0.759-0.096-1.201-0.096-1.201l0,0c0.005-0.68-0.427-2.953-0.427-2.953
				c-1.282,0.385-2.307-0.982-1.623-1.025c0.684-0.043,4.995-0.897,4.995-0.897h0.174c0,0,1.527,2.621,2.114,4.39l0.003,0
				c11.983,17.765,2.155,34.546,1.861,31.405c-0.294-3.141-4.797-6.071-8.125-7.165C333.173,128.63,333.267,127.458,333.814,126.555
				z"/>
			<path style="fill:#2C253D;" d="M326.758,89.73c0,0-1.959-0.049-1.468-2.826c0.492-2.777,4.82-8.005,10.538-3.676
				c5.717,4.329,9.414,9.187,2.42,14.599c0,0-0.162-7.24-5.687-5.941C329.615,92.579,326.758,89.73,326.758,89.73z"/>
			<path style="fill:#2C253D;" d="M329.837,90.829c0,0,2.763,1.488,2.693,3.401c0,0,0.531-1.701-0.461-2.941
				C331.077,90.049,329.837,90.829,329.837,90.829z"/>
			<path style="fill:#FCD3B9;" d="M314.925,124.223c-0.499-0.917-2.16-1.889-2.16-1.889l0.378,1.427
				c-0.275-0.066-0.799-0.152-1.353-0.235c-0.979-0.147-1.859,0.612-1.859,1.602l0,0c0,0.884,0.706,1.604,1.589,1.62
				c1.484,0.027,3.206-0.029,3.842-0.277L314.925,124.223z"/>
			<path style="fill:#FCD3B9;" d="M309.322,115.833c-0.087-0.918-0.992-2.669-0.992-2.669l-0.188,1.291
				c-0.201-0.15-0.597-0.401-1.019-0.661c-0.745-0.46-1.724-0.148-2.068,0.656l0,0c-0.307,0.718,0.016,1.549,0.729,1.869
				c1.197,0.538,2.617,1.091,3.22,1.11L309.322,115.833z"/>
			<path style="fill:#770FBA;" d="M339.456,108.024l1.77,7.627c-10.73,12.421-25.863,10.819-25.863,10.819l-0.438-2.248
				C333.578,124.039,339.456,108.024,339.456,108.024z"/>
		</g>
	</g>
	<g>
		<polygon style="fill:#FCBD8D;" points="116.995,407.344 114.79,407.344 114.79,409.424 117.381,409.424 		"/>
		<path style="fill:#323E49;" d="M135.645,409.087c0,0,0.296-2.521,0.215-5.151h8.475c-0.33,3.859-0.852,7.262-1.678,8.506
			c-2.316,3.488-21.905-3.489-25.662-2.549v-2.952C116.995,406.941,129.205,406.538,135.645,409.087z"/>
		<path style="fill:#323E49;" d="M114.79,407.344c0,0-1.373-0.306-1.978-0.223c0,0-0.62,3.197-0.227,7.731
			c0,0,2.204-1.178,2.204-5.428h0.598C115.388,409.424,114.742,408.901,114.79,407.344z"/>
		<polygon style="fill:#FCBD8D;" points="116.995,411.187 114.79,411.187 114.79,413.266 117.381,413.266 		"/>
		<path style="fill:#323E49;" d="M144.903,392.359c0,0,0.07,20.437-2.246,23.925c-2.316,3.488-21.905-3.489-25.662-2.549v-2.952
			c0,0,12.21-0.403,18.65,2.147c0,0,0.748-6.345-0.456-9.409c-2.545-6.478-1.02-7.969-0.483-12.128L144.903,392.359z"/>
		<path style="fill:#FCBD8D;" d="M144.115,351.95l0.51,3.471l0.499,1.841c0.102,0.376-0.072,0.773-0.418,0.952l-0.642,0.332
			l0.196,0.972c0.182,0.904-0.397,1.787-1.299,1.981l-2.237,0.48c-0.983,0.211-1.615,1.171-1.421,2.157l1.029,5.228l-6.272-2.095
			l-0.173-14.044L144.115,351.95z"/>
		<path style="fill:#FFA44A;" d="M134.06,363.57c0,0,5.012-0.049,8.275,3.214c0,0-6.754-2.154-8.449-1.118L134.06,363.57z"/>
		<path style="fill:#F99223;" d="M133.887,365.666c0,0-3.628,7.889-1.664,14.821c1.964,6.932,2.404,9.215,1.664,10.717
			c-0.74,1.502,4.097,1.502,10.228,1.155h1.828c0,0,0.579-2.611-0.336-3.882c-0.915-1.271,0.117-3.347-2.128-10.577
			c-1.88-6.055-1.144-11.115-1.144-11.115S136.475,361.358,133.887,365.666z"/>
		<path style="fill:#F99223;" d="M139.52,366.784l4.849,3.141c3.337,2.161,7.499,2.617,11.224,1.23l12.115-4.51l1.532,0.884
			l-14.866,8.049c-2.865,1.551-6.219,1.93-9.358,1.057l-4.36-1.213l-1.471-8.637"/>
		<path style="fill:#323E49;" d="M114.79,411.187c0,0-1.373-0.306-1.978-0.223c0,0-0.62,3.197-0.227,7.731
			c0,0,2.204-1.178,2.204-5.428h0.598C115.388,413.266,114.742,412.743,114.79,411.187z"/>
		<path style="fill:#2C253D;" d="M135.094,348.731c5.039-2.318,9.021,0.295,8.995,3.194l0.026,0.025l-3.904,1.435
			c-0.658,0.242-1.109,0.851-1.15,1.55c-0.059,1.025-0.979,1.782-1.996,1.642l-1.145-0.157l-0.912,3.6l-1.198,0.739l-0.161-1.263
			c-0.338-1.796-1.022-2.099-1.022-2.099C129.288,352.344,134.908,348.817,135.094,348.731z"/>
		<path style="fill:#FCBD8D;" d="M167.708,366.645c0,0,1.602-1.346,1.922-2.641c0.32-1.295,0.641-2.256,1.217-1.936
			c0.577,0.32-0.256,2.258-0.256,2.258s1.983-2.772,3.328-1.749c1.345,1.023,1.73,3.201-0.769,3.841
			c-2.498,0.641-3.91,1.111-3.91,1.111L167.708,366.645z"/>
	</g>
	<g>
		<path style="fill:#DF3132;" d="M381.407,335.186c0,0-11.218,8.72-28.261,7.913l0.439,2.233c0,0,15.908,2.197,29.411-4.535
			L381.407,335.186z"/>
		<g>
			<path style="fill:#1F143F;" d="M348.86,315.012l4.314,48.677c0.206,2.322,2.255,4.037,4.577,3.831
				c2.322-0.206,4.037-2.255,3.831-4.576l-4.314-48.677L348.86,315.012z"/>
			
				<ellipse transform="matrix(0.993 -0.1181 0.1181 0.993 -32.3458 43.5405)" style="fill:#1F143F;" cx="351.302" cy="294.764" rx="27.346" ry="27.346"/>
			
				<ellipse transform="matrix(0.6062 -0.7953 0.7953 0.6062 -96.0826 395.4909)" style="fill:#C3F4F3;" cx="351.302" cy="294.764" rx="23.019" ry="23.019"/>
			<path style="fill:#FFFFFF;" d="M333.558,302.497c0.155,0.354,0.32,0.701,0.494,1.043c0.418,0.819,1.29,1.305,2.206,1.223l0,0
				c1.584-0.14,2.509-1.834,1.786-3.25c-0.132-0.258-0.256-0.521-0.373-0.787c-0.388-0.884-1.284-1.432-2.246-1.346l-0.001,0
				C333.907,299.515,332.947,301.102,333.558,302.497z"/>
			<path style="fill:#FFFFFF;" d="M334.644,293.993l0.01-0.001c1.027-0.091,1.83-0.877,2.013-1.891
				c1.046-5.772,5.444-10.488,11.269-11.834c1.066-0.246,1.766-1.272,1.669-2.362l0,0c-0.12-1.358-1.419-2.298-2.746-1.987
				c-7.586,1.778-13.307,7.952-14.628,15.491C331.981,292.845,333.193,294.121,334.644,293.993z"/>
			
				<rect x="350.511" y="331.798" transform="matrix(0.9961 -0.0883 0.0883 0.9961 -28.0549 32.6203)" style="fill:#817DA0;" width="8.441" height="3.323"/>
			
				<rect x="351.3" y="340.697" transform="matrix(0.9961 -0.0883 0.0883 0.9961 -28.8375 32.7247)" style="fill:#817DA0;" width="8.441" height="3.323"/>
		</g>
		<g>
			<path style="fill:#FCD3B9;" d="M353.146,348.344c0,0-1.445-0.379-1.445-1.282l-0.137-1.543c0,0-1.402,0.758-1.402,2.324
				c0,1.566,0.116,3.149,3.423,2.735L353.146,348.344z"/>
			<g>
				<path style="fill:#FCD3B9;" d="M379.112,408.529c0,0,0.824,5.496,0.519,7.762c0,0,0.188,0.3,1.841-0.072s2.13-1.449,2.13-1.449
					v-6.241H379.112z"/>
				<path style="fill:#2C253D;" d="M374.841,375.657c0.05,2.575,0.252,9.81,1.013,17.526c0.549,5.57,1.38,11.374,2.003,15.726h6.326
					c0.303-5.325,0.555-14.221-0.672-19.72c0,0,1.373-11.409,1.269-14.534c0.283-1.951,0.733-3.82,0.733-3.82
					c0.634-1.74,3.077-5.059,0.224-10.282c0,0-9.625,1.615-11.514,0.356c0,0,0.089,12.957,0.601,14.75L374.841,375.657z"/>
				<path style="fill:#FCD3B9;" d="M383.651,337.859l-0.53-2.603l1.366-3.289c1.081-2.604,0.562-5.597-1.331-7.686l0,0
					c-1.6-1.764-3.96-2.634-6.322-2.332l-2.523-0.181l-1.285,2.41c-0.266,0.486-0.163,1.091,0.25,1.461
					c0.391,0.351,0.507,0.917,0.284,1.393l-1.14,2.439l1.73,0.695c0,0-0.265,3.702,2.255,3.395c1.218-0.148,1.687-0.216,1.849-0.247
					l0.87,5.604L383.651,337.859z"/>
				<path style="fill:#DF3132;" d="M385.787,349.869c1.996-10.384-2.368-13.151-2.368-13.151c-0.415,1.808-4.295,2.201-4.295,2.201
					s-3.242,3.038-3.212,3.303c-1.154,1.163-2.636,3.06-2.226,4.831c0.432,1.866,1.464,4.069,2.111,5.343
					c-0.505,4.118-1.381,7.43-1.699,9.117c-0.619,3.289,12.474,0.284,11.859-0.526C385.342,360.178,384.439,356.882,385.787,349.869
					z"/>
				<path style="fill:#323E49;" d="M384.763,413.351c0,0-0.905-0.281-1.297,0.574c-0.392,0.855-0.982,2.162-3.653,2.02
					c-2.671-0.143-4.202,1.175-4.309,2.315c0,0,5.983,1.353,7.692-0.712l0.57-0.997l0.463,1.745l0.534-0.107V413.351z"/>
				<path style="fill:#DF3132;" d="M381.407,340.43c0,0-11.218,8.72-28.261,7.914l0.439,2.233c0,0,15.908,3.176,29.411-3.556
					L381.407,340.43z"/>
				<path style="fill:#2C253D;" d="M388.538,327.878c-0.166,0-0.327,0.023-0.486,0.049c0.499-3.078-1.485-6.255-4.072-8.069
					c-3.905-2.738-7.423-1.088-9.208,0.176c-0.239,0.169-0.434,0.378-0.604,0.602c-0.003-0.003-0.009-0.008-0.009-0.008
					s-0.006,0.016-0.016,0.04c-0.206,0.279-0.646,0.558-0.738,0.884c-0.46,0.788-0.951,1.775-1.96,1.568
					c-1.665-0.342,1.025,2.083,4.982,2.364c0.003,0,0.006,0,0.009,0c1.353,0.605,2.857,0.993,3.811,1.441
					c2.251,1.057-2.155,3.55,0.243,3.281c2.397-0.268,3.541,2.86,3.541,2.86c0.654-0.38,1.195-0.79,1.679-1.213
					c0.406,1.178,1.512,2.03,2.828,2.03c1.658,0,3.003-1.344,3.003-3.003C391.541,329.222,390.197,327.878,388.538,327.878z"/>
			</g>
		</g>
	</g>
	<g>
		
			<rect x="179.198" y="294.548" transform="matrix(0.9998 -0.0211 0.0211 0.9998 -6.1972 3.8915)" style="fill:#FCBD8D;" width="4.764" height="2.995"/>
		<path style="fill:#251E4F;" d="M183.993,297.493c0,0,3.301-0.648,5.471,0.231c0.967,0.391,1.587,1.347,1.609,2.389l0.004,0.197
			l-7.383,0.155c-0.18,0.004-0.358-0.021-0.53-0.074l-1.741-0.538l0,0c-0.308,0.422-0.796,0.677-1.318,0.688l-0.811,0.017
			l-0.062-2.965l-0.015-0.715C179.215,296.878,181.862,297.526,183.993,297.493z"/>
		<path style="fill:#251E4F;" d="M172.939,246.075c0,0-1.297,5.073,1.234,11.313c3.582,8.83,4.517,37.799,4.517,37.799l5.252-0.111
			c0,0,0.928-32.536,0.761-35.842c-0.224-4.443-0.495-8.661-0.077-13.405L172.939,246.075z"/>
		<path style="fill:#57B7CE;" d="M176.391,218.025c0,0,16.459-0.149,30.159-8.249l1.911,2.206c0,0-16.326,10.012-29.207,11.615
			L176.391,218.025z"/>
		<path style="fill:#FCBD8D;" d="M206.549,209.775c0,0,0.44-2.189,0.32-3.629c-0.12-1.44,1.801-0.263,1.12,1.749
			c0,0,0.8-2.829,3.201-1.749c2.401,1.08,0.342,4.549-2.73,5.835L206.549,209.775z"/>
		<path style="fill:#57B7CE;" d="M178.817,224.202c0,0,16.459-0.15,30.159-8.249l1.911,2.206c0,0-16.326,10.012-29.207,11.615
			L178.817,224.202z"/>
		<path style="fill:#FCBD8D;" d="M208.975,215.953c0,0,0.44-2.189,0.32-3.629c-0.12-1.44,1.8-0.263,1.12,1.749
			c0,0,0.8-2.829,3.201-1.749c2.401,1.08,0.342,4.549-2.73,5.835L208.975,215.953z"/>
		<path style="fill:#FCBD8D;" d="M181.525,223.391l-2.2-5.059c-0.231-0.532,0.147-1.129,0.726-1.148l1.964-0.719
			c2.441-0.45,0.327-3.733,0.327-3.733s3.497-0.319,2.182-1.724c-1.315-1.406-2.983-6.934-2.983-6.934s-9.599,1.266-8.375,10.889
			c1.149,9.033,0.904,9.33,0.904,9.33L181.525,223.391z"/>
		<path style="fill:#3C4454;" d="M181.541,204.073c0,0-3.542-3.103-8.404-0.435c-5.61,3.078-4.362,8.7-2.283,10.575
			c0.329,0.297,0.626,0.626,0.854,1.007c0.602,1.006,1.667,2.878,1.974,4.006l0.555-0.202c0,0-1.44-4.33,0.118-6.473
			c0,0,1.103,0.097,1.209,1.656l0.886-0.39c0,0-1.868-2.971-0.886-4.237C176.547,208.314,184.928,208.599,181.541,204.073z"/>
		<path style="fill:#57B7CE;" d="M185.07,246.391c-0.615,2.903-9.111,1.41-12.012,0.693c-3.975-0.982,2.132-5.356,1.012-13.246
			c-0.681-4.792,0-9.545,0-9.545l0.049-0.076c0.005-0.279-0.048-1.118-0.307-3.48l6.139-0.964l0.247,0.569
			C180.199,220.342,187.515,234.844,185.07,246.391z"/>
	</g>
</g>
</svg>
