<?xml version="1.0" encoding="utf-8"?>
<!-- Generator: Adobe Illustrator 27.5.0, SVG Export Plug-In . SVG Version: 6.00 Build 0)  -->
<svg version="1.1" id="Capa_1" xmlns="http://www.w3.org/2000/svg" xmlns:xlink="http://www.w3.org/1999/xlink" x="0px" y="0px"
	 viewBox="0 0 2122 2122" style="enable-background:new 0 0 2122 2122;" xml:space="preserve">
<g>
	<g>
		<g>
			<path style="fill:#A7907B;" d="M2020.881,1665.029c0,117.222-429.903,212.267-960.2,212.267
				c-530.327,0-960.239-95.045-960.239-212.267c0-117.242,429.912-212.276,960.239-212.276
				C1590.978,1452.752,2020.881,1547.787,2020.881,1665.029z"/>
			<g>
				<g>
					<g>
						<path style="fill:#00173F;" d="M1513.619,1539.378c0,40.506-61.203,40.497-61.203,0
							C1452.416,1498.93,1513.619,1498.872,1513.619,1539.378z"/>
						<path style="fill:#00173F;" d="M1888.672,1539.378c0,40.536-61.213,40.458-61.213,0
							C1827.459,1498.92,1888.672,1498.872,1888.672,1539.378z"/>
					</g>
					<path style="fill:#754C29;" d="M1916.073,590.023c-542.565,0-512.261-2.787-512.261,5.564c0,999.8-3.089,943.79,5.574,943.79
						c542.575,0,512.251,2.796,512.251-5.564C1921.637,534.55,1924.725,590.023,1916.073,590.023z"/>
					<rect x="1452.416" y="1150.011" style="fill:#915F36;" width="200.545" height="294.303"/>
					<rect x="1672.488" y="1150.011" style="fill:#915F36;" width="200.555" height="294.303"/>
					<rect x="1452.416" y="833.55" style="fill:#915F36;" width="200.545" height="294.313"/>
					<rect x="1672.488" y="833.55" style="fill:#915F36;" width="200.555" height="294.313"/>
					<path style="fill:#915F36;" d="M1873.043,623.884c-454.819,0-429.747-3.927-429.747,9.111
						c0,153.052-3.781,157.583,9.12,157.583c454.75,0,429.747,3.936,429.747-9.121
						C1882.163,628.396,1885.934,623.884,1873.043,623.884z"/>
					<path style="fill:#90AEC1;" d="M1623.904,1062.099c-19.245,0-13.672,16.682-13.672-110.694
						C1629.468,951.406,1623.904,934.723,1623.904,1062.099z"/>
					<path style="fill:#90AEC1;" d="M1718.968,1062.099c-19.245,0-13.671,16.682-13.671-110.694
						C1724.541,951.406,1718.968,934.723,1718.968,1062.099z"/>
					<path style="fill:#90AEC1;" d="M1852.765,762.583c-19.245,0-13.671,16.682-13.671-110.694
						C1858.329,651.889,1852.765,635.208,1852.765,762.583z"/>
					<path style="fill:#90AEC1;" d="M1623.904,1346.863c-19.245,0-13.672,16.682-13.672-110.694
						C1629.468,1236.169,1623.904,1219.487,1623.904,1346.863z"/>
					<path style="fill:#90AEC1;" d="M1718.968,1346.863c-19.245,0-13.671,16.682-13.671-110.694
						C1724.541,1236.169,1718.968,1219.487,1718.968,1346.863z"/>
				</g>
			</g>
			<g>
				<g>
					<g>
						<path style="fill:#00173F;" d="M994.625,1539.378c0,40.506-61.203,40.497-61.203,0
							C933.423,1498.93,994.625,1498.872,994.625,1539.378z"/>
						<path style="fill:#00173F;" d="M1369.678,1539.378c0,40.536-61.213,40.458-61.213,0
							C1308.466,1498.92,1369.678,1498.872,1369.678,1539.378z"/>
					</g>
					<path style="fill:#754C29;" d="M1397.079,590.023c-542.565,0-512.26-2.787-512.26,5.564c0,999.8-3.089,943.79,5.574,943.79
						c542.565,0,512.25,2.796,512.25-5.564C1402.643,534.55,1405.732,590.023,1397.079,590.023z"/>
					<rect x="933.423" y="1150.011" style="fill:#915F36;" width="200.544" height="294.303"/>
					<rect x="1153.495" y="1150.011" style="fill:#915F36;" width="200.554" height="294.303"/>
					<rect x="933.423" y="833.55" style="fill:#915F36;" width="200.544" height="294.313"/>
					<rect x="1153.495" y="833.55" style="fill:#915F36;" width="200.554" height="294.313"/>
					<path style="fill:#915F36;" d="M1354.049,623.884c-454.819,0-429.747-3.927-429.747,9.111
						c0,153.052-3.781,157.583,9.121,157.583c454.75,0,429.747,3.936,429.747-9.121
						C1363.169,628.396,1366.94,623.884,1354.049,623.884z"/>
					<path style="fill:#90AEC1;" d="M1104.91,1062.099c-19.245,0-13.671,16.682-13.671-110.694
						C1110.474,951.406,1104.91,934.723,1104.91,1062.099z"/>
					<path style="fill:#90AEC1;" d="M1199.974,1062.099c-19.245,0-13.671,16.682-13.671-110.694
						C1205.538,951.406,1199.974,934.723,1199.974,1062.099z"/>
					<path style="fill:#90AEC1;" d="M1333.771,762.583c-19.245,0-13.672,16.682-13.672-110.694
						C1339.335,651.889,1333.771,635.208,1333.771,762.583z"/>
					<path style="fill:#90AEC1;" d="M1104.91,1346.863c-19.245,0-13.671,16.682-13.671-110.694
						C1110.474,1236.169,1104.91,1219.487,1104.91,1346.863z"/>
					<path style="fill:#90AEC1;" d="M1199.974,1346.863c-19.245,0-13.671,16.682-13.671-110.694
						C1205.538,1236.169,1199.974,1219.487,1199.974,1346.863z"/>
				</g>
			</g>
			<g>
				<g>
					<g>
						<rect x="244.159" y="709.629" style="fill:#E9B375;" width="196.647" height="70.158"/>
					</g>
					<g>
						<rect x="233.811" y="685.492" style="fill:#BF9561;" width="217.363" height="24.136"/>
					</g>
					<rect x="308.383" y="716.108" style="fill:#715735;" width="62.275" height="22.207"/>
					<rect x="308.383" y="716.108" style="fill:#FFFFFF;" width="62.275" height="11.099"/>
				</g>
				<g>
					<g>
						<g>
							<g>
								<rect x="200.788" y="779.27" style="fill:#915F36;" width="635.894" height="49.578"/>
							</g>
							<path style="fill:none;" d="M688.026,787.825c-18.807,0-37.603,0.029-56.409,0c-7.191,0-17.52-0.634-24.01,0.745"/>
						</g>
					</g>
					<g>
						<g>
							<polyline style="fill:#754C29;" points="301.367,899.674 250.727,899.674 250.727,827.698 333.192,827.698 333.192,899.674 
								301.367,899.674 							"/>
						</g>
						<g>
							<polyline style="fill:#754C29;" points="754.939,899.674 704.288,899.674 704.288,827.698 786.763,827.698 786.763,899.674 
								754.939,899.674 							"/>
						</g>
					</g>
				</g>
				<g>
					<g>
						<rect x="498.979" y="538.16" style="fill:#00538B;" width="58.465" height="241.11"/>
					</g>
					<rect x="512.494" y="649.58" style="fill:#FFFFFF;" width="31.434" height="129.69"/>
					<path style="fill:#FFFFFF;" d="M549.151,583.919c0,11.557-9.393,20.911-20.95,20.911c-11.537,0-20.911-9.354-20.911-20.911
						c0-11.556,9.374-20.945,20.911-20.945C539.758,562.974,549.151,572.362,549.151,583.919z"/>
					<path style="fill:#E0E1E2;" d="M543.373,583.919c0,8.366-6.792,15.152-15.172,15.152c-8.361,0-15.152-6.787-15.152-15.152
						c0-8.37,6.792-15.167,15.152-15.167C536.582,568.752,543.373,575.549,543.373,583.919z"/>
				</g>
				<g>
					<g>
						<rect x="557.444" y="538.16" style="fill:#F1C130;" width="58.475" height="241.11"/>
					</g>
					<rect x="570.959" y="649.58" style="fill:#FFFFFF;" width="31.435" height="129.69"/>
					<path style="fill:#FFFFFF;" d="M607.626,583.919c0,11.557-9.383,20.911-20.94,20.911c-11.557,0-20.931-9.354-20.931-20.911
						c0-11.556,9.374-20.945,20.931-20.945C598.243,562.974,607.626,572.362,607.626,583.919z"/>
					<path style="fill:#E0E1E2;" d="M601.839,583.919c0,8.366-6.792,15.152-15.152,15.152c-8.37,0-15.172-6.787-15.172-15.152
						c0-8.37,6.802-15.167,15.172-15.167C595.046,568.752,601.839,575.549,601.839,583.919z"/>
				</g>
				<g>
					<g>
						<rect x="614.827" y="538.16" style="fill:#1B395F;" width="58.465" height="241.11"/>
					</g>
					<rect x="628.333" y="649.58" style="fill:#FFFFFF;" width="31.445" height="129.69"/>
					<path style="fill:#FFFFFF;" d="M664.98,583.919c0,11.557-9.374,20.911-20.93,20.911c-11.557,0-20.93-9.354-20.93-20.911
						c0-11.556,9.374-20.945,20.93-20.945C655.607,562.974,664.98,572.362,664.98,583.919z"/>
					<path style="fill:#E0E1E2;" d="M659.202,583.919c0,8.366-6.782,15.152-15.152,15.152c-8.361,0-15.142-6.787-15.142-15.152
						c0-8.37,6.782-15.167,15.142-15.167C652.42,568.752,659.202,575.549,659.202,583.919z"/>
				</g>
				<g>
					<g>
						<rect x="671.606" y="538.16" style="fill:#DE3A25;" width="58.475" height="241.11"/>
					</g>
					<rect x="685.112" y="649.58" style="fill:#FFFFFF;" width="31.454" height="129.69"/>
					<path style="fill:#FFFFFF;" d="M721.769,583.919c0,11.557-9.374,20.911-20.931,20.911c-11.556,0-20.93-9.354-20.93-20.911
						c0-11.556,9.374-20.945,20.93-20.945C712.396,562.974,721.769,572.362,721.769,583.919z"/>
					<path style="fill:#E0E1E2;" d="M715.991,583.919c0,8.366-6.772,15.152-15.152,15.152c-8.361,0-15.142-6.787-15.142-15.152
						c0-8.37,6.781-15.167,15.142-15.167C709.219,568.752,715.991,575.549,715.991,583.919z"/>
				</g>
			</g>
			<g>
				<g>
					<path style="fill:#ABA9AD;" d="M628.927,1290.468c-61.807,0-113.023-3.664-122.416-8.463l36.112,270.274
						c0,0,23.737,13.656,86.275,13.656c64.038,0,84.901-13.656,84.901-13.656l37.505-270.244
						C741.745,1286.824,690.607,1290.468,628.927,1290.468z"/>
				</g>
				<path style="fill:#90AEC1;" d="M751.304,1282.005c0,5.559-54.801,10.061-122.377,10.061c-67.586,0-122.368-4.502-122.368-10.061
					c0-5.564,54.782-10.061,122.368-10.061C696.503,1271.945,751.304,1276.442,751.304,1282.005z"/>
				<path style="fill:#71818D;" d="M628.927,1339.014c52.511,0,97.276-2.641,115.341-6.382l7.036-50.597
					c-9.56,4.789-60.697,8.433-122.377,8.433c-61.807,0-113.023-3.664-122.416-8.463l6.763,50.568
					C531.184,1336.344,576.191,1339.014,628.927,1339.014z"/>
				<path style="fill:#6E7A84;" d="M628.927,1339.014c-52.736,0-97.744-2.67-115.654-6.441l29.349,219.706
					c0,0,23.737,13.656,86.275,13.656c64.038,0,84.901-13.656,84.901-13.656l30.47-219.648
					C726.203,1336.373,681.438,1339.014,628.927,1339.014z"/>
				<path style="fill:#00173F;" d="M630.135,1351.964c49.783,0,92.55-2.368,112.273-5.817l1.861-13.515
					c-18.066,3.742-62.831,6.382-115.341,6.382c-52.736,0-97.744-2.67-115.654-6.441l1.735,13.037
					C533.249,1349.333,577.887,1351.964,630.135,1351.964z"/>
				<path style="fill:#00173F;" d="M672.659,1550.555c0-9.876-8.019-17.885-17.881-17.885h-51.742
					c-9.89,0-17.881,8.009-17.881,17.885l0,0c0,9.876,7.99,17.866,17.881,17.866h51.742
					C664.64,1568.421,672.659,1560.43,672.659,1550.555L672.659,1550.555z"/>
				<path style="fill:#1B395F;" d="M670.272,1557.761c0-9.393-7.562-17.014-16.906-17.014h-48.877
					c-9.335,0-16.886,7.62-16.886,17.014l0,0c0,9.369,7.551,16.984,16.886,16.984h48.877
					C662.71,1574.745,670.272,1567.13,670.272,1557.761L670.272,1557.761z"/>
			</g>
		</g>
	</g>
	<g>
		<path style="fill:#4865A2;" d="M869.16,544.821c-3.566,10.373-5.135,21.213-3.722,32.38c2.173,17.199,9.189,32.989-4.453,47.298
			c-14.314,15.02-24.204,19.883-25.276,42.416c-0.818,17.379,5.359,35.956,25.179,37.69c17.257,1.501,34.621-8.731,51.391-2.026
			c14.645,5.847,16.156,22.636,28.102,31.215c15.26,10.977,42.943,8.19,60.141,5.116c14.324-2.558,35.293,1.228,47.561-6.845
			c19.498-12.833,14.402-38.056,7.6-55.717c-8.672-22.48,4.219-42.548,9.715-64.263c6.411-25.291,0.565-48.877-10.193-71.361
			c-6.149-12.838-3.839-26.002-11.206-38.596c-7.97-13.642-14.704-25.954-28.609-34.616c-29.417-18.329-76.56-9.905-100.482,13.535
			C897.291,498.311,877.618,520.226,869.16,544.821z"/>
		<g>
			<g>
				<g>
					<path style="fill:#EAB1B8;" d="M1194.712,784.931c-6.353-4.989-22.694-22.602-18.582-33.812
						c3.459-9.403,8.322-10.348,8.302-10.334c26.153-9.827,52.657-18.699,79.512-26.368c8.497-2.431,28.014-11.673,36.56-9.505
						c10.738,2.724,17.111,19.259,22.061,27.898c-7.357-0.556-17.852,8.258-24.546,11.786c-9.422,4.955-18.952,9.695-28.638,14.07
						C1245.284,769.545,1220.251,778.135,1194.712,784.931z"/>
				</g>
			</g>
		</g>
		<g>
			<g>
				<path style="fill:#9CD4F0;" d="M1177.485,734.798c-26.621-5.457-61.651-7.795-71.902-10.811
					c-59.693-17.588-116.901-31.839-125.554-4.584c-9.822,30.87,52.258,59.605,104.282,72.399
					c45.242,11.118,77.856,9.086,126.713,11.415C1210.41,783.518,1194.615,749.38,1177.485,734.798z"/>
			</g>
		</g>
		<g>
			<g>
				<path style="fill:#EAB1B8;" d="M938.207,577.799c1.998,9.993,16.458,23.333,20.102,14.787c2.232-5.223,4.2-16.731,2.193-26.714
					c-1.988-9.987-0.312-11.274-9.423-9.457C941.968,558.243,936.209,567.812,938.207,577.799z"/>
			</g>
		</g>
		<path style="fill:#EAB1B8;" d="M956.818,611.081c1.54-20.131,60.58,17.306,60.58,17.306l-6.314,76.828
			c0,0-0.614-3.084-29.652-2.392c-17.695,0.405-32.711-0.439-31.824-16.974C950.163,675.636,956.292,618.053,956.818,611.081z"/>
		<path style="fill:#E5958A;" d="M955.941,630.506c8.351,26.992,32.331,46.446,57.432,44.448l4.024-46.567
			c0,0-59.04-37.437-60.58-17.306c-0.166,2.134-0.848,9.028-1.744,17.832C955.444,629.346,955.736,629.872,955.941,630.506z"/>
		<path style="fill:#EAB1B8;" d="M1021.432,644.883c-19.489,9.252-50.855-2.065-61.593-19.956c-6.49-10.821-8.984-21.778-8.146-33.9
			c0.935-13.656,4.921-25.817,5.973-39.527c0.458-5.915,1.062-11.859,2.738-17.569c2.689-9.135,8.195-17.477,15.63-23.698
			c7.298-6.109,16.896-7.81,25.803-10.753c7.532-2.49,16.068-5.729,24.165-5.232c5.564,0.341,8.399,4.385,12.171,8.19
			c20.462,20.643,24.448,57.5,18.64,84.905C1052.486,607.748,1041.495,635.354,1021.432,644.883z"/>
		<path style="fill:#EAB1B8;" d="M1039.234,1126.362c-1.851,38.378-13.339,63.596-21.681,85.432
			c-43.439,113.792-74.923,221.68-93.32,252.647c-20.122,33.861-79.454-27.001-79.454-27.001s81.861-339.146,100.745-360.943
			C964.389,1054.699,1040.706,1095.59,1039.234,1126.362z"/>
		<path style="fill:#3F578E;" d="M1039.234,1126.362c-1.851,38.378-13.339,63.596-21.681,85.432
			c-43.439,113.792-74.923,221.68-93.32,252.647c-20.122,33.861-84.434-13.218-84.434-13.218s72.662-350.873,91.537-372.666
			C950.212,1056.769,1040.706,1095.59,1039.234,1126.362z"/>
		<path style="fill:#EAB1B8;" d="M913.593,1510.423c0,0-15.006,48.706-132.628,193.728c-15.727,19.396-22.003-8.657-22.003-8.657
			s91.654-216.393,107.293-237.207C881.886,1437.484,913.593,1510.423,913.593,1510.423z"/>
		<path style="fill:#3F578E;" d="M872.356,1630.248c41.344-75.011,55.951-171.907,55.951-171.907s-70.84-30.981-86.47-10.173
			c-7.893,10.504-36.394,72.93-63.064,133.252C799.528,1591.733,872.142,1630.15,872.356,1630.248z"/>
		<path style="fill:#EAB1B8;" d="M1036.272,1108.686c21.496,31.849,27.381,58.938,33.773,81.422
			c33.296,117.149,50.066,207.064,53.856,242.878c4.161,39.172-57.227,41.296-57.227,41.296s-137.402-320.7-135.317-349.459
			C933.432,1096.068,1019.035,1083.156,1036.272,1108.686z"/>
		<path style="fill:#EAB1B8;" d="M1122.703,1509.474c0,0,8.4,52.077-36.998,233.197c-6.061,24.219-25.033-0.136-25.033-0.136
			s-7.785-202.152-2.397-227.609C1063.663,1489.458,1122.703,1509.474,1122.703,1509.474z"/>
		<path style="fill:#4865A2;" d="M1138.859,1672.97c14.889-111.161-7.62-225.816-7.62-225.816s-67.859,1.998-73.247,27.46
			c-3.03,14.339-26.64,141.056-27.459,198.357H1138.859z"/>
		<path style="fill:#4865A2;" d="M1121.816,1376.353c-8.955-49.963-20.667-99.425-35.06-148.096
			c-16.341-55.264-30.177-103.736-52.833-156.594c-5.827-13.574,1.871-71.23-7.006-77.111c-20.667-13.7-73.481,3.016-101.671,8.58
			c-6.714,1.326-10.982,4.745-16.78,8.39c-9.471,5.963-21.963,38.109-25.169,48.828c-8.731,29.145-2.163,65.486,13.369,90.265
			c12.424,19.829,24.146,40.097,35.566,60.536c9.812,17.549,21.954,33.213,32.019,50.859
			c22.471,39.337,37.086,82.124,53.476,124.428c5.554,14.314,40.77,82.182,40.935,92.107c0.858,52.526,47.815-22.104,63.931-26.816
			c9.287-2.708,8.741-4.429,8.186-14.426c-0.429-7.634-1.54-15.225-2.67-22.777
			C1126.191,1401.776,1124.096,1389.045,1121.816,1376.353z"/>
		<path style="fill:#EAB1B8;" d="M1031.166,1021.646c4.541-90.908,22.226-224.652,10.757-237.592
			c-20.161-22.767-21.115-72.501-35.702-90.742c-21.837-27.284-40.682-40.097-67.966-0.614
			c-9.257,13.393-20.677,93.651-22.87,103.673c-4.843,22.222-6.665,132.915-12.141,222.079L1031.166,1021.646z"/>
		<path style="fill:#BFDFF2;" d="M1031.166,1021.646c4.706-66.577,9.189-121.656,14.977-161.003
			c1.754-11.917,5.379-23.459,7.357-35.206c1.832-10.87-3.323-25.827-7.698-35.634c-4.463-10.003-9.14-20.01-13.379-30.119
			c-4.18-9.944-7.425-20.239-10.679-30.514c-1.023-3.201-6.421-26.47-9.637-26.743c-0.351-0.029-12.521-1.072-17.335-2.105
			c-8.623-1.866-16.682-5.213-24.253-9.73c-2.086-1.232-18.514-14.64-19.03-14.099c-26.553,27.931-41.754,68.297-46.012,104.131
			c-1.53,12.935,0.779,210.713-3.878,238.528L1031.166,1021.646z"/>
		<path style="fill:#9CD4F0;" d="M1019.6,900.117c1.198-40.414-0.039-81.339-11.976-120.277
			c-10.27-33.544-25.618-64.545-43.888-94.377c-5.369-4.18-11.927-9.306-12.248-8.969c-26.553,27.931-41.754,68.297-46.012,104.131
			c-1.53,12.935-29.486,251.151-34.134,278.966l127.142,24.414C1005.305,1041.856,1018.343,942.519,1019.6,900.117z"/>
		<g>
			<g>
				<g>
					<path style="fill:#EAB1B8;" d="M1012.311,968.511c-6.958-4.117-25.481-19.415-22.88-31.074
						c2.183-9.773,6.879-11.343,6.87-11.338c48.428-25.929,94.343-45.939,132.979-59.142c38.002-12.984,18.397,19.942,18.397,19.942
						C1111.322,913.125,1079.205,940.823,1012.311,968.511z"/>
				</g>
			</g>
		</g>
		<g>
			<g>
				<g>
					<path style="fill:#EAB1B8;" d="M1016.511,966.748c-2.446,2.47-32.565,15.781-38.12,3.449
						c-22.412-49.929-33.598-82.533-46.061-119.844c-16.994-50.815-18.066-112.808,13.954-117.792
						c28.248-4.4,38.519,72.604,49.393,133.885c2.319,13.023,10.095,28.195,19.527,70.124
						C1015.205,936.575,1021.422,958.757,1016.511,966.748z"/>
				</g>
			</g>
		</g>
		<g>
			<g>
				<path style="fill:#D2E6F3;" d="M1018.323,914.631c-6.987-26.261-20.511-58.65-22.382-69.169
					c-10.875-61.276-23.62-118.835-51.878-114.435c-32.01,4.98-30.051,73.344-18.309,125.627
					c10.221,45.456,26.591,73.743,46.294,118.503C989.393,965.827,1012.916,936.477,1018.323,914.631z"/>
			</g>
		</g>
		<path style="fill:#4865A2;" d="M998.445,463.013c3.235,2.115,5.72,5.345,9.491,8.97c7.581,7.274,14.811,15.269,17.91,25.549
			c1.978,6.607,2.962,14.557,3.556,21.413c1.121,12.765-3.527,24.37-13.642,32.034c-7.834,5.929-16.458,8.731-25.998,10.183
			c-4.921,0.75-11.138,2.017-15.152,5.164c-2.914,2.271-3.352,6.397-6.109,8.478c-9.442,7.123-9.413-8.088-10.29-12.965
			c0.458,2.563-0.088,0.648-1.637-5.739c-3.381-13.988-3.313-25.417-11.44-37.588c-7.133-10.689-9.939-30.134-2.456-41.388
			c8.438-12.716,32.029-16.585,45.954-16.687C992.998,460.407,995.941,461.376,998.445,463.013z"/>
		<path style="fill:#374D7E;" d="M1147.872,1758.178c-7.152-1.047-9.383-0.063-16.565-1.237c-7.064-1.154-14.032-3.63-20.453-6.821
			c-6.334-3.152-15.571-9.578-21.018-13.934c-0.692-0.545-1.374-1.008-2.075-1.422c-9.696,4.477-15.24,4.175-25.627-0.219
			c-0.984-0.409-1.627-1.018-1.978-1.72c-0.312,0.244-0.575,0.516-0.819,0.828c-1.666,2.129-1.958,5.062-2.348,7.64
			c-0.73,4.808-2.981,24.76-2.007,29.49c1.393,6.685,37.778,14.655,49.714,15.391c16.078,0.999,28.356,1.671,44.219-0.901
			C1164.398,1782.772,1160.013,1759.947,1147.872,1758.178z"/>
		<path style="fill:#374D7E;" d="M837.14,1733.901c-6.353-3.474-8.779-3.323-15.103-6.918c-6.227-3.542-11.888-8.292-16.789-13.51
			c-4.863-5.155-11.284-14.397-14.87-20.37c-0.449-0.76-0.945-1.432-1.462-2.066c-10.641,0.829-15.746-1.379-23.951-9.106
			c-0.779-0.735-1.16-1.525-1.267-2.309c-0.36,0.122-0.701,0.287-1.052,0.492c-2.299,1.413-3.586,4.068-4.853,6.348
			c-2.348,4.254-11.4,22.173-12.131,26.953c-1.023,6.748,30.334,26.874,41.267,31.717c14.724,6.529,25.997,11.435,41.763,14.539
			C844.088,1762.705,847.898,1739.777,837.14,1733.901z"/>
		<path style="fill:#4865A2;" d="M1061.451,540.28c-2.855-16.487-7.162-34.358-16.682-48.414
			c-6.762-9.992-17.344-21.505-28.472-26.339c-6.081-2.631-15.279-6.431-21.788-5.505c-8.204,16.19,7.182,39.04,14.441,53.769
			c4.921,9.987,13.457,12.506,20.706,19.561c5.525,5.369,9.326,12.107,14.003,18.163c5.008,6.48,10.894,11.113,14.431,18.723
			C1064.715,567.203,1062.426,545.931,1061.451,540.28z"/>
		<g>
			<polygon style="fill:#EA958F;" points="1300.017,720.055 1241.552,692.747 1283.969,601.995 1342.414,629.302 			"/>
			<g>
				<path style="fill:#E7736A;" d="M1477.849,263.219c-101.944-47.625-223.191-3.596-270.82,98.343
					c-47.63,101.944-3.605,223.195,98.338,270.82c101.943,47.629,223.2,3.601,270.82-98.338
					C1623.816,432.105,1579.782,310.853,1477.849,263.219z M1321.532,597.775c-82.816-38.699-118.596-137.217-79.892-220.042
					c38.694-82.826,137.207-118.601,220.042-79.907c82.816,38.704,118.596,137.222,79.903,220.047
					C1502.881,600.698,1404.367,636.469,1321.532,597.775z"/>
				<path style="fill:#E76C63;" d="M1477.849,263.219c-101.944-47.625-223.191-3.596-270.82,98.343
					c-47.63,101.944-3.605,223.195,98.338,270.82c101.943,47.629,223.2,3.601,270.82-98.338
					C1623.816,432.105,1579.782,310.853,1477.849,263.219z M1315.871,609.916c-89.539-41.831-128.204-148.325-86.382-237.85
					c41.841-89.529,148.326-128.204,237.855-86.372c89.539,41.832,128.204,148.321,86.372,237.855
					C1511.885,613.078,1405.401,651.743,1315.871,609.916z"/>
				<path style="opacity:0.5;fill:#BCD5EF;" d="M1541.575,517.873c-38.694,82.826-137.208,118.596-220.043,79.902
					c-82.816-38.699-118.596-137.217-79.892-220.042c38.694-82.826,137.207-118.601,220.042-79.907
					C1544.498,336.529,1580.279,435.048,1541.575,517.873z"/>
				<path style="opacity:0.5;fill:#80B2E0;" d="M1337.406,585.2c-82.826-38.704-118.596-137.212-79.902-220.042
					c9.725-20.804,23.22-38.645,39.298-53.072c-23.094,16.097-42.387,38.304-55.161,65.647
					c-38.704,82.825-2.923,181.344,79.892,220.042c62.022,28.975,132.843,16.2,180.745-26.825
					C1455.408,603.622,1392.889,611.125,1337.406,585.2z"/>
				<path style="opacity:0.5;fill:#FFFFFF;" d="M1245.645,525.805c7.464,14.002,16.945,26.991,28.287,38.475l282.669-102.64
					c1.344-16.088,0.273-32.141-2.982-47.673L1245.645,525.805z"/>
				<path style="opacity:0.5;fill:#FFFFFF;" d="M1543.524,382.093c-9.228-21.349-22.938-40.823-40.575-56.843
					c-47.98,17.209-95.941,34.451-143.882,51.741c-43.81,15.8-87.6,31.659-131.381,47.527c-3.391,23.854-1.452,47.839,5.242,70.362
					C1336.461,457.284,1439.993,419.691,1543.524,382.093z"/>
			</g>
			<path style="fill:#5470B4;" d="M1240.744,659.88l-129.948,278.143c-8.546,18.28-0.653,40.019,17.627,48.555l19.313,9.028
				c18.28,8.536,40.019,0.643,48.555-17.632l129.958-278.142L1240.744,659.88z"/>
			<path style="fill:#4E6AA9;" d="M1325.839,699.646c-35.089,86.055-108.355,153.504-193.548,192.359l-21.496,46.017
				c-8.546,18.28-0.653,40.019,17.627,48.555l19.313,9.028c18.28,8.541,40.019,0.643,48.555-17.632l129.958-278.147
				L1325.839,699.646z"/>
			<path style="fill:#7792CA;" d="M1183.019,824.215c-1.287,2.763-4.58,3.951-7.337,2.66l0,0c-2.758-1.286-3.956-4.57-2.67-7.327
				l68.277-146.133c1.296-2.767,4.58-3.956,7.337-2.665l0,0c2.758,1.286,3.956,4.575,2.67,7.332L1183.019,824.215z"/>
		</g>
		<path style="fill:#EAB1B8;" d="M1161.806,824.961c1.316-1.097,2.631-2.193,4.112-3.05c2.173-1.286,5.077-1.973,7.113-0.502
			c2.417,1.72,2.3,5.394,1.111,8.098c-0.702,1.637-1.696,3.143-2.933,4.429c-2.368,2.5-5.447,3.98-8.166,6.027
			c-1.413,1.062-2.349,2.183-3.177,3.328c12.823-5.242,25.881-9.705,37.34-18.154c1.978-1.452,4.258-3.069,6.655-2.553
			c2.095,0.453,3.498,2.378,4.658,4.166c2.26,3.488,4.453,7.026,6.557,10.611c2.222,3.786,4.414,8.209,3.07,12.395
			c-1.014,3.142-3.8,5.33-6.47,7.283c-11.586,8.502-23.717,18.66-37.749,22.178c-11.118,2.787-21.525,7.844-32.887,10.07
			c0,0-14.227-15.079-14.85-17.189c-0.253-0.853,1.023-3.61,3.206-6.918c0.614-3.454,4.346-14.709,4.872-15.527
			C1140.632,839.684,1152.793,832.434,1161.806,824.961z"/>
		<path style="fill:#EAB1B8;" d="M1328.022,714.588c-2.465-12.005-10.397-22.953-23.64-22.767
			c-11.099,0.166-14.285,12.224-16.058,21.067c-3.001,14.835-0.896,22.124,13.934,29.359
			C1323.267,752.493,1331.657,732.376,1328.022,714.588z"/>
	</g>
</g>
</svg>
