<svg fill="none" height="21" viewBox="0 0 29 21" width="29" xmlns="http://www.w3.org/2000/svg"><g clip-rule="evenodd" fill="#000" fill-rule="evenodd"><path d="m20.854 5.02823c-.2591-.00727-.5104-.09077-.7224-.24005-.212-.14929-.3753-.35774-.4695-.59931-.0941-.24156-.115-.50553-.06-.75891.0549-.25337.1834-.48491.3693-.66569.1858-.18079.4208-.30279.6756-.35076.2548-.04796.5181-.01977.757.08106s.4427.26982.5861.48585c.1433.21604.2199.46953.22.72881-.0053.35461-.151.69264-.4053.93992-.2542.24729-.5961.38362-.9508.37908zm2.894-2.123c-.1938-.6157-.5789-1.15354-1.0993-1.53534-.5205-.381802-1.1492-.587663-1.7947-.587663-.6454 0-1.2741.205861-1.7946.587663-.5204.3818-.9055.91964-1.0993 1.53534h-17.712053v1.60699h17.712053c.1938.6157.5789 1.15354 1.0993 1.53534.5205.3818 1.1492.58766 1.7946.58766.6455 0 1.2742-.20586 1.7947-.58766.5204-.3818.9055-.91964 1.0993-1.53534h4.722v-1.60699z"/><path d="m5.54803 11.7542c-.25946-.0071-.51108-.0905-.72338-.2398-.21231-.1493-.37587-.3579-.47025-.5997s-.11537-.5061-.06036-.7597c.055-.25368.18357-.48551.36963-.66649.18605-.18098.42133-.30309.67642-.35106s.51866-.01967.75775.08136.44309.27032.58649.48668c.14339.21635.21982.47021.21972.72971-.00553.3546-.15135.6924-.40551.9397-.25417.2472-.59596.3836-.95051.3793zm0-4.24598c-.64678-.00539-1.27797.1984-1.79949.58098-.52153.38258-.90543.92347-1.09449 1.54202h-2.406003v1.60698h2.407013c.19352.6159.57848 1.1539 1.09888 1.5358.5204.382 1.14909.588 1.79461.588.64553 0 1.27422-.206 1.79462-.588.5204-.3819.90536-.9199 1.09888-1.5358h20.02895v-1.60698h-20.02895c-.18906-.61855-.57296-1.15944-1.09449-1.54202-.52152-.38258-1.15274-.58637-1.79953-.58098z"/><path d="m14.8221 18.4772c-.2592-.0074-.5104-.0911-.7222-.2405-.2119-.1494-.375-.3579-.469-.5995s-.1148-.5055-.0597-.7588.1836-.4848.3695-.6654c.1859-.1807.4209-.3026.6757-.3505s.518-.0197.7568.0812c.2388.1008.4426.2698.5859.4858.1434.216.2198.4695.2199.7287-.0052.3548-.1511.693-.4055.9403-.2545.2473-.5967.3835-.9514.3787zm0-4.246c-.6467-.0052-1.2776.1987-1.799.5813-.5213.3826-.905.9233-1.0941 1.5417h-11.680953v1.609h11.682053c.1935.6159.5784 1.1539 1.0988 1.5359.5204.3819 1.1491.5879 1.7946.5879.6456 0 1.2743-.206 1.7947-.5879.5204-.382.9053-.92 1.0988-1.5359h10.754v-1.609h-10.754c-.1891-.6187-.5731-1.1597-1.0948-1.5423-.5218-.3826-1.1532-.5863-1.8001-.5807z"/></g></svg>