<svg width="23" height="23" viewBox="0 0 23 23" fill="none" xmlns="http://www.w3.org/2000/svg">
<path d="M7.03771 19.5086C5.6111 18.7139 4.42276 17.5524 3.59567 16.1443C2.76858 14.7362 2.33278 13.1327 2.33337 11.4997C2.33337 6.43692 6.43729 2.33301 11.5 2.33301C16.5628 2.33301 20.6667 6.43692 20.6667 11.4997C20.6673 13.1327 20.2315 14.7362 19.4044 16.1443C18.5773 17.5524 17.389 18.7139 15.9624 19.5086L15.141 17.8668C16.5444 17.064 17.6432 15.8199 18.2663 14.328C18.8895 12.8361 19.0021 11.1801 18.5868 9.61754C18.1714 8.055 17.2513 6.67352 15.9696 5.688C14.6879 4.70248 13.1164 4.16817 11.4996 4.16817C9.88278 4.16817 8.31129 4.70248 7.02957 5.688C5.74784 6.67352 4.82774 8.055 4.41238 9.61754C3.99701 11.1801 4.10968 12.8361 4.73284 14.328C5.35601 15.8199 6.45474 17.064 7.85813 17.8668L7.03771 19.5086ZM8.68037 16.2233C7.64669 15.6062 6.84402 14.667 6.39552 13.5498C5.94701 12.4326 5.87746 11.1991 6.19752 10.0385C6.51758 8.87798 7.20957 7.8545 8.16734 7.12512C9.1251 6.39574 10.2957 6.00075 11.4996 6.00075C12.7035 6.00075 13.8741 6.39574 14.8318 7.12512C15.7896 7.8545 16.4816 8.87798 16.8016 10.0385C17.1217 11.1991 17.0522 12.4326 16.6037 13.5498C16.1551 14.667 15.3525 15.6062 14.3188 16.2233L13.4956 14.576C14.1591 14.1456 14.6656 13.5121 14.9396 12.7702C15.2136 12.0283 15.2404 11.2177 15.016 10.4594C14.7915 9.70102 14.3279 9.03556 13.6942 8.56228C13.0606 8.089 12.2909 7.83329 11.5 7.83329C10.7092 7.83329 9.93948 8.089 9.30584 8.56228C8.6722 9.03556 8.20857 9.70102 7.98413 10.4594C7.75968 11.2177 7.78645 12.0283 8.06045 12.7702C8.33444 13.5121 8.84097 14.1456 9.50446 14.576L8.68037 16.2233ZM11.5 15.1663L14.25 20.6663H8.75004L11.5 15.1663Z" fill="#7C7C7C"/>
</svg>
