<svg width="24" height="24" viewBox="0 0 24 24" fill="none" xmlns="http://www.w3.org/2000/svg">
<path d="M7.07669 22C5.72982 21.9964 4.43929 21.4591 3.48775 20.5059C2.53621 19.5527 2.00123 18.2612 2 16.9143V7.07669C2.00144 5.73071 2.53677 4.44027 3.48852 3.48852C4.44027 2.53677 5.73071 2.00144 7.07669 2H16.9143C18.2613 2.00103 19.5529 2.53594 20.5061 3.48752C21.4594 4.4391 21.9966 5.72976 22 7.07669V16.9143C21.9969 18.2622 21.4601 19.554 20.507 20.507C19.554 21.4601 18.2622 21.9969 16.9143 22H7.07669ZM6.03251 11.9998C6.03243 13.1997 6.38817 14.3727 7.05474 15.3704C7.72131 16.3681 8.66877 17.1457 9.7773 17.605C10.8858 18.0642 12.1057 18.1844 13.2825 17.9504C14.4594 17.7163 15.5404 17.1386 16.3889 16.2901C17.2373 15.4417 17.8152 14.3607 18.0493 13.1839C18.2834 12.0071 18.1633 10.7872 17.7041 9.67866C17.245 8.5701 16.4674 7.62259 15.4697 6.95596C14.472 6.28932 13.2991 5.93351 12.0992 5.93351C10.4909 5.93567 8.94917 6.57548 7.81193 7.71265C6.67468 8.84982 6.03478 10.3916 6.03251 11.9998ZM17.0765 5.51958C17.076 5.80557 17.1603 6.0853 17.3189 6.32332C17.4774 6.56134 17.703 6.74696 17.9672 6.85665C18.2313 6.96635 18.522 6.99519 18.8026 6.93953C19.0831 6.88387 19.3408 6.7462 19.543 6.54397C19.7452 6.34174 19.8829 6.08404 19.9386 5.80351C19.9942 5.52298 19.9654 5.23224 19.8557 4.96812C19.746 4.704 19.5604 4.47837 19.3224 4.31981C19.0843 4.16126 18.8046 4.07691 18.5186 4.07745C18.1365 4.07858 17.7703 4.23088 17.5001 4.50109C17.2299 4.77129 17.0776 5.13745 17.0765 5.51958Z" fill="black"/>
<path d="M8.25 12.0473C8.24823 11.2779 8.47475 10.5252 8.90091 9.88464C9.32706 9.24404 9.93369 8.74427 10.644 8.44859C11.3543 8.15291 12.1364 8.0746 12.8912 8.22359C13.646 8.37257 14.3397 8.74215 14.8844 9.28554C15.4291 9.82893 15.8004 10.5217 15.9512 11.2762C16.102 12.0306 16.0255 12.8129 15.7316 13.5239C15.4376 14.2349 14.9393 14.8428 14.2997 15.2705C13.6602 15.6982 12.9081 15.9265 12.1387 15.9266C11.1095 15.9248 10.1228 15.5159 9.3942 14.789C8.66558 14.0621 8.25422 13.0764 8.25 12.0473Z" fill="black"/>
</svg>
