<svg width="23" height="23" viewBox="0 0 23 23" fill="none" xmlns="http://www.w3.org/2000/svg">
<path d="M17 16.083V20.6663H15.1666V16.083C15.1666 12.0029 17.5903 8.48842 21.0764 6.90167L21.8354 8.57001C20.3932 9.22596 19.1704 10.2832 18.3129 11.6155C17.4555 12.9477 16.9997 14.4987 17 16.083ZM7.8333 16.083V20.6663H5.99997V16.083C6.0001 14.4988 5.54422 12.9481 4.68678 11.616C3.82934 10.2839 2.60658 9.22681 1.16455 8.57092L1.92355 6.90167C3.68601 7.70329 5.18047 8.9953 6.22842 10.6234C7.27637 12.2515 7.83351 14.1468 7.8333 16.083ZM11.5 11.4997C10.2844 11.4997 9.1186 11.0168 8.25906 10.1572C7.39952 9.29771 6.91663 8.13192 6.91663 6.91634C6.91663 5.70077 7.39952 4.53498 8.25906 3.67544C9.1186 2.81589 10.2844 2.33301 11.5 2.33301C12.7155 2.33301 13.8813 2.81589 14.7409 3.67544C15.6004 4.53498 16.0833 5.70077 16.0833 6.91634C16.0833 8.13192 15.6004 9.29771 14.7409 10.1572C13.8813 11.0168 12.7155 11.4997 11.5 11.4997ZM11.5 9.66634C11.8611 9.66634 12.2187 9.59521 12.5523 9.45701C12.886 9.31881 13.1891 9.11625 13.4445 8.86088C13.6999 8.60552 13.9024 8.30237 14.0406 7.96872C14.1788 7.63508 14.25 7.27748 14.25 6.91634C14.25 6.55521 14.1788 6.19761 14.0406 5.86396C13.9024 5.53032 13.6999 5.22716 13.4445 4.9718C13.1891 4.71644 12.886 4.51387 12.5523 4.37567C12.2187 4.23747 11.8611 4.16634 11.5 4.16634C10.7706 4.16634 10.0711 4.45607 9.55542 4.9718C9.0397 5.48752 8.74997 6.187 8.74997 6.91634C8.74997 7.64569 9.0397 8.34516 9.55542 8.86088C10.0711 9.37661 10.7706 9.66634 11.5 9.66634Z" fill="#7C7C7C"/>
</svg>
