<svg width="16" height="16" viewBox="0 0 16 16" fill="none" xmlns="http://www.w3.org/2000/svg">
<path fill-rule="evenodd" clip-rule="evenodd" d="M0 6.66667C0 10.3486 2.98477 13.3333 6.66667 13.3333C8.25592 13.3333 9.71529 12.7772 10.8608 11.849C10.8797 11.8754 10.901 11.9006 10.9247 11.9243L14.7428 15.7424C14.9771 15.9767 15.357 15.9767 15.5914 15.7424C15.8257 15.5081 15.8257 15.1282 15.5914 14.8939L11.7732 11.0757C11.7541 11.0566 11.7341 11.0391 11.7132 11.0231C12.7227 9.85469 13.3333 8.33198 13.3333 6.66667C13.3333 2.98477 10.3486 0 6.66667 0C2.98477 0 0 2.98477 0 6.66667ZM1.2 6.66667C1.2 9.68582 3.64751 12.1333 6.66667 12.1333C9.68582 12.1333 12.1333 9.68582 12.1333 6.66667C12.1333 3.64751 9.68582 1.2 6.66667 1.2C3.64751 1.2 1.2 3.64751 1.2 6.66667Z" fill="black"/>
</svg>
