<svg width="16" height="14" viewBox="0 0 16 14" fill="none" xmlns="http://www.w3.org/2000/svg">
<path d="M12.5984 1.00039C12.5984 0.66902 12.3298 0.400391 11.9984 0.400391C11.6671 0.400391 11.3984 0.66902 11.3984 1.00039V11.5519L9.4227 9.57613C9.18839 9.34181 8.80849 9.34181 8.57417 9.57613C8.33986 9.81044 8.33986 10.1903 8.57417 10.4247L11.5742 13.4247C11.8085 13.659 12.1884 13.659 12.4227 13.4247L15.4227 10.4247C15.657 10.1903 15.657 9.81044 15.4227 9.57613C15.1884 9.34181 14.8085 9.34181 14.5742 9.57613L12.5984 11.5519V1.00039Z" fill="black" fill-opacity="0.95"/>
<path d="M4.59844 2.44893L6.57417 4.42467C6.80849 4.65898 7.18839 4.65898 7.4227 4.42467C7.65702 4.19035 7.65702 3.81045 7.4227 3.57614L4.4227 0.576138C4.18839 0.341824 3.80849 0.341824 3.57417 0.576138L0.574174 3.57614C0.339859 3.81045 0.339859 4.19035 0.574174 4.42467C0.808488 4.65898 1.18839 4.65898 1.4227 4.42467L3.39844 2.44893V13.0004C3.39844 13.3318 3.66707 13.6004 3.99844 13.6004C4.32981 13.6004 4.59844 13.3318 4.59844 13.0004V2.44893Z" fill="black" fill-opacity="0.95"/>
</svg>
