<svg width="24" height="24" viewBox="0 0 24 24" fill="none" xmlns="http://www.w3.org/2000/svg">
<path fill-rule="evenodd" clip-rule="evenodd" d="M7.02404 2C4.27577 2 2.04785 4.12665 2.04785 6.75V16.25C2.04785 18.8734 4.27577 21 7.02404 21H16.9764C19.7247 21 21.9526 18.8734 21.9526 16.25V6.75C21.9526 4.12665 19.7247 2 16.9764 2H7.02404ZM16.3375 7.68336C16.4253 7.73653 16.5158 7.78557 16.6088 7.83031C17.2139 8.11111 17.805 8.19661 18.0961 8.16722V10.3538C18.0961 10.3538 17.2653 10.3217 16.6487 10.1694C15.7893 9.95541 15.2384 9.62679 15.2384 9.62679C15.2384 9.62679 14.856 9.39141 14.8273 9.37538V13.8938C14.8273 14.145 14.7558 14.7734 14.5417 15.2973C14.354 15.7453 14.0857 16.1603 13.7483 16.5244C13.7483 16.5244 13.2201 17.1338 12.2923 17.5429C11.519 17.884 10.831 17.9027 10.5578 17.9101C10.5355 17.9107 10.5159 17.9112 10.4993 17.9119C10.4993 17.9119 9.22908 17.9594 8.08343 17.2348L8.07769 17.2295V17.2348C7.69035 16.9833 7.34495 16.68 7.0526 16.3347C6.69004 15.9043 6.46757 15.3937 6.41016 15.2441V15.2388C6.31887 14.9847 6.12741 14.3699 6.15611 13.7765C6.20175 12.7311 6.57866 12.0869 6.67856 11.9266C6.94107 11.487 7.28399 11.0935 7.69188 10.7636C8.15739 10.4004 8.69872 10.1309 9.28172 9.9722C9.86473 9.81346 10.4768 9.7689 11.0792 9.84133L11.0763 12.084C10.8779 12.0238 10.6704 11.9932 10.4617 11.9934C9.35912 11.9934 8.46551 12.8302 8.46551 13.8636C8.46551 14.8971 9.35912 15.7339 10.4617 15.7339C10.805 15.7343 11.1425 15.6514 11.4409 15.4934C11.7272 15.342 11.9691 15.1275 12.1454 14.8686C12.3217 14.6098 12.427 14.3146 12.4519 14.009V14.0042C12.4533 13.9978 12.4533 13.9914 12.4533 13.9852C12.4536 13.9803 12.454 13.9757 12.4543 13.9712C12.455 13.9618 12.4556 13.9529 12.4556 13.9435C12.4608 13.8318 12.4608 13.7188 12.4608 13.6045V5.0875H14.8273C14.8236 5.0875 14.7989 5.29857 14.8586 5.62479H14.8557C14.9272 6.0178 15.1213 6.57913 15.6408 7.13245C15.8485 7.34142 16.0824 7.52639 16.3375 7.68336Z" fill="black"/>
</svg>
