<svg width="180" height="3" viewBox="0 0 180 3" fill="none" xmlns="http://www.w3.org/2000/svg">
<path d="M2.68576 0.988829C1.9704 1.41805 1.33383 1.8 0 1.8V3C1.66273 3 2.52632 2.48392 3.3087 2.0145L3.31424 2.01117C4.0296 1.58195 4.66617 1.2 6 1.2C7.33383 1.2 7.9704 1.58195 8.68576 2.01117L8.6913 2.0145C9.47368 2.48392 10.3373 3 12 3C13.6627 3 14.5263 2.48392 15.3087 2.0145L15.3142 2.01117C16.0296 1.58195 16.6662 1.2 18 1.2C19.3338 1.2 19.9704 1.58195 20.6858 2.01117L20.6913 2.0145C21.4737 2.48392 22.3373 3 24 3C25.6627 3 26.5263 2.48392 27.3087 2.0145L27.3142 2.01117C28.0296 1.58195 28.6662 1.2 30 1.2C31.3338 1.2 31.9704 1.58195 32.6858 2.01117L32.6913 2.0145C33.4737 2.48392 34.3373 3 36 3C37.6627 3 38.5263 2.48392 39.3087 2.0145L39.3142 2.01117C40.0296 1.58195 40.6662 1.2 42 1.2C43.3338 1.2 43.9704 1.58195 44.6858 2.01117L44.6913 2.0145C45.4737 2.48392 46.3373 3 48 3C49.6627 3 50.5263 2.48392 51.3087 2.0145L51.3142 2.01117C52.0296 1.58195 52.6662 1.2 54 1.2C55.3338 1.2 55.9704 1.58195 56.6858 2.01117L56.6913 2.0145C57.4737 2.48392 58.3373 3 60 3C61.6627 3 62.5263 2.48392 63.3087 2.0145L63.3142 2.01117C64.0296 1.58195 64.6662 1.2 66 1.2C67.3338 1.2 67.9704 1.58195 68.6858 2.01117L68.6913 2.0145C69.4737 2.48392 70.3373 3 72 3C73.6627 3 74.5263 2.48392 75.3087 2.0145L75.3142 2.01117C76.0296 1.58195 76.6662 1.2 78 1.2C79.3338 1.2 79.9704 1.58195 80.6858 2.01117L80.6913 2.0145C81.4737 2.48392 82.3373 3 84 3C85.6627 3 86.5263 2.48392 87.3087 2.0145L87.3142 2.01117C88.0296 1.58195 88.6662 1.2 90 1.2C91.3338 1.2 91.9704 1.58195 92.6858 2.01117L92.6913 2.0145C93.4737 2.48392 94.3373 3 96 3C97.6627 3 98.5263 2.48392 99.3087 2.0145L99.3142 2.01117C100.03 1.58195 100.666 1.2 102 1.2C103.334 1.2 103.97 1.58195 104.686 2.01117L104.691 2.0145C105.474 2.48392 106.337 3 108 3C109.663 3 110.526 2.48392 111.309 2.0145L111.314 2.01117C112.03 1.58195 112.666 1.2 114 1.2C115.334 1.2 115.97 1.58195 116.686 2.01117L116.691 2.0145C117.474 2.48392 118.337 3 120 3C121.663 3 122.526 2.48392 123.309 2.0145L123.314 2.01117C124.03 1.58195 124.666 1.2 126 1.2C127.334 1.2 127.97 1.58195 128.686 2.01117L128.691 2.0145C129.474 2.48392 130.337 3 132 3C133.663 3 134.526 2.48392 135.309 2.0145L135.314 2.01117C136.03 1.58195 136.666 1.2 138 1.2C139.334 1.2 139.97 1.58195 140.686 2.01117L140.691 2.0145C141.474 2.48392 142.337 3 144 3C145.663 3 146.526 2.48392 147.309 2.0145L147.314 2.01117C148.03 1.58195 148.666 1.2 150 1.2C151.334 1.2 151.97 1.58195 152.686 2.01117L152.691 2.0145C153.474 2.48392 154.337 3 156 3C157.663 3 158.526 2.48392 159.309 2.0145L159.314 2.01117C160.03 1.58195 160.666 1.2 162 1.2C163.334 1.2 163.97 1.58195 164.686 2.01117L164.691 2.0145C165.474 2.48392 166.337 3 168 3C169.663 3 170.526 2.48392 171.309 2.0145L171.314 2.01117C172.03 1.58195 172.666 1.2 174 1.2C175.334 1.2 175.97 1.58195 176.686 2.01117L176.691 2.0145C177.474 2.48392 178.337 3 180 3V1.8C178.666 1.8 178.03 1.41805 177.314 0.988829L177.309 0.985504C176.526 0.516079 175.663 0 174 0C172.337 0 171.474 0.516079 170.691 0.985504L170.686 0.988829C169.97 1.41805 169.334 1.8 168 1.8C166.666 1.8 166.03 1.41805 165.314 0.988829L165.309 0.985504C164.526 0.516079 163.663 0 162 0C160.337 0 159.474 0.516079 158.691 0.985504L158.686 0.988829C157.97 1.41805 157.334 1.8 156 1.8C154.666 1.8 154.03 1.41805 153.314 0.988829L153.309 0.985504C152.526 0.516079 151.663 0 150 0C148.337 0 147.474 0.516079 146.691 0.985504L146.686 0.988829C145.97 1.41805 145.334 1.8 144 1.8C142.666 1.8 142.03 1.41805 141.314 0.988829L141.309 0.985504C140.526 0.516079 139.663 0 138 0C136.337 0 135.474 0.516079 134.691 0.985504L134.686 0.988829C133.97 1.41805 133.334 1.8 132 1.8C130.666 1.8 130.03 1.41805 129.314 0.988829L129.309 0.985504C128.526 0.516079 127.663 0 126 0C124.337 0 123.474 0.516079 122.691 0.985504L122.686 0.988829C121.97 1.41805 121.334 1.8 120 1.8C118.666 1.8 118.03 1.41805 117.314 0.988829L117.309 0.985504C116.526 0.516079 115.663 0 114 0C112.337 0 111.474 0.516079 110.691 0.985504L110.686 0.988829C109.97 1.41805 109.334 1.8 108 1.8C106.666 1.8 106.03 1.41805 105.314 0.988829L105.309 0.985504C104.526 0.516079 103.663 0 102 0C100.337 0 99.4737 0.516079 98.6913 0.985504L98.6858 0.988829C97.9704 1.41805 97.3338 1.8 96 1.8C94.6662 1.8 94.0296 1.41805 93.3142 0.988829L93.3087 0.985504C92.5263 0.516079 91.6627 0 90 0C88.3373 0 87.4737 0.516079 86.6913 0.985504L86.6858 0.988829C85.9704 1.41805 85.3338 1.8 84 1.8C82.6662 1.8 82.0296 1.41805 81.3142 0.988829L81.3087 0.985504C80.5263 0.516079 79.6627 0 78 0C76.3373 0 75.4737 0.516079 74.6913 0.985504L74.6858 0.988829C73.9704 1.41805 73.3338 1.8 72 1.8C70.6662 1.8 70.0296 1.41805 69.3142 0.988829L69.3087 0.985504C68.5263 0.516079 67.6627 0 66 0C64.3373 0 63.4737 0.516079 62.6913 0.985504L62.6858 0.988829C61.9704 1.41805 61.3338 1.8 60 1.8C58.6662 1.8 58.0296 1.41805 57.3142 0.988829L57.3087 0.985504C56.5263 0.516079 55.6627 0 54 0C52.3373 0 51.4737 0.516079 50.6913 0.985504L50.6858 0.988829C49.9704 1.41805 49.3338 1.8 48 1.8C46.6662 1.8 46.0296 1.41805 45.3142 0.988829L45.3087 0.985504C44.5263 0.516079 43.6627 0 42 0C40.3373 0 39.4737 0.516079 38.6913 0.985504L38.6858 0.988829C37.9704 1.41805 37.3338 1.8 36 1.8C34.6662 1.8 34.0296 1.41805 33.3142 0.988829L33.3087 0.985504C32.5263 0.516079 31.6627 0 30 0C28.3373 0 27.4737 0.516079 26.6913 0.985504L26.6858 0.988829C25.9704 1.41805 25.3338 1.8 24 1.8C22.6662 1.8 22.0296 1.41805 21.3142 0.988829L21.3087 0.985504C20.5263 0.516079 19.6627 0 18 0C16.3373 0 15.4737 0.516079 14.6913 0.985504L14.6858 0.988829C13.9704 1.41805 13.3338 1.8 12 1.8C10.6662 1.8 10.0296 1.41805 9.31424 0.988829L9.3087 0.985504C8.52632 0.516079 7.66273 0 6 0C4.33727 0 3.47368 0.516079 2.6913 0.985504L2.68576 0.988829Z" fill="black"/>
</svg>
