<svg width="86" height="4" viewBox="0 0 86 4" fill="none" xmlns="http://www.w3.org/2000/svg">
<path d="M1 1.3999C4 1.3999 4 3.3999 7 3.3999C10 3.3999 10 1.3999 13 1.3999C16 1.3999 16 3.3999 19 3.3999C22 3.3999 22 1.3999 25 1.3999C28 1.3999 28 3.3999 31 3.3999C34 3.3999 34 1.3999 37 1.3999C40 1.3999 40 3.3999 43 3.3999C46 3.3999 46 1.3999 49 1.3999C52 1.3999 52 3.3999 55 3.3999C58 3.3999 58 1.3999 61 1.3999C64 1.3999 64 3.3999 67 3.3999C70 3.3999 70 1.3999 73 1.3999C76 1.3999 76 3.3999 79 3.3999C82 3.3999 82 1.3999 85 1.3999" stroke="black" stroke-opacity="0.95" stroke-width="1.2" stroke-miterlimit="10" stroke-linecap="round"/>
</svg>
