<svg width="24" height="24" viewBox="0 0 24 24" fill="none" xmlns="http://www.w3.org/2000/svg">
<path fill-rule="evenodd" clip-rule="evenodd" d="M20.6078 4.42684C21.5502 4.69257 22.2932 5.47076 22.5469 6.45774C23.018 8.26088 22.9999 12.019 22.9999 12.019C22.9999 12.019 22.9999 15.7581 22.5469 17.5613C22.2932 18.5483 21.5502 19.3264 20.6078 19.5922C18.8862 20.0667 12 20.0667 12 20.0667C12 20.0667 5.13178 20.0667 3.39208 19.5732C2.44975 19.3075 1.70675 18.5293 1.45305 17.5423C1 15.7581 1 12 1 12C1 12 1 8.26088 1.45305 6.45774C1.70675 5.47076 2.46787 4.67358 3.39208 4.40786C5.11366 3.93335 12 3.93335 12 3.93335C12 3.93335 18.8862 3.93335 20.6078 4.42684ZM15.5337 12L9.80721 15.4544V8.54559L15.5337 12Z" fill="black"/>
</svg>
