<svg width="20" height="20" viewBox="0 0 20 20" fill="none" xmlns="http://www.w3.org/2000/svg">
<path d="M16.6667 6.66699H3.33333C2.8731 6.66699 2.5 7.04009 2.5 7.50033V9.16699C2.5 9.62723 2.8731 10.0003 3.33333 10.0003H16.6667C17.1269 10.0003 17.5 9.62723 17.5 9.16699V7.50033C17.5 7.04009 17.1269 6.66699 16.6667 6.66699Z" stroke="#9810FA" stroke-width="1.66667" stroke-linecap="round" stroke-linejoin="round"/>
<path d="M10 6.66699V17.5003" stroke="#9810FA" stroke-width="1.66667" stroke-linecap="round" stroke-linejoin="round"/>
<path d="M15.8346 10V15.8333C15.8346 16.2754 15.659 16.6993 15.3465 17.0118C15.0339 17.3244 14.61 17.5 14.168 17.5H5.83464C5.39261 17.5 4.96868 17.3244 4.65612 17.0118C4.34356 16.6993 4.16797 16.2754 4.16797 15.8333V10" stroke="#9810FA" stroke-width="1.66667" stroke-linecap="round" stroke-linejoin="round"/>
<path d="M6.2513 6.66703C5.69877 6.66703 5.16886 6.44754 4.77816 6.05684C4.38746 5.66614 4.16797 5.13623 4.16797 4.5837C4.16797 4.03116 4.38746 3.50126 4.77816 3.11056C5.16886 2.71986 5.69877 2.50036 6.2513 2.50036C7.05521 2.48636 7.84299 2.87641 8.51192 3.61966C9.18084 4.36292 9.69987 5.42487 10.0013 6.66703C10.3027 5.42487 10.8218 4.36292 11.4907 3.61966C12.1596 2.87641 12.9474 2.48636 13.7513 2.50036C14.3038 2.50036 14.8337 2.71986 15.2244 3.11056C15.6151 3.50126 15.8346 4.03116 15.8346 4.5837C15.8346 5.13623 15.6151 5.66614 15.2244 6.05684C14.8337 6.44754 14.3038 6.66703 13.7513 6.66703" stroke="#9810FA" stroke-width="1.66667" stroke-linecap="round" stroke-linejoin="round"/>
</svg>
