<svg width="23" height="22" viewBox="0 0 23 22" fill="none" xmlns="http://www.w3.org/2000/svg">
<path d="M7.93848 1.16382C8.82326 1.16382 9.70017 1.33942 10.5166 1.68042C11.3329 2.02141 12.0735 2.52095 12.6953 3.15015C13.3172 3.77946 13.8083 4.52604 14.1396 5.34644C14.471 6.16676 14.6354 7.0448 14.625 7.92944C14.6042 9.68913 13.8913 11.3701 12.6396 12.6072C11.3879 13.8442 9.69832 14.5378 7.93848 14.5378C6.17881 14.5377 4.48988 13.8441 3.23828 12.6072C1.9866 11.3701 1.27271 9.68914 1.25195 7.92944C1.24155 7.0448 1.40696 6.16676 1.73828 5.34644C2.06963 4.52604 2.56068 3.77946 3.18262 3.15015C3.80445 2.52095 4.54506 2.02141 5.36133 1.68042C6.17762 1.33948 7.05385 1.16388 7.93848 1.16382Z" fill="#8F8C00" stroke="#FFFFF0"/>
<path d="M7.48242 20.9783L12.3824 16.0783L15.8824 19.5783L21.4824 13.9783" fill="#8F8C00"/>
<path d="M7.48242 20.9783L12.3824 16.0783L15.8824 19.5783L21.4824 13.9783" stroke="#FFFFF0" stroke-width="1.5"/>
<path d="M15.982 13.9787H21.482V19.4787M13.699 12.2327C14.7 10.8899 15.2007 9.23971 15.1145 7.56708C15.0283 5.89444 14.3606 4.30444 13.2268 3.07171C12.093 1.83898 10.5642 1.04095 8.90462 0.81545C7.24502 0.589955 5.55877 0.951162 4.13715 1.83668C2.71553 2.72219 1.64782 4.07641 1.11844 5.6654C0.589066 7.25439 0.631272 8.97838 1.23777 10.5396C1.84427 12.1008 2.97697 13.4011 4.44022 14.216C5.90346 15.0309 7.60537 15.3091 9.25195 15.0027M7.93895 4.9357V2.9357V4.9357ZM7.93895 12.9357V10.9357V12.9357Z" fill="#8F8C00"/>
<path d="M15.982 13.9787H21.482V19.4787M13.699 12.2327C14.7 10.8899 15.2007 9.23971 15.1145 7.56708C15.0283 5.89444 14.3606 4.30444 13.2268 3.07171C12.093 1.83898 10.5642 1.04095 8.90462 0.81545C7.24502 0.589955 5.55877 0.951162 4.13715 1.83668C2.71553 2.72219 1.64782 4.07641 1.11844 5.6654C0.589066 7.25439 0.631272 8.97838 1.23777 10.5396C1.84427 12.1008 2.97697 13.4011 4.44022 14.216C5.90346 15.0309 7.60537 15.3091 9.25195 15.0027M7.93895 4.9357V2.9357M7.93895 12.9357V10.9357" stroke="#FFFFF0" stroke-width="1.5"/>
<path d="M10.1895 6.4353V5.9353C10.1895 5.67009 10.0841 5.41573 9.89656 5.2282C9.70902 5.04066 9.45467 4.9353 9.18945 4.9353H6.68945C6.42424 4.9353 6.16988 5.04066 5.98235 5.2282C5.79481 5.41573 5.68945 5.67009 5.68945 5.9353V6.3823C5.68926 6.60996 5.76676 6.83086 5.90913 7.00851C6.0515 7.18615 6.25022 7.3099 6.47245 7.3593L9.40545 8.0113C9.6277 8.06047 9.82653 8.18399 9.96907 8.36144C10.1116 8.5389 10.1894 8.75968 10.1895 8.9873V9.9343C10.1895 10.1995 10.0841 10.4539 9.89656 10.6414C9.70902 10.8289 9.45467 10.9343 9.18945 10.9343H6.68945C6.42424 10.9343 6.16988 10.8289 5.98235 10.6414C5.79481 10.4539 5.68945 10.1995 5.68945 9.9343V9.4343" fill="#8F8C00"/>
<path d="M10.1895 6.4353V5.9353C10.1895 5.67009 10.0841 5.41573 9.89656 5.2282C9.70902 5.04066 9.45467 4.9353 9.18945 4.9353H6.68945C6.42424 4.9353 6.16988 5.04066 5.98235 5.2282C5.79481 5.41573 5.68945 5.67009 5.68945 5.9353V6.3823C5.68926 6.60996 5.76676 6.83086 5.90913 7.00851C6.0515 7.18615 6.25022 7.3099 6.47245 7.3593L9.40545 8.0113C9.6277 8.06047 9.82653 8.18399 9.96907 8.36144C10.1116 8.5389 10.1894 8.75968 10.1895 8.9873V9.9343C10.1895 10.1995 10.0841 10.4539 9.89656 10.6414C9.70902 10.8289 9.45467 10.9343 9.18945 10.9343H6.68945C6.42424 10.9343 6.16988 10.8289 5.98235 10.6414C5.79481 10.4539 5.68945 10.1995 5.68945 9.9343V9.4343" stroke="#FFFFF0" stroke-width="1.5"/>
</svg>
