<svg width="14" height="10" viewBox="0 0 14 10" fill="none" xmlns="http://www.w3.org/2000/svg">
<path d="M6.96484 0.4646C11.4118 0.4646 13.4648 4.5696 13.4648 4.5696C13.4648 4.5696 11.4118 8.6746 6.96484 8.6746C2.51784 8.6746 0.464844 4.5696 0.464844 4.5696C0.464844 4.5696 2.51784 0.4646 6.96484 0.4646Z" stroke="black" stroke-width="0.929" stroke-linejoin="round"/>
<path d="M8.90575 4.56958C8.91171 4.83592 8.86439 5.10077 8.76658 5.34857C8.66878 5.59637 8.52245 5.82214 8.33619 6.01261C8.14993 6.20309 7.92749 6.35443 7.68193 6.45775C7.43638 6.56107 7.17266 6.6143 6.90625 6.6143C6.63984 6.6143 6.37612 6.56107 6.13057 6.45775C5.88501 6.35443 5.66257 6.20309 5.47631 6.01261C5.29005 5.82214 5.14372 5.59637 5.04592 5.34857C4.94811 5.10077 4.90079 4.83592 4.90675 4.56958C4.90675 4.03915 5.11746 3.53044 5.49254 3.15537C5.86761 2.78029 6.37632 2.56958 6.90675 2.56958C7.43718 2.56958 7.94589 2.78029 8.32096 3.15537C8.69604 3.53044 8.90675 4.03915 8.90675 4.56958H8.90575Z" stroke="black" stroke-width="0.929" stroke-linejoin="round"/>
</svg>
