<svg width="500" height="500" viewBox="0 0 500 500" fill="none" xmlns="http://www.w3.org/2000/svg">
<path d="M97.9993 388.25C185.459 433.94 327.269 433.94 414.729 388.25C502.189 342.56 502.189 268.48 414.729 222.78C327.269 177.08 185.499 177.09 97.9993 222.78C10.4993 268.47 10.5793 342.56 97.9993 388.25Z" fill="#F5F5F5"/>
<path d="M73.6195 313.32L45.1895 296.91V235.93L73.6195 252.35V313.32Z" fill="#E0E0E0"/>
<path d="M73.6191 252.35L114.239 228.9V289.87L73.6191 313.32V252.35Z" fill="#EBEBEB"/>
<path d="M114.239 228.9L73.6195 252.35L45.1895 235.93L85.8095 212.48L114.239 228.9Z" fill="#F5F5F5"/>
<path d="M77.6897 254.69L110.18 235.93L110.93 236.36V258.95L78.4297 277.71L77.6797 277.28L77.6897 254.69Z" fill="#E0E0E0"/>
<path d="M78.4297 255.13L110.93 236.36V258.95L78.4297 277.71V255.13Z" fill="#F5F5F5"/>
<path d="M91.1691 251.6L96.6991 248.41C97.4091 247.99 97.9891 248.18 97.9891 248.83C97.9376 249.229 97.7943 249.609 97.5704 249.942C97.3465 250.276 97.0482 250.552 96.6991 250.75L91.1691 253.94C90.4491 254.36 89.8691 254.17 89.8691 253.52C89.921 253.121 90.0656 252.74 90.2913 252.406C90.517 252.073 90.8177 251.797 91.1691 251.6Z" fill="#E0E0E0"/>
<path d="M76.9395 283.27L109.429 264.51V287.1L110.179 287.53L77.6795 306.29L76.9395 305.86V283.27Z" fill="#E0E0E0"/>
<path d="M77.6797 283.7L110.18 264.94V287.53L77.6797 306.29V283.7Z" fill="#F5F5F5"/>
<path d="M90.4199 280.18L95.9999 277C96.7199 276.58 97.2999 276.77 97.2999 277.42C97.2481 277.82 97.1035 278.201 96.8778 278.535C96.652 278.868 96.3514 279.144 95.9999 279.34L90.4699 282.53C89.7499 282.95 89.1699 282.76 89.1699 282.11C89.2149 281.714 89.3511 281.333 89.568 280.998C89.7849 280.663 90.0765 280.383 90.4199 280.18Z" fill="#E0E0E0"/>
<path d="M73.6195 248.83L45.1895 232.41V171.44L73.6195 187.85V248.83Z" fill="#E0E0E0"/>
<path d="M73.6191 187.85L114.239 164.4V225.38L73.6191 248.83V187.85Z" fill="#EBEBEB"/>
<path d="M114.239 164.4L73.6195 187.85L45.1895 171.44L85.8095 147.99L114.239 164.4Z" fill="#F5F5F5"/>
<path d="M77.6797 190.2L110.18 171.44L110.93 171.87V194.46L78.4297 213.22L77.6797 212.78V190.2Z" fill="#E0E0E0"/>
<path d="M91.1691 187.1L96.6891 183.91C97.4091 183.5 97.9891 183.69 97.9891 184.34C97.9358 184.739 97.7906 185.12 97.565 185.453C97.3394 185.787 97.0396 186.063 96.6891 186.26L91.1691 189.45C90.4491 189.86 89.8691 189.68 89.8691 189.03C89.9218 188.63 90.0666 188.247 90.2921 187.913C90.5177 187.578 90.8179 187.3 91.1691 187.1Z" fill="#E0E0E0"/>
<path d="M76.9395 218.78L109.429 200.02V222.6L110.179 223.03L77.6795 241.79L76.9395 241.36V218.78Z" fill="#E0E0E0"/>
<path d="M77.6797 219.21L110.18 200.45V223.03L77.6797 241.79V219.21Z" fill="#F5F5F5"/>
<path d="M90.4191 215.68L95.9991 212.49C96.7091 212.08 97.2991 212.27 97.2991 212.92C97.2429 213.318 97.0965 213.698 96.8712 214.03C96.6459 214.363 96.3477 214.64 95.9991 214.84L90.4191 218C89.6991 218.41 89.1191 218.22 89.1191 217.58C89.1761 217.185 89.323 216.808 89.5483 216.479C89.7737 216.15 90.0716 215.876 90.4191 215.68Z" fill="#E0E0E0"/>
<path d="M77.6797 190.2L110.18 171.44V194.02L77.6797 212.78V190.2Z" fill="#E0E0E0"/>
<path d="M126.429 182.6L108.639 172.33V192.23L126.429 202.49V182.6Z" fill="#E0E0E0"/>
<path d="M89.8691 216V187.85L96.8391 183.81L97.9891 185.51L118.299 173.78V199.58L89.8691 216Z" fill="#EBEBEB"/>
<path d="M89.8691 216L91.8991 191.37L120.329 174.96L118.299 199.58L89.8691 216Z" fill="#F5F5F5"/>
<path d="M93.9297 201.36L78.4297 192.41V212.31L93.9297 221.25V201.36Z" fill="#EBEBEB"/>
<path d="M93.9297 199.58L126.43 180.82V203.4L93.9297 222.16V199.58Z" fill="#F5F5F5"/>
<path d="M106.669 196.05L112.189 192.86C112.909 192.45 113.489 192.64 113.489 193.29C113.435 193.689 113.29 194.069 113.064 194.402C112.839 194.735 112.539 195.012 112.189 195.21L106.669 198.4C105.949 198.81 105.369 198.62 105.369 197.98C105.422 197.58 105.567 197.197 105.792 196.862C106.018 196.527 106.318 196.249 106.669 196.05Z" fill="#E0E0E0"/>
<path d="M93.9296 199.58L92.8496 198.96V221.54L93.9296 222.16V199.58Z" fill="#E0E0E0"/>
<path d="M92.8496 198.96L125.34 180.19L126.43 180.82L93.9296 199.58L92.8496 198.96Z" fill="#EBEBEB"/>
<path d="M409.499 276.38L381.059 259.96V198.99L409.499 215.4V276.38Z" fill="#E0E0E0"/>
<path d="M409.5 215.4L450.12 191.95V252.93L409.5 276.38V215.4Z" fill="#EBEBEB"/>
<path d="M450.119 191.95L409.499 215.4L381.059 198.99L421.689 175.53L450.119 191.95Z" fill="#F5F5F5"/>
<path d="M413.559 217.75L446.059 198.99L446.809 199.42L446.799 222L414.309 240.76L413.559 240.33V217.75Z" fill="#E0E0E0"/>
<path d="M414.309 218.18L446.809 199.42L446.799 222L414.309 240.76V218.18Z" fill="#F5F5F5"/>
<path d="M427.05 214.65L432.57 211.46C433.29 211.05 433.87 211.24 433.87 211.88C433.817 212.281 433.673 212.663 433.447 212.998C433.221 213.333 432.921 213.611 432.57 213.81L427.05 217C426.33 217.41 425.75 217.22 425.75 216.58C425.803 216.18 425.947 215.797 426.173 215.462C426.399 215.127 426.699 214.849 427.05 214.65Z" fill="#E0E0E0"/>
<path d="M412.809 246.33L445.309 227.56V250.15L446.059 250.58L413.559 269.34L412.809 268.91V246.33Z" fill="#E0E0E0"/>
<path d="M413.559 246.76L446.059 228V250.58L413.559 269.34V246.76Z" fill="#F5F5F5"/>
<path d="M426.3 243.23L431.83 240.04C432.54 239.63 433.12 239.82 433.12 240.46C433.067 240.859 432.923 241.241 432.699 241.575C432.476 241.91 432.178 242.189 431.83 242.39L426.3 245.58C425.58 245.99 425 245.8 425 245.15C425.054 244.752 425.2 244.371 425.425 244.038C425.651 243.705 425.95 243.428 426.3 243.23Z" fill="#E0E0E0"/>
<path d="M139.001 340.11C139.001 340.11 139.111 324.25 129.111 312.36C120.261 301.83 115.551 295.15 118.341 292.07C121.131 288.99 127.131 288.25 135.221 296.77C143.311 305.29 143.941 328.89 142.821 334.23L139.001 340.11Z" fill="#407BFF"/>
<path opacity="0.2" d="M139.001 340.11C139.001 340.11 139.111 324.25 129.111 312.36C120.261 301.83 115.551 295.15 118.341 292.07C121.131 288.99 127.131 288.25 135.221 296.77C143.311 305.29 143.941 328.89 142.821 334.23L139.001 340.11Z" fill="black"/>
<path d="M140.68 323.06C140.567 323.061 140.456 323.022 140.367 322.951C140.278 322.88 140.216 322.781 140.19 322.67C136.69 306.3 127.71 297.25 122.66 293.31C122.556 293.229 122.488 293.11 122.471 292.979C122.454 292.847 122.49 292.715 122.57 292.61C122.653 292.505 122.774 292.436 122.907 292.42C123.04 292.403 123.174 292.439 123.28 292.52C128.43 296.52 137.6 305.78 141.17 322.46C141.185 322.524 141.187 322.59 141.176 322.654C141.164 322.719 141.14 322.78 141.105 322.835C141.069 322.89 141.023 322.937 140.969 322.974C140.915 323.011 140.855 323.037 140.79 323.05L140.68 323.06Z" fill="white"/>
<path d="M138.621 346L134.551 348.35C134.117 347.164 133.384 346.109 132.425 345.288C131.465 344.466 130.31 343.906 129.071 343.66C124.621 342.66 120.001 342.83 116.881 338.97C113.761 335.11 117.561 330.91 116.881 328.07C116.201 325.23 115.761 324.41 110.181 321.57C104.601 318.73 102.401 314.02 106.601 310.83C110.801 307.64 117.601 309.98 121.721 312.83C125.381 315.33 128.861 315.99 132.951 316.5C137.041 317.01 143.701 319.28 142.681 328.78C142.013 334.661 140.65 340.441 138.621 346Z" fill="#407BFF"/>
<path d="M123.001 333.52C122.895 333.519 122.791 333.485 122.705 333.422C122.619 333.359 122.555 333.271 122.521 333.17C122.483 333.043 122.497 332.906 122.558 332.788C122.62 332.67 122.725 332.581 122.851 332.54C123.211 332.43 131.851 329.69 135.521 332.63C135.612 332.716 135.668 332.833 135.677 332.958C135.686 333.083 135.647 333.207 135.569 333.305C135.491 333.403 135.38 333.468 135.256 333.487C135.132 333.507 135.005 333.479 134.901 333.41C131.661 330.81 123.241 333.47 123.151 333.5L123.001 333.52Z" fill="white"/>
<path d="M139.071 345.24C138.949 345.241 138.831 345.196 138.741 345.115C138.65 345.033 138.593 344.921 138.581 344.8C136.351 323.74 110.981 313.75 110.731 313.65C110.669 313.627 110.612 313.591 110.564 313.546C110.515 313.501 110.477 313.446 110.45 313.386C110.423 313.325 110.408 313.26 110.406 313.194C110.405 313.127 110.416 313.062 110.441 313C110.49 312.879 110.584 312.781 110.703 312.727C110.822 312.673 110.957 312.667 111.081 312.71C111.351 312.82 137.281 323.02 139.571 344.71C139.585 344.841 139.546 344.973 139.464 345.076C139.381 345.179 139.262 345.245 139.131 345.26L139.071 345.24Z" fill="white"/>
<path d="M387.8 332.17C387.91 331.82 392.2 309.74 387.8 294.08C383.8 279.72 378.58 274.42 371.14 273.25C363.7 272.08 360.47 277.44 364.42 284.7C368.37 291.96 377.88 301.59 380.21 317.81C381.21 324.49 381.97 330.29 381.97 330.29L387.8 332.17Z" fill="#407BFF"/>
<path opacity="0.2" d="M387.8 332.17C387.91 331.82 392.2 309.74 387.8 294.08C383.8 279.72 378.58 274.42 371.14 273.25C363.7 272.08 360.47 277.44 364.42 284.7C368.37 291.96 377.88 301.59 380.21 317.81C381.21 324.49 381.97 330.29 381.97 330.29L387.8 332.17Z" fill="black"/>
<path d="M385.291 319.49C385.225 319.486 385.161 319.47 385.101 319.441C385.042 319.412 384.989 319.372 384.945 319.323C384.902 319.274 384.868 319.216 384.847 319.154C384.825 319.092 384.816 319.026 384.821 318.96C385.821 301.08 379.981 285.12 369.511 277.29C369.404 277.211 369.334 277.092 369.316 276.961C369.297 276.83 369.331 276.696 369.411 276.59C369.492 276.486 369.61 276.418 369.74 276.399C369.871 276.381 370.004 276.413 370.111 276.49C380.841 284.49 386.861 300.81 385.811 319.02C385.803 319.151 385.744 319.274 385.647 319.362C385.549 319.449 385.422 319.496 385.291 319.49Z" fill="white"/>
<path d="M399.311 343.67C398.741 339.56 401.101 333.4 406.711 331.94C412.321 330.48 414.821 327.26 412.801 323.74C410.781 320.22 411.251 316.99 416.341 315.53C421.431 314.07 425.891 311.53 422.961 306.15C420.831 302.26 420.361 299.74 425.581 292.08C429.911 285.72 426.371 281.99 420.951 282.69C415.531 283.39 412.181 289.85 408.791 290.93C405.401 292.01 404.621 286.25 400.151 288.83C395.681 291.41 395.951 298.02 395.811 302.63C395.671 307.24 395.371 308.28 391.331 307.72C387.291 307.16 383.331 307.82 383.421 317.59C383.491 325.97 387.961 336.35 387.961 336.35L399.311 343.67Z" fill="#407BFF"/>
<path d="M392.222 337.42H392.172C392.038 337.405 391.915 337.337 391.831 337.233C391.747 337.128 391.707 336.994 391.722 336.86C394.542 311.67 416.162 290.42 421.802 286.11C421.908 286.029 422.042 285.994 422.174 286.011C422.306 286.029 422.426 286.099 422.507 286.205C422.587 286.311 422.623 286.445 422.605 286.577C422.587 286.709 422.518 286.829 422.412 286.91C416.842 291.16 395.502 312.13 392.722 336.97C392.707 337.093 392.648 337.206 392.556 337.289C392.464 337.372 392.345 337.418 392.222 337.42Z" fill="white"/>
<path d="M402.082 310.49C401.98 310.489 401.881 310.459 401.798 310.402C401.714 310.345 401.649 310.264 401.612 310.17C401.569 310.044 401.576 309.906 401.632 309.785C401.688 309.664 401.788 309.569 401.912 309.52C409.972 306.52 419.112 307.94 419.502 308C419.631 308.022 419.747 308.094 419.823 308.201C419.9 308.308 419.932 308.44 419.912 308.57C419.887 308.699 419.815 308.814 419.709 308.892C419.603 308.97 419.472 309.005 419.342 308.99C419.252 308.99 410.072 307.55 402.262 310.46C402.204 310.48 402.143 310.49 402.082 310.49Z" fill="white"/>
<path d="M394.901 325.63C394.831 325.629 394.762 325.614 394.698 325.584C394.634 325.555 394.578 325.513 394.531 325.46C391.179 321.557 388.907 316.844 387.941 311.79C387.931 311.725 387.934 311.659 387.95 311.595C387.966 311.531 387.994 311.471 388.033 311.418C388.072 311.365 388.121 311.32 388.177 311.286C388.234 311.252 388.296 311.23 388.361 311.22C388.426 311.21 388.493 311.213 388.556 311.229C388.62 311.245 388.68 311.273 388.733 311.312C388.786 311.351 388.831 311.4 388.865 311.456C388.899 311.513 388.922 311.575 388.931 311.64C389.887 316.495 392.074 321.023 395.281 324.79C395.344 324.864 395.384 324.954 395.398 325.049C395.411 325.145 395.397 325.242 395.357 325.33C395.317 325.418 395.253 325.493 395.173 325.546C395.092 325.599 394.998 325.628 394.901 325.63Z" fill="white"/>
<path d="M138.619 191.23V346.01L297.039 254.55L297.029 113.84L179.239 181.85L175.169 170.12L138.619 191.23Z" fill="#407BFF"/>
<path opacity="0.7" d="M138.619 191.23V346.01L297.039 254.55L297.029 113.84L179.239 181.85L175.169 170.12L138.619 191.23Z" fill="black"/>
<path d="M138.619 346.01L146.739 205.3L305.159 113.84L297.039 254.55L138.619 346.01Z" fill="#E0E0E0"/>
<path d="M138.619 346.01L150.799 207.65L309.219 116.18L297.039 254.55L138.619 346.01Z" fill="#407BFF"/>
<path opacity="0.7" d="M138.619 346.01L150.799 207.65L309.219 116.18L297.039 254.55L138.619 346.01Z" fill="black"/>
<path d="M162.99 205.3V360.09L321.41 268.62V127.91L203.61 195.92L199.55 184.19L162.99 205.3Z" fill="#407BFF"/>
<path opacity="0.5" d="M162.99 205.3V360.09L321.41 268.62V127.91L203.61 195.92L199.55 184.19L162.99 205.3Z" fill="black"/>
<path d="M162.99 360.09L171.11 219.37L329.53 127.91L321.41 268.62L162.99 360.09Z" fill="#E0E0E0"/>
<path d="M162.99 360.09L175.17 221.72L333.59 130.25L321.41 268.62L162.99 360.09Z" fill="#407BFF"/>
<path opacity="0.5" d="M162.99 360.09L175.17 221.72L333.59 130.25L321.41 268.62L162.99 360.09Z" fill="black"/>
<path d="M297.001 409.34C268.561 392.92 242.181 375.07 230.141 354.13L266.741 333L297.001 409.34Z" fill="#E0E0E0"/>
<path d="M191.42 221.72V376.5L349.84 285.04V144.33L232.04 212.34L227.98 200.61L191.42 221.72Z" fill="#407BFF"/>
<path opacity="0.2" d="M191.42 221.72V376.5L349.84 285.04V144.33L232.04 212.34L227.98 200.61L191.42 221.72Z" fill="black"/>
<path d="M237.06 267.48C236.66 267.48 236.6 267.02 236.6 266.75V134.75C236.632 134.238 236.782 133.741 237.039 133.296C237.296 132.852 237.652 132.474 238.08 132.19L352.42 66.1903C352.576 66.0926 352.755 66.0375 352.94 66.0303C353.34 66.0303 353.4 66.4903 353.4 66.7603V198.76C353.368 199.274 353.218 199.773 352.961 200.219C352.705 200.665 352.348 201.045 351.92 201.33L237.58 267.33C237.422 267.423 237.243 267.475 237.06 267.48Z" fill="white"/>
<path d="M352.879 66.4902C352.887 66.5633 352.887 66.637 352.879 66.7102V198.71C352.846 199.136 352.719 199.549 352.506 199.919C352.293 200.289 352.001 200.607 351.649 200.85L237.309 266.85L237.109 266.94C237.096 266.867 237.096 266.793 237.109 266.72V134.72C237.144 134.296 237.272 133.885 237.485 133.517C237.697 133.148 237.989 132.832 238.339 132.59L352.679 66.5902C352.742 66.546 352.814 66.5154 352.889 66.5002M352.949 65.5002C352.677 65.5083 352.412 65.5876 352.179 65.7302L237.839 131.73C237.337 132.06 236.918 132.504 236.618 133.025C236.318 133.546 236.143 134.13 236.109 134.73V266.73C236.109 267.51 236.499 267.96 237.109 267.96C237.382 267.953 237.648 267.874 237.879 267.73L352.219 201.73C352.724 201.402 353.144 200.96 353.445 200.438C353.746 199.917 353.919 199.331 353.949 198.73V66.7302C353.949 65.9502 353.559 65.4902 352.949 65.5002Z" fill="#407BFF"/>
<path opacity="0.7" d="M352.879 66.4902C352.887 66.5633 352.887 66.637 352.879 66.7102V198.71C352.846 199.136 352.719 199.549 352.506 199.919C352.293 200.289 352.001 200.607 351.649 200.85L237.309 266.85L237.109 266.94C237.096 266.867 237.096 266.793 237.109 266.72V134.72C237.144 134.296 237.272 133.885 237.485 133.517C237.697 133.148 237.989 132.832 238.339 132.59L352.679 66.5902C352.742 66.546 352.814 66.5154 352.889 66.5002M352.949 65.5002C352.677 65.5083 352.412 65.5876 352.179 65.7302L237.839 131.73C237.337 132.06 236.918 132.504 236.618 133.025C236.318 133.546 236.143 134.13 236.109 134.73V266.73C236.109 267.51 236.499 267.96 237.109 267.96C237.382 267.953 237.648 267.874 237.879 267.73L352.219 201.73C352.724 201.402 353.144 200.96 353.445 200.438C353.746 199.917 353.919 199.331 353.949 198.73V66.7302C353.949 65.9502 353.559 65.4902 352.949 65.5002Z" fill="white"/>
<path d="M248.289 139.76L288.909 116.31V163.21L248.289 186.66V139.76Z" fill="#407BFF"/>
<path opacity="0.8" d="M248.289 139.76L288.909 116.31V163.21L248.289 186.66V139.76Z" fill="white"/>
<path d="M282.82 128V142.1L281.54 142.81V138.5C281.54 136.12 279.61 135.31 277.21 136.69L260 146.64C257.61 148.02 255.67 151.07 255.67 153.45V157.76L254.4 158.52V144.45L282.82 128Z" fill="white"/>
<path d="M274.999 163.9C272.919 165.1 271.229 163.84 271.229 161.07V138.5L265.999 141.34V164.09C265.999 166.85 264.309 170.09 262.229 171.26L258.449 173.44V174.94L278.759 163.21V161.72L274.999 163.9Z" fill="white"/>
<path d="M297 114C297 115.3 298.17 115.67 299.6 114.85L339.12 92.0001C339.821 91.6026 340.421 91.0482 340.872 90.3803C341.323 89.7123 341.613 88.949 341.72 88.1501C341.72 86.8601 340.55 86.4801 339.12 87.3101L299.63 110.11C298.917 110.507 298.308 111.066 297.851 111.741C297.394 112.417 297.103 113.191 297 114Z" fill="#455A64"/>
<path d="M297 128C297 129.3 298.17 129.68 299.6 128.85L339.09 106.05C339.791 105.653 340.391 105.098 340.842 104.431C341.293 103.763 341.583 102.999 341.69 102.2C341.69 100.91 340.52 100.53 339.09 101.36L299.6 124.16C298.9 124.557 298.301 125.11 297.85 125.776C297.399 126.442 297.108 127.203 297 128Z" fill="#455A64"/>
<path d="M297 142.1C297 143.4 298.17 143.78 299.6 142.95L339.09 120.15C339.79 119.754 340.389 119.201 340.84 118.535C341.291 117.868 341.582 117.107 341.69 116.31C341.69 115.01 340.52 114.63 339.09 115.46L299.6 138.26C298.9 138.656 298.301 139.209 297.85 139.875C297.399 140.542 297.108 141.303 297 142.1Z" fill="#455A64"/>
<path d="M297 156.17C297 157.47 298.17 157.85 299.6 157.02L339.09 134.22C339.79 133.824 340.389 133.271 340.84 132.605C341.291 131.939 341.582 131.177 341.69 130.38C341.69 129.08 340.52 128.7 339.09 129.53L299.6 152.33C298.9 152.727 298.301 153.28 297.85 153.946C297.399 154.612 297.108 155.373 297 156.17Z" fill="#455A64"/>
<path d="M248.289 198.39C248.289 199.69 249.449 200.07 250.889 199.24L339.119 148.24C339.82 147.845 340.42 147.293 340.871 146.626C341.322 145.96 341.612 145.198 341.719 144.4C341.719 143.1 340.549 142.73 339.119 143.55L250.889 194.55C250.188 194.945 249.588 195.497 249.136 196.164C248.685 196.83 248.395 197.592 248.289 198.39Z" fill="#455A64"/>
<path d="M248.289 212.46C248.289 213.76 249.449 214.14 250.889 213.31L339.119 162.37C339.82 161.973 340.42 161.418 340.871 160.75C341.322 160.082 341.612 159.319 341.719 158.52C341.719 157.23 340.549 156.85 339.119 157.68L250.889 208.62C250.188 209.015 249.588 209.567 249.136 210.234C248.685 210.9 248.395 211.662 248.289 212.46Z" fill="#455A64"/>
<path d="M248.289 226.54C248.289 227.83 249.449 228.21 250.889 227.38L339.119 176.44C339.82 176.043 340.42 175.488 340.871 174.82C341.322 174.152 341.612 173.389 341.719 172.59C341.719 171.3 340.549 170.92 339.119 171.75L250.889 222.69C250.186 223.086 249.586 223.64 249.134 224.308C248.683 224.976 248.394 225.74 248.289 226.54Z" fill="#455A64"/>
<path d="M191.42 376.5L219.85 252.21L378.27 160.74L349.84 285.04L191.42 376.5Z" fill="#407BFF"/>
<path d="M230.18 261.94V354.13L266.74 333.02V240.84L230.18 261.94Z" fill="#407BFF"/>
<path opacity="0.2" d="M230.18 261.94V354.13L266.74 333.02V240.84L230.18 261.94Z" fill="black"/>
<path d="M297.069 408.74C293.959 406.42 263.979 383.51 248.739 350.74C232.519 315.9 232.539 275.26 232.539 259.97V259.49L341.219 196.75C341.219 212.18 341.219 252.88 357.509 287.84C372.399 319.84 401.229 342.46 405.799 345.92L297.069 408.74Z" fill="white"/>
<path d="M340.72 197.65C340.72 213.73 341.03 253.65 357.06 288.09C371.45 318.99 398.81 341.21 404.9 345.9L297.1 408.14C292.89 404.97 264.04 382.44 249.2 350.57C233 315.83 233 275.27 233 260V259.81L340.68 197.64M341.68 195.91L232 259.24C232 273.63 231.7 315.44 248.25 350.99C264.54 385.88 297 409.34 297 409.34L406.71 346C406.71 346 374.21 322.54 357.97 287.65C341.41 252.1 341.72 210.29 341.72 195.9L341.68 195.91Z" fill="#407BFF"/>
<path opacity="0.7" d="M340.72 197.65C340.72 213.73 341.03 253.65 357.06 288.09C371.45 318.99 398.81 341.21 404.9 345.9L297.1 408.14C292.89 404.97 264.04 382.44 249.2 350.57C233 315.83 233 275.27 233 260V259.81L340.68 197.64M341.68 195.91L232 259.24C232 273.63 231.7 315.44 248.25 350.99C264.54 385.88 297 409.34 297 409.34L406.71 346C406.71 346 374.21 322.54 357.97 287.65C341.41 252.1 341.72 210.29 341.72 195.9L341.68 195.91Z" fill="white"/>
<path d="M329.309 217.15L294.629 237.15C293.935 237.532 293.344 238.076 292.905 238.736C292.466 239.396 292.193 240.152 292.109 240.94C292.159 242.21 293.369 242.57 294.799 241.74L329.489 221.74C330.175 221.362 330.761 220.825 331.198 220.174C331.634 219.524 331.909 218.778 331.999 218C331.939 216.68 330.749 216.32 329.309 217.15Z" fill="#455A64"/>
<path d="M330.049 230.8L295.369 250.8C294.683 251.169 294.102 251.706 293.679 252.359C293.256 253.013 293.005 253.763 292.949 254.54C293.059 255.77 294.319 256.1 295.749 255.27L330.439 235.27C331.122 234.903 331.699 234.368 332.118 233.715C332.536 233.062 332.781 232.314 332.829 231.54C332.729 230.3 331.489 230 330.049 230.8Z" fill="#455A64"/>
<path d="M331.44 244.07L296.75 264.07C295.32 264.9 294.28 266.55 294.45 267.74C294.62 268.93 295.93 269.24 297.37 268.41L332.06 248.41C333.49 247.58 334.51 245.94 334.33 244.75C334.15 243.56 332.87 243.24 331.44 244.07Z" fill="#455A64"/>
<path d="M333.519 256.94L298.829 276.94C297.399 277.77 296.409 279.39 296.649 280.55C296.889 281.71 298.249 281.97 299.649 281.14L334.329 261.14C335.769 260.31 336.729 258.7 336.489 257.54C336.249 256.38 334.999 256.11 333.519 256.94Z" fill="#455A64"/>
<path d="M336.34 269.38L301.65 289.38C300.22 290.21 299.29 291.79 299.65 292.9C300.01 294.01 301.38 294.26 302.81 293.43L337.5 273.43C338.94 272.6 339.84 271.03 339.5 269.91C339.16 268.79 337.77 268.55 336.34 269.38Z" fill="#455A64"/>
<path d="M340 281.37L255.46 330.18C254.03 331.01 253.16 332.55 253.55 333.62C253.94 334.69 255.43 334.89 256.86 334.06L341.4 285.25C342.84 284.42 343.67 282.89 343.28 281.81C342.89 280.73 341.38 280.54 340 281.37Z" fill="#455A64"/>
<path d="M344.45 292.82L259.92 341.63C258.48 342.46 257.69 343.96 258.17 344.98C258.65 346 260.17 346.16 261.63 345.33L346.17 296.52C347.61 295.69 348.38 294.19 347.9 293.17C347.42 292.15 345.89 292 344.45 292.82Z" fill="#455A64"/>
<path d="M350.001 303.73L265.461 352.54C264.021 353.37 263.311 354.83 263.881 355.8C264.451 356.77 266.081 356.87 267.521 356.04L352.001 307.23C353.431 306.41 354.121 304.96 353.551 303.99C352.981 303.02 351.401 302.9 350.001 303.73Z" fill="#455A64"/>
<path d="M356.47 314.05L271.94 362.85C270.5 363.68 269.86 365.11 270.51 366.02C271.16 366.93 272.87 367.02 274.31 366.18L358.84 317.37C360.28 316.54 360.9 315.13 360.25 314.21C359.6 313.29 357.91 313.22 356.47 314.05Z" fill="#455A64"/>
<path d="M363.85 323.86L279.31 372.66C277.88 373.49 277.31 374.88 278.03 375.75C278.75 376.62 280.52 376.66 281.96 375.83L366.5 327C367.93 326.17 368.5 324.8 367.76 323.93C367.02 323.06 365.29 323 363.85 323.86Z" fill="#455A64"/>
<path d="M372.001 333.2L287.491 382C286.051 382.83 285.491 384.19 286.331 385C287.171 385.81 288.951 385.83 290.381 385L374.921 336.19C376.361 335.36 376.861 334.02 376.061 333.19C375.261 332.36 373.461 332.38 372.001 333.2Z" fill="#455A64"/>
<path d="M380.999 342.13L296.459 390.93C295.029 391.76 294.559 393.09 295.459 393.88C296.359 394.67 298.199 394.64 299.639 393.81L384.109 345C385.539 344.17 385.989 342.87 385.109 342.07C384.229 341.27 382.399 341.3 380.999 342.13Z" fill="#455A64"/>
<path d="M282.06 244.44L242.18 267.44C242.62 281.89 244.27 302.73 250.31 323.72L290.2 300.72C284.15 279.73 282.5 258.88 282.06 244.44Z" fill="#407BFF"/>
<path opacity="0.8" d="M282.06 244.44L242.18 267.44C242.62 281.89 244.27 302.73 250.31 323.72L290.2 300.72C284.15 279.73 282.5 258.88 282.06 244.44Z" fill="white"/>
<path d="M258.44 264.26C258.493 263.327 258.348 262.394 258.014 261.522C257.679 260.649 257.163 259.858 256.5 259.2L242.18 267.46C242.3 271.28 242.5 275.55 242.85 280.15C244.712 280.364 246.597 280.016 248.26 279.15C253.89 276.57 258.44 269.88 258.44 264.26Z" fill="#407BFF"/>
<path opacity="0.6" d="M258.44 264.26C258.493 263.327 258.348 262.394 258.014 261.522C257.679 260.649 257.163 259.858 256.5 259.2L242.18 267.46C242.3 271.28 242.5 275.55 242.85 280.15C244.712 280.364 246.597 280.016 248.26 279.15C253.89 276.57 258.44 269.88 258.44 264.26Z" fill="white"/>
<path d="M286.81 286.92C284.15 283.57 278.74 273.22 276.43 268.71C276.34 268.532 276.198 268.385 276.022 268.288C275.847 268.192 275.647 268.15 275.448 268.168C275.249 268.187 275.059 268.264 274.905 268.391C274.75 268.518 274.637 268.688 274.58 268.88C272.081 277.423 270.631 286.237 270.26 295.13C266.93 292.486 264.067 289.302 261.79 285.71C261.693 285.571 261.559 285.463 261.402 285.398C261.245 285.332 261.073 285.313 260.906 285.343C260.739 285.372 260.584 285.449 260.459 285.564C260.334 285.678 260.244 285.826 260.2 285.99C255.84 302.78 258.03 319.3 258.03 319.3L290.2 300.72C288.86 296.08 287.75 291.46 286.81 286.92Z" fill="#407BFF"/>
<path opacity="0.6" d="M286.81 286.92C284.15 283.57 278.74 273.22 276.43 268.71C276.34 268.532 276.198 268.385 276.022 268.288C275.847 268.192 275.647 268.15 275.448 268.168C275.249 268.187 275.059 268.264 274.905 268.391C274.75 268.518 274.637 268.688 274.58 268.88C272.081 277.423 270.631 286.237 270.26 295.13C266.93 292.486 264.067 289.302 261.79 285.71C261.693 285.571 261.559 285.463 261.402 285.398C261.245 285.332 261.073 285.313 260.906 285.343C260.739 285.372 260.584 285.449 260.459 285.564C260.334 285.678 260.244 285.826 260.2 285.99C255.84 302.78 258.03 319.3 258.03 319.3L290.2 300.72C288.86 296.08 287.75 291.46 286.81 286.92Z" fill="white"/>
</svg>
