<svg width="558" height="558" viewBox="0 0 558 558" fill="none" xmlns="http://www.w3.org/2000/svg">
<path d="M558 426.758H0V427.037H558V426.758Z" fill="#EBEBEB"/>
<path d="M433.51 435.14H396.548V435.419H433.51V435.14Z" fill="#EBEBEB"/>
<path d="M337.032 444.581H287.895V444.86H337.032V444.581Z" fill="#EBEBEB"/>
<path d="M484.612 445.496H434.638V445.775H484.612V445.496Z" fill="#EBEBEB"/>
<path d="M108.118 434.86H59.918V435.139H108.118V434.86Z" fill="#EBEBEB"/>
<path d="M125.126 434.86H118.062V435.139H125.126V434.86Z" fill="#EBEBEB"/>
<path d="M252.64 439.57H148.093V439.849H252.64V439.57Z" fill="#EBEBEB"/>
<path d="M264.492 376.985H49.0038C47.3157 376.982 45.6977 376.309 44.5051 375.114C43.3124 373.92 42.6426 372.3 42.6426 370.612V67.6964C42.6573 66.018 43.3336 64.4131 44.5246 63.2305C45.7157 62.0478 47.3253 61.3828 49.0038 61.3799H264.492C266.182 61.3799 267.803 62.0513 268.998 63.2463C270.193 64.4414 270.865 66.0622 270.865 67.7522V370.612C270.865 372.302 270.193 373.923 268.998 375.118C267.803 376.313 266.182 376.985 264.492 376.985ZM49.0038 61.6031C47.3897 61.606 45.8426 62.2493 44.7023 63.3917C43.562 64.5341 42.9216 66.0823 42.9216 67.6964V370.612C42.9216 372.226 43.562 373.775 44.7023 374.917C45.8426 376.059 47.3897 376.703 49.0038 376.706H264.492C266.107 376.703 267.656 376.06 268.798 374.918C269.94 373.776 270.583 372.227 270.586 370.612V67.6964C270.583 66.0813 269.94 64.5331 268.798 63.391C267.656 62.249 266.107 61.606 264.492 61.6031H49.0038Z" fill="#EBEBEB"/>
<path d="M505.894 376.985H290.395C288.706 376.982 287.087 376.309 285.892 375.115C284.698 373.921 284.025 372.301 284.022 370.612V67.6964C284.04 66.017 284.719 64.4121 285.912 63.2298C287.105 62.0474 288.715 61.3827 290.395 61.3799H505.894C507.571 61.3857 509.178 62.052 510.366 63.2344C511.555 64.4167 512.23 66.0199 512.244 67.6964V370.612C512.244 372.299 511.576 373.916 510.386 375.11C509.196 376.305 507.581 376.979 505.894 376.985ZM290.395 61.6031C288.78 61.606 287.232 62.249 286.089 63.391C284.947 64.5331 284.304 66.0813 284.301 67.6964V370.612C284.304 372.227 284.947 373.776 286.089 374.918C287.232 376.06 288.78 376.703 290.395 376.706H505.894C507.51 376.703 509.058 376.06 510.2 374.918C511.342 373.776 511.985 372.227 511.988 370.612V67.6964C511.985 66.0813 511.342 64.5331 510.2 63.391C509.058 62.249 507.51 61.606 505.894 61.6031H290.395Z" fill="#EBEBEB"/>
<path d="M231.18 317.982H96.2666V127.023C96.2666 111.812 231.18 111.812 231.18 127.023V317.982Z" fill="#E0E0E0"/>
<path d="M228.077 317.982H93.1748V127.023C93.1748 111.812 228.088 111.812 228.077 127.023V317.982Z" fill="#EBEBEB"/>
<path d="M99.8711 308.395V130.795C99.8686 130.2 100.051 129.618 100.392 129.13C100.734 128.643 101.219 128.273 101.779 128.072C109.268 125.371 129.679 122.313 160.626 122.313C191.573 122.313 211.962 125.371 219.473 128.072C220.033 128.273 220.518 128.643 220.86 129.13C221.202 129.618 221.384 130.2 221.381 130.795V308.395C221.383 308.774 221.309 309.15 221.165 309.501C221.021 309.851 220.809 310.17 220.542 310.439C220.274 310.707 219.956 310.92 219.606 311.066C219.256 311.211 218.881 311.286 218.502 311.286H102.75C102.371 311.286 101.996 311.211 101.646 311.066C101.296 310.92 100.978 310.707 100.71 310.439C100.443 310.17 100.231 309.851 100.087 309.501C99.943 309.15 99.8697 308.774 99.8711 308.395Z" fill="#FAFAFA"/>
<path d="M128.34 123.597L107.348 311.286H138.071L159.275 122.313C147.312 122.347 136.977 122.849 128.34 123.597Z" fill="white"/>
<path d="M168.114 122.38L146.91 311.286H163.885L184.999 123.016C179.877 122.76 174.23 122.481 168.114 122.38Z" fill="white"/>
<path d="M186.606 313.763V119.423H180.714V313.763H186.606Z" fill="#EBEBEB"/>
<path d="M139.154 313.763V119.423H133.262V313.763H139.154Z" fill="#EBEBEB"/>
<path d="M140.214 313.774V119.434H139.154V313.774H140.214Z" fill="#E0E0E0"/>
<path d="M187.667 313.774V119.434H186.607V313.774H187.667Z" fill="#E0E0E0"/>
<path d="M223.546 162.244H96.3223V168.136H223.546V162.244Z" fill="#EBEBEB"/>
<path d="M224.662 316.185H87.0254V322.691H224.662V316.185Z" fill="#F5F5F5"/>
<path d="M224.662 322.691H231.18V316.185H224.662V322.691Z" fill="#E0E0E0"/>
<path d="M470.952 317.982H336.062V127.023C336.062 111.812 470.975 111.812 470.975 127.023L470.952 317.982Z" fill="#E0E0E0"/>
<path d="M467.872 317.982H332.97V127.023C332.97 111.812 467.872 111.812 467.872 127.023V317.982Z" fill="#EBEBEB"/>
<path d="M339.666 308.395V130.795C339.663 130.2 339.846 129.618 340.187 129.13C340.529 128.643 341.014 128.273 341.574 128.072C349.063 125.371 369.474 122.313 400.421 122.313C431.368 122.313 451.757 125.371 459.268 128.072C459.828 128.273 460.313 128.643 460.655 129.13C460.997 129.618 461.179 130.2 461.176 130.795V308.395C461.178 308.774 461.104 309.15 460.96 309.501C460.816 309.851 460.604 310.17 460.337 310.439C460.069 310.707 459.751 310.92 459.401 311.066C459.051 311.211 458.676 311.286 458.297 311.286H342.545C342.166 311.286 341.791 311.211 341.441 311.066C341.091 310.92 340.773 310.707 340.505 310.439C340.238 310.17 340.026 309.851 339.882 309.501C339.738 309.15 339.665 308.774 339.666 308.395Z" fill="#FAFAFA"/>
<path d="M368.179 123.597L347.143 311.286H377.866L399.07 122.313C387.107 122.347 376.772 122.849 368.179 123.597Z" fill="white"/>
<path d="M407.909 122.38L386.705 311.286H403.679L424.794 123.016C419.672 122.76 414.036 122.481 407.909 122.38Z" fill="white"/>
<path d="M426.391 313.763V119.423H420.498V313.763H426.391Z" fill="#EBEBEB"/>
<path d="M378.949 313.763V119.423H373.057V313.763H378.949Z" fill="#EBEBEB"/>
<path d="M380.009 313.774V119.434H378.949V313.774H380.009Z" fill="#E0E0E0"/>
<path d="M427.462 313.774V119.434H426.402V313.774H427.462Z" fill="#E0E0E0"/>
<path d="M463.341 162.244H336.117V168.136H463.341V162.244Z" fill="#EBEBEB"/>
<path d="M464.457 316.185H326.82V322.691H464.457V316.185Z" fill="#F5F5F5"/>
<path d="M464.457 322.691H470.975V316.185H464.457V322.691Z" fill="#E0E0E0"/>
<path d="M96.2665 86.1775H62.6191V95.6858H96.2665V86.1775Z" fill="#F0F0F0"/>
<path d="M113.096 95.6858H79.4482V105.194H113.096V95.6858Z" fill="#E6E6E6"/>
<path d="M322.278 219.16H288.631V228.668H322.278V219.16Z" fill="#F5F5F5"/>
<path d="M370.68 349.151H337.032V358.66H370.68V349.151Z" fill="#F5F5F5"/>
<path d="M99.8594 361.64H133.507V352.131H99.8594V361.64Z" fill="#E6E6E6"/>
<path d="M233.434 76.6692H199.786V86.1775H233.434V76.6692Z" fill="#F0F0F0"/>
<path d="M240.375 342.623H206.728V352.131H240.375V342.623Z" fill="#F5F5F5"/>
<path d="M487.804 337.869H454.156V347.377H487.804V337.869Z" fill="#F5F5F5"/>
<path d="M223.546 352.131H189.898V361.64H223.546V352.131Z" fill="#F0F0F0"/>
<path d="M326.82 105.205H360.468V95.697H326.82V105.205Z" fill="#F0F0F0"/>
<path d="M476.253 100.563C480.24 100.563 484.064 98.9788 486.883 96.1597C489.702 93.3405 491.286 89.517 491.286 85.5301C491.286 81.5432 489.702 77.7196 486.883 74.9005C484.064 72.0813 480.24 70.4976 476.253 70.4976H474.445V100.563H476.253Z" fill="#E0E0E0"/>
<path d="M474.445 100.563C482.747 100.563 489.477 93.8323 489.477 85.5301C489.477 77.2278 482.747 70.4976 474.445 70.4976C466.142 70.4976 459.412 77.2278 459.412 85.5301C459.412 93.8323 466.142 100.563 474.445 100.563Z" fill="#EBEBEB"/>
<path opacity="0.6" d="M471.387 81.8919C468.775 85.1618 465.26 86.7018 463.575 85.3403C461.89 83.9788 462.604 80.2067 465.215 76.9368C467.827 73.667 471.342 72.1269 473.027 73.4884C474.712 74.8499 473.998 78.6108 471.387 81.8919Z" fill="#F5F5F5"/>
<path d="M474.445 87.6394C475.61 87.6394 476.554 86.695 476.554 85.5301C476.554 84.3652 475.61 83.4209 474.445 83.4209C473.28 83.4209 472.336 84.3652 472.336 85.5301C472.336 86.695 473.28 87.6394 474.445 87.6394Z" fill="#E0E0E0"/>
<path d="M482.402 111.6H470.695C469.512 111.6 468.376 111.13 467.539 110.292C466.702 109.455 466.231 108.32 466.231 107.136C466.231 105.952 466.702 104.817 467.539 103.979C468.376 103.142 469.512 102.672 470.695 102.672H482.402C483.586 102.672 484.722 103.142 485.559 103.979C486.396 104.817 486.866 105.952 486.866 107.136C486.866 108.32 486.396 109.455 485.559 110.292C484.722 111.13 483.586 111.6 482.402 111.6Z" fill="#E0E0E0"/>
<path d="M480.293 111.6H468.586C467.402 111.6 466.267 111.13 465.43 110.292C464.592 109.455 464.122 108.32 464.122 107.136C464.122 105.952 464.592 104.817 465.43 103.979C466.267 103.142 467.402 102.672 468.586 102.672H480.293C481.477 102.672 482.612 103.142 483.449 103.979C484.287 104.817 484.757 105.952 484.757 107.136C484.757 108.32 484.287 109.455 483.449 110.292C482.612 111.13 481.477 111.6 480.293 111.6Z" fill="#F5F5F5"/>
<path d="M485.862 106.366L485.46 105.183C486.318 104.911 487.114 104.473 487.803 103.894C488.492 103.314 489.06 102.605 489.475 101.806C489.889 101.007 490.142 100.134 490.219 99.2367C490.296 98.3398 490.196 97.4366 489.924 96.5785L491.107 96.2102C491.753 98.2525 491.563 100.467 490.58 102.371C489.597 104.274 487.901 105.71 485.862 106.366Z" fill="#E0E0E0"/>
<path d="M491.14 98.2078C490.838 98.2992 490.513 98.2686 490.233 98.1225C489.953 97.9765 489.742 97.7266 489.645 97.4266L489.221 96.0874C489.129 95.7855 489.16 95.4598 489.306 95.1802C489.452 94.9006 489.702 94.6894 490.002 94.592C490.151 94.5437 490.309 94.5256 490.465 94.5389C490.622 94.5521 490.774 94.5964 490.913 94.6691C491.052 94.7418 491.176 94.8415 491.276 94.9624C491.376 95.0833 491.452 95.2229 491.497 95.3732L491.921 96.7124C492.016 97.0143 491.987 97.3413 491.84 97.6217C491.694 97.902 491.442 98.1129 491.14 98.2078Z" fill="#E0E0E0"/>
<path d="M279 477.157C398.504 477.157 495.382 471.501 495.382 464.524C495.382 457.547 398.504 451.891 279 451.891C159.496 451.891 62.6191 457.547 62.6191 464.524C62.6191 471.501 159.496 477.157 279 477.157Z" fill="#F5F5F5"/>
<path d="M116.812 115.93C116.701 115.931 116.591 115.9 116.496 115.84C116.401 115.781 116.325 115.696 116.277 115.595C115.317 113.598 116.478 112.024 117.694 110.35C119.446 107.951 121.622 104.971 119.323 99.1902C115.261 88.8337 118.509 82.8073 118.654 82.5618C118.737 82.4383 118.864 82.3506 119.009 82.3164C119.153 82.2821 119.306 82.3038 119.436 82.3771C119.565 82.4504 119.662 82.5698 119.708 82.7116C119.753 82.8535 119.744 83.0072 119.681 83.1421C119.681 83.1979 116.578 88.9565 120.428 98.7661C122.962 105.205 120.428 108.609 118.643 111.042C117.359 112.805 116.723 113.787 117.337 115.082C117.371 115.152 117.391 115.229 117.395 115.307C117.4 115.385 117.388 115.463 117.363 115.536C117.337 115.61 117.296 115.678 117.244 115.736C117.192 115.794 117.129 115.841 117.058 115.874C116.98 115.909 116.897 115.928 116.812 115.93Z" fill="#407BFF"/>
<path d="M119.2 84.4589C118.871 84.4611 118.547 84.3652 118.272 84.1834C117.997 84.0015 117.782 83.7419 117.655 83.4376C117.528 83.1333 117.494 82.7981 117.558 82.4745C117.622 82.1509 117.78 81.8536 118.013 81.6203C118.247 81.3871 118.544 81.2285 118.868 81.1647C119.191 81.1009 119.526 81.1348 119.831 81.262C120.135 81.3893 120.395 81.6041 120.576 81.8793C120.758 82.1544 120.854 82.4774 120.852 82.8073C120.849 83.2444 120.674 83.6628 120.365 83.9719C120.056 84.2811 119.637 84.456 119.2 84.4589ZM119.2 82.3274C119.132 82.3169 119.062 82.3213 118.996 82.3403C118.929 82.3593 118.867 82.3924 118.815 82.4375C118.762 82.4825 118.72 82.5384 118.691 82.6013C118.662 82.6641 118.647 82.7325 118.647 82.8017C118.647 82.8709 118.662 82.9392 118.691 83.0021C118.72 83.065 118.762 83.1208 118.815 83.1659C118.867 83.2109 118.929 83.2441 118.996 83.2631C119.062 83.2821 119.132 83.2865 119.2 83.276C119.314 83.2586 119.417 83.2011 119.492 83.1141C119.566 83.0271 119.607 82.9163 119.607 82.8017C119.607 82.6871 119.566 82.5762 119.492 82.4892C119.417 82.4022 119.314 82.3448 119.2 82.3274Z" fill="#407BFF"/>
<path d="M137.949 105.529L138.507 106.455L83.2094 140.237L82.6514 139.31L105.061 113.843L137.949 105.529Z" fill="#263238"/>
<path d="M138.507 106.455L116.098 131.922L83.209 140.237L105.618 114.77L138.507 106.455Z" fill="#00B34F"/>
<path d="M134.401 126.164C122.824 131.234 111.989 137.853 102.193 145.839C102.057 145.959 101.897 146.048 101.724 146.101C101.551 146.154 101.368 146.169 101.189 146.146C101.009 146.123 100.837 146.061 100.683 145.966C100.529 145.871 100.397 145.744 100.296 145.593L94.3809 135.906C94.2314 135.643 94.1819 135.334 94.2413 135.037C94.3007 134.74 94.4652 134.474 94.7045 134.288C104.672 126.108 115.725 119.347 127.548 114.2C127.822 114.07 128.133 114.044 128.425 114.126C128.716 114.208 128.968 114.393 129.133 114.647L135.048 124.334C135.141 124.493 135.198 124.671 135.216 124.855C135.233 125.039 135.21 125.224 135.148 125.399C135.087 125.573 134.988 125.731 134.859 125.864C134.73 125.996 134.573 126.098 134.401 126.164Z" fill="#407BFF"/>
<path opacity="0.3" d="M134.401 126.164C122.824 131.234 111.989 137.853 102.193 145.839C102.057 145.959 101.897 146.048 101.724 146.101C101.551 146.154 101.368 146.169 101.189 146.146C101.009 146.123 100.837 146.061 100.683 145.966C100.529 145.871 100.397 145.744 100.296 145.593L94.3809 135.906C94.2314 135.643 94.1819 135.334 94.2413 135.037C94.3007 134.74 94.4652 134.474 94.7045 134.288C104.672 126.108 115.725 119.347 127.548 114.2C127.822 114.07 128.133 114.044 128.425 114.126C128.716 114.208 128.968 114.393 129.133 114.647L135.048 124.334C135.141 124.493 135.198 124.671 135.216 124.855C135.233 125.039 135.21 125.224 135.148 125.399C135.087 125.573 134.988 125.731 134.859 125.864C134.73 125.996 134.573 126.098 134.401 126.164Z" fill="#263238"/>
<path d="M444.604 223.579C444.476 223.579 444.35 223.551 444.235 223.497C444.119 223.443 444.016 223.364 443.934 223.267C441.858 220.812 442.818 218.156 443.822 215.355C445.329 211.158 447.025 206.427 440.151 199.864C426.558 186.941 434.984 174.196 435.073 174.129C435.206 173.938 435.409 173.806 435.639 173.762C435.868 173.718 436.106 173.766 436.301 173.895C436.493 174.03 436.626 174.236 436.669 174.467C436.713 174.698 436.665 174.938 436.535 175.134C436.211 175.591 428.89 186.718 441.367 198.57C449.09 205.902 447.003 211.705 445.485 215.946C444.459 218.814 443.934 220.51 445.284 222.106C445.36 222.195 445.417 222.299 445.452 222.41C445.487 222.521 445.5 222.638 445.49 222.755C445.479 222.871 445.446 222.984 445.392 223.087C445.337 223.19 445.263 223.282 445.173 223.356C445.018 223.5 444.815 223.579 444.604 223.579Z" fill="#407BFF"/>
<path d="M435.843 177.098C435.38 177.098 434.926 176.968 434.533 176.722C434.14 176.477 433.824 176.127 433.62 175.711C433.416 175.295 433.333 174.831 433.38 174.37C433.427 173.91 433.602 173.471 433.885 173.105C434.168 172.739 434.548 172.459 434.983 172.298C435.417 172.137 435.887 172.101 436.341 172.193C436.795 172.286 437.213 172.504 437.549 172.823C437.885 173.141 438.125 173.548 438.242 173.996C438.405 174.632 438.31 175.307 437.978 175.873C437.646 176.44 437.103 176.852 436.468 177.02C436.264 177.073 436.054 177.099 435.843 177.098ZM435.843 173.906H435.664C435.572 173.928 435.485 173.968 435.41 174.026C435.335 174.084 435.273 174.157 435.229 174.241C435.18 174.32 435.148 174.409 435.134 174.501C435.121 174.593 435.126 174.687 435.151 174.777C435.174 174.868 435.215 174.953 435.272 175.028C435.328 175.103 435.399 175.166 435.48 175.214C435.56 175.262 435.65 175.293 435.743 175.306C435.836 175.319 435.93 175.314 436.021 175.29C436.203 175.24 436.359 175.122 436.454 174.959C436.55 174.797 436.579 174.603 436.535 174.42C436.484 174.236 436.364 174.08 436.2 173.984C436.09 173.927 435.967 173.9 435.843 173.906Z" fill="#407BFF"/>
<path d="M477.034 267.929L475.907 268.8L423.823 200.925L424.95 200.054L461.522 225.912L477.034 267.929Z" fill="#263238"/>
<path d="M475.907 268.8L439.336 242.942L423.823 200.925L460.395 226.783L475.907 268.8Z" fill="#00B34F"/>
<path d="M449.458 266.155C441.18 251.672 430.977 238.378 419.126 226.637C418.949 226.475 418.809 226.277 418.714 226.057C418.62 225.836 418.574 225.598 418.58 225.358C418.585 225.118 418.641 224.882 418.745 224.666C418.849 224.45 418.998 224.258 419.181 224.104L431.067 214.986C431.39 214.753 431.787 214.644 432.185 214.678C432.582 214.713 432.954 214.89 433.232 215.176C445.354 227.121 455.765 240.686 464.167 255.486C464.376 255.829 464.454 256.236 464.387 256.632C464.319 257.028 464.11 257.386 463.799 257.64L451.914 266.724C451.72 266.864 451.499 266.96 451.265 267.007C451.031 267.054 450.789 267.051 450.557 266.997C450.324 266.943 450.106 266.84 449.917 266.695C449.727 266.549 449.571 266.365 449.458 266.155Z" fill="#407BFF"/>
<path opacity="0.3" d="M449.458 266.155C441.18 251.672 430.977 238.378 419.126 226.637C418.949 226.475 418.809 226.277 418.714 226.057C418.62 225.836 418.574 225.598 418.58 225.358C418.585 225.118 418.641 224.882 418.745 224.666C418.849 224.45 418.998 224.258 419.181 224.104L431.067 214.986C431.39 214.753 431.787 214.644 432.185 214.678C432.582 214.713 432.954 214.89 433.232 215.176C445.354 227.121 455.765 240.686 464.167 255.486C464.376 255.829 464.454 256.236 464.387 256.632C464.319 257.028 464.11 257.386 463.799 257.64L451.914 266.724C451.72 266.864 451.499 266.96 451.265 267.007C451.031 267.054 450.789 267.051 450.557 266.997C450.324 266.943 450.106 266.84 449.917 266.695C449.727 266.549 449.571 266.365 449.458 266.155Z" fill="#263238"/>
<path d="M135.215 244.75C142.354 247.716 149.862 249.699 157.535 250.643C157.645 250.653 157.751 250.686 157.846 250.74C157.942 250.794 158.026 250.868 158.091 250.957C158.156 251.045 158.202 251.146 158.226 251.254C158.249 251.361 158.249 251.472 158.227 251.58L156.453 258.276C156.401 258.454 156.286 258.607 156.131 258.708C155.975 258.808 155.788 258.849 155.604 258.823C147.764 257.878 140.091 255.854 132.805 252.808C132.631 252.742 132.487 252.615 132.4 252.45C132.314 252.286 132.291 252.095 132.336 251.915L134.11 245.219C134.142 245.108 134.197 245.006 134.274 244.919C134.35 244.833 134.444 244.765 134.55 244.72C134.656 244.675 134.771 244.654 134.886 244.659C135.001 244.665 135.114 244.696 135.215 244.75Z" fill="#144394"/>
<path d="M127.515 242.127L127.693 241.491L165.927 251.613L165.76 252.249L145.069 253.12L127.515 242.127Z" fill="#263238"/>
<path d="M127.693 241.491L148.373 240.621L165.928 251.613L145.237 252.484L127.693 241.491Z" fill="#407BFF"/>
<g opacity="0.4">
<path d="M127.693 241.491L148.373 240.621L165.928 251.613L145.237 252.484L127.693 241.491Z" fill="#263238"/>
</g>
<path d="M147.87 246.859C147.819 246.875 147.765 246.875 147.714 246.859C147.643 246.817 147.592 246.749 147.571 246.67C147.55 246.591 147.561 246.506 147.602 246.435C147.982 245.777 147.691 245.23 147.078 244.203C146.366 243.265 145.947 242.137 145.874 240.962C145.801 239.787 146.076 238.616 146.665 237.596C149.131 232.563 147.781 229.405 147.781 229.372C147.747 229.296 147.744 229.21 147.773 229.133C147.803 229.055 147.861 228.993 147.937 228.959C147.974 228.94 148.015 228.93 148.056 228.928C148.097 228.926 148.139 228.932 148.177 228.947C148.216 228.961 148.251 228.984 148.281 229.013C148.311 229.042 148.334 229.076 148.35 229.115C148.417 229.249 149.879 232.574 147.29 237.875C146.744 238.797 146.488 239.862 146.556 240.93C146.624 241.999 147.012 243.023 147.669 243.868C148.249 244.806 148.785 245.687 148.194 246.703C148.164 246.76 148.116 246.807 148.058 246.835C147.999 246.863 147.934 246.871 147.87 246.859Z" fill="#407BFF"/>
<path d="M147.993 230.119H147.926C147.692 230.096 147.477 229.984 147.323 229.807C147.25 229.719 147.194 229.618 147.16 229.509C147.125 229.4 147.112 229.285 147.122 229.171C147.129 229.055 147.16 228.942 147.212 228.839C147.263 228.735 147.336 228.643 147.424 228.568C147.605 228.42 147.837 228.348 148.071 228.367C148.185 228.374 148.297 228.404 148.398 228.456C148.5 228.508 148.59 228.58 148.663 228.668C148.771 228.797 148.84 228.953 148.863 229.119C148.885 229.286 148.86 229.455 148.79 229.607C148.719 229.759 148.607 229.889 148.466 229.979C148.325 230.07 148.161 230.119 147.993 230.119ZM147.993 229.003C147.964 229.002 147.936 229.006 147.909 229.015C147.882 229.025 147.858 229.04 147.837 229.059C147.81 229.078 147.788 229.103 147.772 229.132C147.757 229.161 147.748 229.194 147.747 229.226C147.741 229.293 147.761 229.359 147.803 229.411C147.844 229.463 147.904 229.497 147.971 229.505C148.004 229.509 148.038 229.505 148.071 229.495C148.103 229.485 148.133 229.468 148.159 229.446C148.185 229.425 148.206 229.398 148.222 229.368C148.237 229.338 148.247 229.305 148.25 229.271C148.253 229.205 148.23 229.14 148.186 229.09C148.143 229.04 148.081 229.009 148.015 229.003H147.993Z" fill="#407BFF"/>
<path d="M277.628 135.214C269.559 132.982 265.039 145.683 262.874 156.307C262.364 159.263 260.987 162.002 258.919 164.175C256.851 166.349 254.184 167.859 251.257 168.516C251.257 168.516 279.681 187.008 300.863 176.785C317.916 168.549 312.469 149.075 304.791 140.114C297.113 131.152 282.549 127.503 277.628 135.214Z" fill="#263238"/>
<path d="M293.352 454.569L283.71 455.518L273.677 432.573L283.319 431.635L293.352 454.569Z" fill="#FF8B7B"/>
<path d="M354.475 426.289L346.696 432.45L332.557 414.025L340.346 407.864L354.475 426.289Z" fill="#FF8B7B"/>
<path d="M343.639 428.923L349.877 419.616C349.983 419.453 350.144 419.334 350.33 419.28C350.517 419.227 350.717 419.243 350.893 419.326L358.972 423.209C359.172 423.315 359.347 423.461 359.486 423.639C359.626 423.816 359.726 424.021 359.781 424.24C359.835 424.459 359.843 424.687 359.804 424.91C359.765 425.132 359.679 425.344 359.553 425.531C357.321 428.734 356.082 430.173 353.337 434.269C351.651 436.791 348.281 442.605 345.949 446.087C343.616 449.569 340.056 447.438 340.715 445.786C343.672 438.353 343.594 434.068 343.215 430.653C343.149 430.045 343.299 429.432 343.639 428.923Z" fill="#263238"/>
<path d="M282.426 452.538H294.267C294.48 452.542 294.687 452.615 294.856 452.745C295.024 452.876 295.147 453.058 295.204 453.263L297.771 462.627C297.834 462.847 297.844 463.08 297.801 463.306C297.757 463.531 297.662 463.743 297.522 463.926C297.382 464.108 297.202 464.255 296.995 464.355C296.788 464.455 296.561 464.505 296.331 464.501C292.158 464.501 290.182 464.501 284.982 464.501H269.068C264.737 464.501 263.833 460.138 265.63 459.736C273.654 457.962 278.275 455.506 280.752 453.174C281.208 452.756 281.807 452.528 282.426 452.538Z" fill="#263238"/>
<path opacity="0.2" d="M273.688 432.584L278.856 444.402H288.911L283.331 431.635L273.688 432.584Z" fill="black"/>
<path opacity="0.2" d="M340.347 407.864L332.568 414.036L339.856 423.533L347.634 417.361L340.347 407.864Z" fill="black"/>
<path d="M264.492 249.236C264.492 249.236 245.788 308.317 251.312 351.54C255.006 380.478 274.536 440.976 274.536 440.976L291.756 440.541C291.756 440.541 277.806 379.083 276.367 355.089C273.9 314.053 294.223 249.169 294.223 249.169L264.492 249.236Z" fill="#407BFF"/>
<path d="M272.07 441.869L293.352 441.333L292.113 434.793H270.552L272.07 441.869Z" fill="#263238"/>
<path d="M273.309 249.337C273.309 249.337 275.931 313.875 290.316 350.19C301.923 379.529 335.86 422.73 335.86 422.73L346.228 413.701C346.228 413.701 324.689 368.012 315.873 348.438C294.245 300.45 318.016 267.17 304.992 249.114L273.309 249.337Z" fill="#407BFF"/>
<path d="M334.789 423.979L348.103 413.02L344.487 407.117L329.912 419.248L334.789 423.979Z" fill="#263238"/>
<path d="M341.295 434.012C340.981 433.978 340.686 433.84 340.458 433.622C340.35 433.537 340.268 433.425 340.219 433.298C340.169 433.17 340.156 433.031 340.179 432.896C340.391 431.658 343.683 430.24 344.051 430.084C344.083 430.063 344.12 430.052 344.158 430.052C344.195 430.052 344.232 430.063 344.264 430.084C344.285 430.115 344.296 430.152 344.296 430.19C344.296 430.228 344.285 430.265 344.264 430.296C343.795 431.535 342.846 433.644 341.63 433.945C341.522 433.984 341.409 434.006 341.295 434.012ZM343.772 430.664C342.656 431.189 340.692 432.238 340.57 432.997C340.561 433.065 340.571 433.134 340.598 433.197C340.626 433.26 340.67 433.314 340.726 433.354C340.831 433.474 340.966 433.563 341.117 433.612C341.268 433.661 341.43 433.668 341.585 433.633C342.277 433.432 343.081 432.338 343.728 430.631L343.772 430.664Z" fill="#407BFF"/>
<path d="M341.072 430.898C340.568 430.904 340.076 430.739 339.677 430.43C339.554 430.3 339.477 430.133 339.461 429.954C339.445 429.776 339.49 429.597 339.588 429.448C339.666 429.29 339.777 429.152 339.914 429.042C340.051 428.932 340.21 428.853 340.38 428.811C341.764 428.454 344.141 430.028 344.242 430.095C344.269 430.116 344.291 430.143 344.306 430.174C344.322 430.205 344.33 430.239 344.331 430.273C344.327 430.308 344.315 430.341 344.295 430.37C344.276 430.399 344.25 430.424 344.219 430.441C343.219 430.83 342.142 430.986 341.072 430.898ZM341.017 429.157C340.839 429.129 340.658 429.129 340.481 429.157C340.363 429.184 340.252 429.237 340.158 429.312C340.063 429.388 339.986 429.484 339.934 429.593C339.789 429.883 339.867 430.028 339.934 430.117C340.481 430.664 342.579 430.552 343.684 430.195C342.872 429.677 341.965 429.324 341.017 429.157Z" fill="#407BFF"/>
<path d="M277.181 454.458C276.381 454.514 275.582 454.323 274.893 453.911C274.717 453.783 274.572 453.615 274.471 453.421C274.371 453.228 274.316 453.013 274.313 452.795C274.296 452.677 274.313 452.556 274.363 452.447C274.412 452.338 274.492 452.246 274.592 452.181C275.708 451.444 279.96 453.431 280.451 453.665C280.489 453.682 280.521 453.711 280.541 453.747C280.561 453.783 280.569 453.825 280.563 453.866C280.557 453.907 280.539 453.944 280.511 453.974C280.483 454.004 280.446 454.025 280.406 454.034C279.349 454.286 278.268 454.428 277.181 454.458ZM275.284 452.415C275.118 452.407 274.953 452.441 274.804 452.516C274.764 452.546 274.733 452.588 274.715 452.635C274.697 452.683 274.693 452.734 274.704 452.784C274.706 452.943 274.746 453.1 274.82 453.241C274.893 453.382 274.999 453.505 275.128 453.598C276.099 454.324 278.476 454.022 279.737 453.777C278.332 453.094 276.83 452.635 275.284 452.415Z" fill="#407BFF"/>
<path d="M280.362 454.045H280.295C279 453.52 276.288 451.344 276.433 450.261C276.433 450.038 276.623 449.748 277.215 449.67C279.525 449.402 280.563 453.643 280.563 453.821C280.569 453.856 280.566 453.892 280.555 453.925C280.543 453.959 280.522 453.988 280.496 454.011C280.477 454.025 280.455 454.036 280.432 454.041C280.409 454.047 280.385 454.048 280.362 454.045ZM277.427 450.038H277.259C276.857 450.094 276.835 450.239 276.824 450.295C276.735 450.987 278.665 452.75 280.072 453.487C279.781 452.505 278.911 450.038 277.427 450.038Z" fill="#407BFF"/>
<path d="M204.038 153.907L200.612 146.386L222.977 137.1L244.65 126.286L248.076 133.808L225.711 143.093L204.038 153.907Z" fill="#407BFF"/>
<path opacity="0.5" d="M204.038 153.907L200.612 146.386L222.977 137.1L244.65 126.286L248.076 133.808L225.711 143.093L204.038 153.907Z" fill="#FAFAFA"/>
<path d="M227.362 134.021L227.106 134.1C226.44 134.304 226.066 135.009 226.269 135.675L228.15 141.822C228.354 142.488 229.059 142.862 229.725 142.659L229.981 142.58C230.647 142.377 231.021 141.671 230.818 141.005L228.937 134.858C228.734 134.192 228.028 133.818 227.362 134.021Z" fill="#407BFF"/>
<path d="M217.757 138.5L217.539 138.655C216.971 139.058 216.838 139.845 217.241 140.413L220.963 145.654C221.366 146.222 222.153 146.355 222.721 145.952L222.94 145.797C223.507 145.394 223.641 144.606 223.238 144.039L219.516 138.798C219.112 138.23 218.325 138.096 217.757 138.5Z" fill="#407BFF"/>
<path d="M227.106 150.158L229.472 141.564L219.216 143.484C219.216 143.484 219.35 149.533 224.216 152.624L227.106 150.158Z" fill="#FF8B7B"/>
<path d="M226.001 133.507L218.658 136.353L219.216 143.484L229.472 141.565L226.001 133.507Z" fill="#FF8B7B"/>
<path d="M218.524 169.632C218.781 160.481 222.52 147.747 222.52 147.747L227.709 147.1C226.902 153.585 226.727 160.133 227.185 166.652L218.524 169.632Z" fill="#FF8B7B"/>
<path d="M268.633 208.971C267.986 209.149 267.606 209.239 267.104 209.361L265.709 209.674L262.964 210.265C261.145 210.645 259.325 211.013 257.473 211.303C253.704 211.966 249.899 212.406 246.079 212.62C241.789 212.905 237.482 212.593 233.278 211.694C230.688 211.117 228.2 210.15 225.901 208.826C225.276 208.469 224.64 208.011 224.026 207.576L223.792 207.408L223.48 207.152L222.843 206.616C222.475 206.259 222.096 205.891 221.727 205.5C220.639 204.271 219.709 202.91 218.96 201.449C217.872 199.317 217.022 197.071 216.426 194.753C215.88 192.688 215.522 190.735 215.21 188.827C214.563 185.021 214.273 181.361 213.971 177.756C213.67 174.152 213.536 170.592 213.424 167.043L213.257 161.719L213.179 159.041C213.179 158.115 213.123 157.289 213.123 156.251L235.443 158.237C235.298 158.874 235.142 159.722 235.008 160.469L234.64 162.835C234.405 164.42 234.238 166.016 234.059 167.612C233.758 170.792 233.546 173.984 233.512 177.109C233.451 180.138 233.574 183.168 233.881 186.182C234.037 187.524 234.26 188.858 234.55 190.177C234.748 191.123 235.04 192.046 235.421 192.934C235.543 193.168 235.622 193.235 235.421 193.057C235.22 192.878 235.309 192.934 235.231 192.878C235.188 192.831 235.139 192.79 235.086 192.755L235.008 192.688C235.097 192.688 235.131 192.789 235.242 192.845C235.873 193.192 236.555 193.437 237.262 193.57C239.681 193.985 242.149 194.037 244.583 193.726C247.485 193.404 250.355 192.844 253.165 192.052C254.605 191.639 256.056 191.204 257.484 190.691C258.198 190.434 258.901 190.166 259.604 189.887L260.62 189.463C260.921 189.329 261.334 189.151 261.49 189.061L268.633 208.971Z" fill="#263238"/>
<g opacity="0.2">
<path d="M258.499 385.812C260.073 391.928 261.747 398.088 263.398 403.97C268.264 402.619 275.183 400.622 282.861 398.111C281.556 391.325 280.294 384.395 279.223 377.9L258.499 385.812Z" fill="black"/>
<path d="M321.888 361.584L300.048 369.909C303.396 375.802 307.067 381.761 310.761 387.442C317.904 384.183 324.354 380.656 329.019 376.951L321.888 361.584Z" fill="black"/>
</g>
<path d="M258.288 194.184C258.935 209.506 239.037 272.482 248.311 401.079C257.618 403.177 324.678 374.842 332.569 366.762C331.888 351.35 303.608 251.423 310.595 194.898C311.041 191.316 308.999 187.923 305.416 187.398C302.392 186.952 298.62 186.506 294.814 186.282C288.688 185.846 282.538 185.846 276.411 186.282C271.814 186.718 266.769 187.577 263.354 188.213C261.933 188.433 260.639 189.158 259.708 190.254C258.778 191.351 258.273 192.746 258.288 194.184Z" fill="#263238"/>
<path d="M292.939 165.67C291.823 171.596 290.707 182.41 294.814 186.383C294.814 186.383 288.91 195.612 278.844 200.166C270.831 193.38 276.411 186.428 276.411 186.428C283.007 184.843 282.828 179.944 281.667 175.346L292.939 165.67Z" fill="#FF8B7B"/>
<path d="M278.42 201.538L279.67 194.396L293.252 183.403L297.905 186.082C297.905 186.082 285.696 201.929 278.42 201.538Z" fill="#E6E6E6"/>
<path d="M278.42 201.538L279.67 194.396L277.884 185.256L273.565 186.048C273.565 186.048 271.188 201.929 278.42 201.538Z" fill="#E6E6E6"/>
<path d="M279.67 194.396C279.67 194.396 285.507 200.155 285.797 205.366C289.736 201.527 299.189 189.229 299.378 185.68C297.314 183.961 293.129 182.912 293.129 182.912L279.67 194.396Z" fill="white"/>
<path d="M279.67 194.396C279.67 194.396 274 198.86 273.699 204.116C269.76 200.277 271.612 189.407 272.103 186.405C274.168 184.687 278.286 184.173 278.286 184.173L279.67 194.396Z" fill="white"/>
<path opacity="0.2" d="M288.342 169.632L281.646 175.346C281.934 176.417 282.128 177.511 282.226 178.616C284.748 178.247 288.542 175.971 288.799 173.337C288.872 172.084 288.717 170.829 288.342 169.632Z" fill="black"/>
<path d="M298.987 156.776C295.639 166.116 294.523 170.168 288.296 173.638C278.989 178.917 268.208 172.835 268.677 162.69C269.067 153.573 274.391 139.835 284.781 138.707C287.069 138.45 289.384 138.781 291.508 139.669C293.632 140.558 295.494 141.974 296.917 143.784C298.341 145.594 299.278 147.737 299.64 150.011C300.002 152.284 299.778 154.613 298.987 156.776Z" fill="#FF8B7B"/>
<path d="M295.082 145.906C289.212 147.97 289.725 159.688 295.551 163.762C301.376 167.835 308.34 141.252 295.082 145.906Z" fill="#263238"/>
<path d="M277.884 141.732C283.799 146.921 292.292 148.93 295.272 147.423C297.437 149.109 304.646 152.524 300.349 144.388C296.053 136.252 288.442 135.203 283.487 135.27C278.532 135.337 272.851 137.268 277.884 141.732Z" fill="#263238"/>
<path d="M299.021 165.57C297.918 167.263 296.202 168.463 294.234 168.918C291.689 169.464 290.752 167.009 291.734 164.565C292.615 162.333 295.004 159.443 297.425 160.001C299.847 160.559 300.405 163.427 299.021 165.57Z" fill="#FF8B7B"/>
<path d="M283.81 155.314C283.587 156.084 282.996 156.597 282.494 156.43C281.991 156.262 281.757 155.548 281.98 154.767C282.203 153.986 282.784 153.483 283.297 153.651C283.81 153.818 284.034 154.544 283.81 155.314Z" fill="#263238"/>
<path d="M275.06 152.814C274.837 153.595 274.246 154.108 273.744 153.93C273.241 153.751 273.007 153.037 273.23 152.267C273.453 151.497 274.034 150.983 274.547 151.151C275.06 151.318 275.284 152.044 275.06 152.814Z" fill="#263238"/>
<path d="M274.759 151.262L273.052 150.146C273.052 150.146 273.587 151.921 274.759 151.262Z" fill="#263238"/>
<path d="M276.992 154.812C275.8 156.379 274.399 157.775 272.829 158.963C273.144 159.357 273.54 159.677 273.991 159.903C274.442 160.128 274.937 160.253 275.441 160.269L276.992 154.812Z" fill="#FF5652"/>
<path d="M278.755 164.32C278.264 164.28 277.778 164.19 277.304 164.052C277.279 164.046 277.255 164.034 277.234 164.018C277.213 164.002 277.196 163.982 277.183 163.959C277.171 163.936 277.163 163.91 277.161 163.884C277.159 163.858 277.162 163.831 277.17 163.806C277.177 163.782 277.188 163.759 277.203 163.74C277.219 163.72 277.238 163.703 277.26 163.691C277.281 163.678 277.305 163.67 277.33 163.667C277.355 163.664 277.381 163.666 277.405 163.673C278.368 163.97 279.388 164.038 280.383 163.869C281.377 163.7 282.318 163.3 283.13 162.702C283.167 162.665 283.217 162.645 283.269 162.645C283.321 162.645 283.371 162.665 283.409 162.702C283.445 162.739 283.465 162.789 283.465 162.841C283.465 162.893 283.445 162.943 283.409 162.981C282.086 164.006 280.421 164.485 278.755 164.32Z" fill="#263238"/>
<path d="M288.586 150.771C288.519 150.765 288.455 150.742 288.4 150.702C288.345 150.663 288.301 150.61 288.274 150.548C288.022 149.996 287.641 149.512 287.163 149.137C286.686 148.762 286.125 148.508 285.528 148.394C285.425 148.378 285.331 148.323 285.267 148.24C285.203 148.157 285.173 148.052 285.182 147.948C285.199 147.847 285.253 147.757 285.334 147.695C285.415 147.632 285.516 147.603 285.618 147.613C286.343 147.744 287.025 148.048 287.608 148.499C288.191 148.949 288.657 149.534 288.966 150.202C289.009 150.296 289.015 150.403 288.981 150.5C288.948 150.598 288.879 150.679 288.787 150.727C288.724 150.757 288.656 150.772 288.586 150.771Z" fill="#263238"/>
<path d="M272.003 147.926C271.934 147.922 271.867 147.899 271.81 147.859C271.753 147.82 271.708 147.766 271.679 147.703C271.637 147.608 271.633 147.5 271.668 147.402C271.704 147.304 271.776 147.224 271.869 147.178C272.534 146.858 273.266 146.702 274.003 146.721C274.741 146.74 275.463 146.935 276.11 147.29C276.195 147.349 276.256 147.438 276.278 147.539C276.301 147.64 276.285 147.747 276.233 147.836C276.176 147.924 276.086 147.986 275.984 148.009C275.882 148.032 275.775 148.014 275.686 147.959C275.154 147.669 274.559 147.511 273.953 147.5C273.347 147.488 272.747 147.623 272.204 147.892C272.142 147.925 272.072 147.936 272.003 147.926Z" fill="#263238"/>
<path d="M348.192 192.443L349.308 183.604L358.024 189.318C358.024 189.318 355.58 194.898 349.9 195.824L348.192 192.443Z" fill="#FF8B7B"/>
<path d="M355.624 177.5L361.316 182.946L358.046 189.318L349.33 183.604L355.624 177.5Z" fill="#FF8B7B"/>
<path d="M348.638 213.703C351.919 205.165 353.37 191.974 353.37 191.974L348.828 189.385C347.071 195.661 344.712 201.753 341.786 207.576L348.638 213.703Z" fill="#FF8B7B"/>
<path d="M309.936 190.936C310.527 192.186 311.286 193.682 312.023 195.043C312.759 196.405 313.551 197.8 314.344 199.161C315.94 201.884 317.625 204.54 319.388 207.085C321.094 209.576 322.931 211.975 324.89 214.272C325.839 215.388 326.787 216.392 327.736 217.33C328.58 218.159 329.483 218.928 330.437 219.629C330.618 219.767 330.808 219.893 331.006 220.008L331.251 220.175H331.162C330.721 219.981 330.248 219.871 329.767 219.852C329.306 219.832 328.845 219.893 328.405 220.03C328.149 220.12 328.149 220.142 328.26 220.03C328.844 219.533 329.362 218.963 329.8 218.334C330.512 217.344 331.165 216.311 331.753 215.243C333.073 212.712 334.192 210.081 335.101 207.375C335.615 205.969 336.028 204.518 336.452 203.067L337.01 200.835C337.099 200.467 337.177 200.099 337.244 199.719C337.311 199.34 337.412 198.96 337.423 198.759L358.939 205.344C358.716 205.935 358.549 206.304 358.348 206.75L357.79 208.022L356.674 210.533C355.937 212.196 355.134 213.881 354.341 215.499C352.695 218.916 350.862 222.239 348.851 225.454C347.744 227.24 346.521 228.951 345.19 230.577C343.584 232.57 341.727 234.348 339.666 235.866C338.29 236.86 336.789 237.666 335.202 238.266C333.204 239.001 331.08 239.335 328.952 239.248C326.806 239.156 324.702 238.624 322.77 237.686L322.133 237.362C321.933 237.261 321.687 237.128 321.587 237.061L320.772 236.57C320.214 236.246 319.734 235.911 319.265 235.576C315.984 233.17 312.961 230.429 310.248 227.396C307.737 224.628 305.427 221.872 303.24 219.071C301.052 216.269 298.965 213.491 296.923 210.623L293.888 206.348L292.392 204.228C291.868 203.48 291.399 202.811 290.841 201.996L309.936 190.936Z" fill="#263238"/>
<path d="M283.464 153.762L281.768 152.646C281.768 152.646 282.348 154.421 283.464 153.762Z" fill="#263238"/>
<path d="M324.02 138.897L323.841 139.6L260.988 123.831L261.167 123.128L294.234 124.467L324.02 138.897Z" fill="#263238"/>
<path d="M323.841 139.6L290.774 138.261L260.988 123.831L294.055 125.182L323.841 139.6Z" fill="#00B34F"/>
<path d="M308.016 147.089C296.188 142.696 283.913 139.616 271.412 137.904C270.63 137.804 270.05 137.19 270.195 136.61L272.427 127.682C272.525 127.424 272.715 127.212 272.961 127.087C273.206 126.961 273.489 126.93 273.755 127.001C286.509 128.718 299.031 131.859 311.085 136.364C311.351 136.43 311.584 136.592 311.738 136.818C311.892 137.045 311.958 137.32 311.922 137.592L309.69 146.52C309.62 146.669 309.521 146.803 309.398 146.913C309.275 147.023 309.131 147.107 308.974 147.16C308.818 147.213 308.653 147.234 308.488 147.222C308.324 147.21 308.163 147.164 308.016 147.089Z" fill="#407BFF"/>
<path opacity="0.3" d="M308.016 147.089C296.188 142.696 283.913 139.616 271.412 137.904C270.63 137.804 270.05 137.19 270.195 136.61L272.427 127.682C272.525 127.424 272.715 127.212 272.961 127.087C273.206 126.961 273.489 126.93 273.755 127.001C286.509 128.718 299.031 131.859 311.085 136.364C311.351 136.43 311.584 136.592 311.738 136.818C311.892 137.045 311.958 137.32 311.922 137.592L309.69 146.52C309.62 146.669 309.521 146.803 309.398 146.913C309.275 147.023 309.131 147.107 308.974 147.16C308.818 147.213 308.653 147.234 308.488 147.222C308.324 147.21 308.163 147.164 308.016 147.089Z" fill="#144394"/>
<path d="M313.596 172.79C313.458 172.79 313.324 172.743 313.217 172.656C313.099 172.553 313.026 172.408 313.014 172.251C313.001 172.095 313.05 171.94 313.15 171.819C318.618 165.38 315.583 162.467 311.376 158.427C308.965 156.106 306.22 153.472 304.836 149.745C301.008 139.466 312.704 132.681 312.815 132.614C312.951 132.538 313.112 132.518 313.263 132.56C313.413 132.602 313.541 132.702 313.619 132.837C313.658 132.904 313.685 132.978 313.695 133.054C313.706 133.131 313.702 133.209 313.682 133.284C313.662 133.359 313.628 133.429 313.58 133.49C313.533 133.552 313.474 133.603 313.407 133.641C312.949 133.898 302.47 140.002 305.941 149.332C307.235 152.814 309.869 155.347 312.201 157.579C316.331 161.552 320.237 165.302 314.054 172.578C313.998 172.645 313.928 172.699 313.849 172.735C313.77 172.772 313.684 172.791 313.596 172.79Z" fill="#407BFF"/>
<path d="M313.596 173.862C313.267 173.864 312.944 173.768 312.669 173.587C312.394 173.405 312.179 173.146 312.052 172.843C311.924 172.539 311.89 172.204 311.952 171.881C312.015 171.558 312.173 171.261 312.405 171.027C312.637 170.793 312.933 170.634 313.256 170.569C313.579 170.504 313.914 170.536 314.218 170.661C314.523 170.787 314.783 171 314.967 171.274C315.15 171.547 315.248 171.869 315.248 172.199C315.248 172.638 315.074 173.059 314.764 173.371C314.455 173.682 314.035 173.859 313.596 173.862ZM313.596 171.73C313.5 171.728 313.406 171.754 313.325 171.806C313.245 171.858 313.181 171.933 313.144 172.021C313.106 172.109 313.095 172.207 313.114 172.301C313.132 172.395 313.178 172.481 313.246 172.549C313.313 172.617 313.4 172.663 313.494 172.681C313.588 172.699 313.685 172.689 313.774 172.651C313.862 172.613 313.937 172.55 313.988 172.469C314.04 172.389 314.067 172.295 314.065 172.199C314.065 172.074 314.015 171.955 313.927 171.867C313.839 171.779 313.72 171.73 313.596 171.73Z" fill="#407BFF"/>
</svg>
