<svg width="22" height="21" viewBox="0 0 22 21" fill="none" xmlns="http://www.w3.org/2000/svg">
<path d="M5.74825 6.125L7.7695 2.625H10.9983L8.977 6.125H5.74825ZM10.9983 6.125L13.0195 2.625H16.2482L14.227 6.125H10.9983ZM16.2482 6.125L18.2695 2.625H18.882C19.3615 2.625 19.75 3.01438 19.75 3.49388V17.5061C19.7484 17.7359 19.6565 17.9559 19.4941 18.1184C19.3316 18.281 19.1118 18.3732 18.882 18.375H3.118C2.88771 18.3748 2.66693 18.2831 2.50418 18.1202C2.34142 17.9573 2.25 17.7364 2.25 17.5061V3.49388C2.2516 3.26408 2.34354 3.04414 2.50595 2.88157C2.66836 2.71899 2.88821 2.62683 3.118 2.625H5.74825L4 5.6525V16.625H18V6.125H16.2482Z" fill="#727272"/>
</svg>
