<svg width="23" height="23" viewBox="0 0 23 23" fill="none" xmlns="http://www.w3.org/2000/svg">
<path d="M13.7917 2.33321C14.3331 2.33303 14.8658 2.46987 15.3401 2.73098C15.8144 2.9921 16.2149 3.369 16.5043 3.82659C16.7937 4.28417 16.9626 4.80756 16.9953 5.348C17.028 5.88844 16.9233 6.42835 16.6911 6.91746L19.75 6.91655C19.9932 6.91655 20.2263 7.01312 20.3982 7.18503C20.5701 7.35694 20.6667 7.5901 20.6667 7.83321V11.4999C20.6667 11.743 20.5701 11.9762 20.3982 12.1481C20.2263 12.32 19.9932 12.4165 19.75 12.4165H18.8334V19.7499C18.8334 19.993 18.7368 20.2262 18.5649 20.3981C18.393 20.57 18.1598 20.6665 17.9167 20.6665H5.08337C4.84026 20.6665 4.6071 20.57 4.43519 20.3981C4.26328 20.2262 4.16671 19.993 4.16671 19.7499V12.4165H3.25004C3.00693 12.4165 2.77377 12.32 2.60186 12.1481C2.42995 11.9762 2.33337 11.743 2.33337 11.4999V7.83321C2.33337 7.5901 2.42995 7.35694 2.60186 7.18503C2.77377 7.01312 3.00693 6.91655 3.25004 6.91655L6.30896 6.91746C5.9824 6.2315 5.90986 5.4519 6.10427 4.71746C6.29867 3.98303 6.74739 3.34141 7.37055 2.90682C7.99371 2.47224 8.75087 2.27289 9.50724 2.34428C10.2636 2.41566 10.9701 2.75314 11.501 3.29663C11.7989 2.99095 12.1552 2.74817 12.5487 2.58268C12.9421 2.4172 13.3648 2.33236 13.7917 2.33321ZM17 12.4165H6.00004V18.8332H17V12.4165ZM18.8334 8.74988H4.16671V10.5832H18.8334V8.74988ZM9.20837 4.16655C8.85526 4.16672 8.51575 4.30274 8.26019 4.54642C8.00463 4.7901 7.85261 5.12276 7.83564 5.47547C7.81867 5.82818 7.93805 6.17389 8.16903 6.44098C8.40002 6.70807 8.72491 6.87606 9.07637 6.91013L9.20837 6.91655H10.5834V5.54155C10.5834 5.19974 10.456 4.87019 10.2262 4.61716C9.99642 4.36414 9.6806 4.20578 9.34037 4.17296L9.20837 4.16655ZM13.7917 4.16655L13.6597 4.17296C13.342 4.20341 13.0447 4.34344 12.8189 4.56907C12.5931 4.79469 12.4529 5.09183 12.4222 5.40955L12.4167 5.54155V6.91655H13.7917L13.9237 6.91013C14.2638 6.87716 14.5795 6.71873 14.8091 6.46572C15.0388 6.21271 15.166 5.88325 15.166 5.54155C15.166 5.19985 15.0388 4.87039 14.8091 4.61738C14.5795 4.36437 14.2638 4.20594 13.9237 4.17296L13.7917 4.16655Z" fill="#7C7C7C"/>
</svg>
