<svg width="23" height="23" viewBox="0 0 23 23" fill="none" xmlns="http://www.w3.org/2000/svg">
<path d="M19.7499 3.25C19.993 3.25 20.2262 3.34658 20.3981 3.51849C20.57 3.69039 20.6666 3.92355 20.6666 4.16667V18.8333C20.6666 19.0764 20.57 19.3096 20.3981 19.4815C20.2262 19.6534 19.993 19.75 19.7499 19.75H3.24992C3.0068 19.75 2.77365 19.6534 2.60174 19.4815C2.42983 19.3096 2.33325 19.0764 2.33325 18.8333V4.16667C2.33325 3.92355 2.42983 3.69039 2.60174 3.51849C2.77365 3.34658 3.0068 3.25 3.24992 3.25H19.7499ZM10.5833 12.4167H4.16659V17.9167H10.5833V12.4167ZM18.8333 12.4167H12.4166V17.9167H18.8333V12.4167ZM10.5833 5.08333H4.16659V10.5833H10.5833V5.08333ZM18.8333 5.08333H12.4166V10.5833H18.8333V5.08333Z" fill="#7C7C7C"/>
</svg>
