<?xml version="1.0" encoding="UTF-8"?><svg id="Layer_2" xmlns="http://www.w3.org/2000/svg" viewBox="0 0 16 16"><defs><style>.cls-1{fill:#f7e500;}</style></defs><g id="Layer_1-2"><rect class="cls-1" width="16" height="16" rx=".5" ry=".5"/><g id="Regular_Icon"><path d="m11.15,4.69c-.31,0-.56.25-.56.56s.25.56.56.56.56-.25.56-.56-.25-.56-.56-.56Z"/><path d="m13.9,2.5h-5.51l.44,4.74h-1.67l.44-4.74H2.1l.52,5.5-.52,5.5h5.34l-.96-4,1.53.3,1.53-.3-.96,4h5.34l-.52-5.5.52-5.5Zm-9.05,3.96c-.67,0-1.21-.54-1.21-1.21s.54-1.21,1.21-1.21,1.21.54,1.21,1.21-.54,1.21-1.21,1.21Zm6.29,0c-.67,0-1.21-.54-1.21-1.21s.54-1.21,1.21-1.21,1.21.54,1.21,1.21-.54,1.21-1.21,1.21Z"/><path d="m4.85,4.69c-.31,0-.56.25-.56.56s.25.56.56.56.56-.25.56-.56-.25-.56-.56-.56Z"/></g></g></svg>