<svg width="126" height="12" viewBox="0 0 126 12" fill="none" xmlns="http://www.w3.org/2000/svg">
<g clip-path="url(#clip0_4312_20271)">
<g clip-path="url(#clip1_4312_20271)">
<path d="M118.994 11.9986C123.48 11.9986 125.436 10.1746 125.436 7.92305C125.436 5.42501 122.921 4.68543 120.178 4.48878C119.635 4.456 119.307 4.34058 119.307 4.07838C119.307 3.84895 119.571 3.6181 120.902 3.6181C122.397 3.6181 123.893 3.93018 125.043 4.3078L125.093 4.25793L124.798 0.70823C123.779 0.313502 121.938 0.0014264 120.262 0.0014264C116.483 0.0014264 114.38 1.74421 114.38 3.92875C114.38 5.96651 116.188 7.23192 119.376 7.46277C120 7.51265 120.51 7.62665 120.51 7.92305C120.51 8.21945 120.017 8.38333 118.883 8.38333C117.223 8.38333 115.728 8.02138 114.594 7.67652L114.544 7.69362L114.873 11.3915C115.563 11.638 117.059 12 118.998 12M108.827 0.249377L107.857 2.68187L106.575 5.04881H106.542V0.250803H101.284L101.777 6.05201L101.284 11.7549H106.542V8.46883L107.38 7.84467L108.021 9.43926L108.597 11.7563H114.381V11.7235L111.276 5.42929L114.381 0.269324V0.252225H108.827V0.249377ZM97.093 12C98.3256 12 99.3117 11.8689 100.215 11.6224L100.577 7.39865L100.56 7.38155C99.5084 7.69362 98.5721 7.89027 97.6017 7.89027C95.7278 7.89027 94.8742 7.16779 94.8742 6.00071C94.8742 4.83363 95.7292 4.11115 97.6017 4.11115C98.5707 4.11115 99.5084 4.3078 100.56 4.61988L100.577 4.60278L100.215 0.379053C99.3117 0.132526 98.3256 0.0014264 97.093 0.0014264C92.3933 0.0014264 89.9437 2.48237 89.9437 5.99929C89.9437 9.51621 92.3919 11.9972 97.093 11.9972M82.8286 8.29925C81.777 8.29925 81.2668 7.41147 81.2668 5.99786C81.2668 4.58425 81.7755 3.69647 82.8286 3.69647C83.8817 3.69647 84.3562 4.58425 84.3562 5.99786C84.3562 7.41147 83.8632 8.29925 82.8286 8.29925ZM82.8286 11.9972C86.8871 11.9972 89.2868 9.63021 89.2868 5.99929C89.2868 2.36837 86.8871 0.0014264 82.8286 0.0014264C78.7702 0.0014264 76.3377 2.36837 76.3377 5.99929C76.3377 9.63021 78.7374 11.9972 82.8286 11.9972ZM69.4022 11.9972C73.8881 11.9972 75.8447 10.1731 75.8447 7.92163C75.8447 5.42358 73.3309 4.684 70.5864 4.48735C70.0434 4.45458 69.7157 4.33915 69.7157 4.07695C69.7157 3.84752 69.9779 3.61667 71.3103 3.61667C72.8051 3.61667 74.3014 3.92875 75.4514 4.30638L75.5012 4.2565L75.2048 0.706803C74.1859 0.312076 72.3448 0 70.669 0C66.8899 0 64.7852 1.74279 64.7852 3.92732C64.7852 5.96509 66.5935 7.23049 69.7812 7.46135C70.4054 7.51122 70.9156 7.62522 70.9156 7.92163C70.9156 8.21803 70.4225 8.3819 69.2882 8.3819C67.628 8.3819 66.1332 8.01995 64.9989 7.6751L64.949 7.6922L65.2782 11.3901C65.9679 11.6366 67.4642 11.9986 69.4036 11.9986" fill="black" fill-opacity="0.95"/>
<path d="M56.3988 0.247966L55.7576 2.82866L55.4127 4.30782H55.3472L55.0023 2.82866L54.3611 0.247966H48.8392L52.7009 8.89207L52.406 11.7521H57.8295L57.5331 8.92485L61.412 0.247966H56.4003H56.3988ZM43.1861 3.25474C44.2549 3.25474 44.8947 3.73069 44.8947 4.76667C44.8947 5.80265 44.2535 6.32848 43.1861 6.32848V3.25474ZM44.1395 0.247966H38.1088L38.6019 6.04918L38.2727 11.7521H43.598L43.1876 9.25402V9.23693L44.8634 9.36802C47.4113 9.36802 49.251 7.51124 49.251 4.79945C49.251 2.08765 47.4099 0.246544 44.1395 0.246544M31.3871 3.25331C32.4558 3.25331 33.0956 3.72926 33.0956 4.76525C33.0956 5.80123 32.4544 6.32705 31.3871 6.32705V3.25331ZM32.3404 0.246544H26.3098L26.8028 6.04775L26.4736 11.7506H31.7975L31.3871 9.2526V9.2355L33.0629 9.3666C35.6094 9.3666 37.4505 7.50982 37.4505 4.79802C37.4505 2.08623 35.6094 0.245117 32.339 0.245117M19.8331 7.11508H18.3867L19.0935 2.95691H19.1263L19.8331 7.11508ZM25.8965 11.7492L24.319 6.01356L23.1035 0.245117H15.4455L14.3938 6.01356L13.0301 11.7492H17.6158L17.878 10.1546H20.3432L20.6069 11.7492H25.8979H25.8965ZM7.19467 0.245117V4.00857H5.32079V0.245117H0.0625L0.555553 6.04633L0.0625 11.7492H5.32079V7.95299H7.19467V11.7492H12.453L11.9599 6.04633L12.453 0.245117H7.19467Z" fill="black" fill-opacity="0.95"/>
</g>
</g>
<defs>
<clipPath id="clip0_4312_20271">
<rect width="125.5" height="12" fill="white"/>
</clipPath>
<clipPath id="clip1_4312_20271">
<rect width="125.5" height="12" fill="white"/>
</clipPath>
</defs>
</svg>